<svg xmlns="http://www.w3.org/2000/svg" viewBox="0 0 512 512">
  <defs>
    <style>
      .t {
        fill: #dddddd;
      }
    </style>
  </defs>
  <path
    d="M 74.978073,74.978001 C 28.657646,121.30809 0,185.32013 0,256.00006 v 0 c 0,70.68948 28.657646,134.69189 74.978073,181.02186 v 0 C 121.30809,483.35201 185.31049,512 255.99999,512 v 0 c 70.67991,0 134.69192,-28.64799 181.01233,-74.97808 v 0 C 483.34238,390.69195 512,326.68954 512,256.00006 v 0 C 512,185.32013 483.34238,121.30809 437.01232,74.978001 v 0 C 390.69191,28.6577 326.6799,0 255.99999,0 V 0 C 185.31049,0 121.30809,28.6577 74.978073,74.978001 M 188.5533,103.01204 198.57917,44.401473 c 18.30558,-4.95995 37.55139,-7.598362 57.42082,-7.598362 v 0 c 5.81404,0 11.56092,0.230173 17.25983,0.670639 v 0 l -65.3072,69.19279 z m 66.58322,-16.617031 42.98167,-45.543155 c 1.09373,0.201449 2.19705,0.431736 3.28119,0.661984 v 0 l -1.1513,76.369242 z m 66.54484,-39.575697 c 26.66207,8.356498 51.10789,21.673134 72.31091,38.85615 v 0 L 320.86586,100.8246 Z M 176.62781,51.616364 168.4824,99.222385 114.07412,88.956659 c 18.4591,-15.715199 39.55657,-28.408138 62.55369,-37.340295 z m 47.1647,67.983946 17.22146,-18.23845 58.85995,41.10127 -0.44133,29.05096 -36.61118,28.34109 z m 159.0034,-10.79331 29.80898,-6.17869 c 6.85977,7.00369 13.25907,14.46795 19.13065,22.33504 v 0 l -47.36618,15.50422 z m -252.69,43.61484 -22.15284,-43.87396 89.86816,16.96233 -22.44066,61.27774 z m 190.44334,-30.73001 42.04145,-8.70176 1.70775,34.05906 -44.35363,14.52552 z M 44.996439,196.39169 C 53.563992,166.01665 68.502042,138.32806 88.28512,114.8609 v 0 l 21.41409,42.39639 -51.194245,53.79424 z M 328.55075,180.23516 443.59388,142.54949 c 2.80146,4.62429 5.43987,9.36389 7.89596,14.19931 v 0 l -55.64591,51.09819 z m -136.66828,20.85766 20.99194,-57.31529 33.48348,68.83786 -25.48198,19.72554 z m -119.523591,24.99262 50.800881,-53.39127 41.16838,31.2384 -61.66142,55.04156 z m 339.583991,-5.33424 48.3448,-44.3729 c 2.53289,6.48575 4.75869,13.10563 6.66788,19.87907 v 0 l -25.05985,61.37359 z m -104.9789,2.39853 8.68268,-26.1823 66.77512,27.39107 -38.43408,55.75154 z m -14.71738,-20.29161 -36.7359,110.74492 -23.62073,-64.02157 z m -170.35325,66.23785 57.58392,-51.39572 26.67166,28.76315 -32.22665,39.88282 z M 36.803057,256.00006 c 0,-12.03115 0.959412,-23.82233 2.830266,-35.3257 v 0 l 46.809727,50.80105 -44.804555,30.53794 c -3.175658,-14.84206 -4.835438,-30.23104 -4.835438,-46.01329 m 419.762083,19.70634 17.44211,-42.694 c 0.78674,7.56027 1.18971,15.22591 1.18971,22.98766 v 0 c 0,13.13427 -1.15131,25.99033 -3.36759,38.48197 v 0 z m -100.5656,22.87234 42.65545,-61.87249 33.19575,40.8901 -54.9744,53.09397 z m -57.23854,-50.67613 30.54768,47.00156 -56.9603,32.5816 z m -108.84533,51.08866 26.40303,-32.65833 27.86133,75.54403 -41.71525,15.51371 z M 47.203085,322.90945 96.756731,289.12852 115.79147,342.76924 62.707191,359.4822 C 56.490197,347.8829 51.280587,335.65046 47.203085,322.90945 m 90.338265,15.5808 -1.89004,-0.79631 -17.10633,-48.17208 52.18244,17.27905 10.81258,50.3788 z m 256.04798,4.41331 51.16543,-49.41932 20.28197,24.97353 1.48713,-1.20896 c -4.22143,14.54483 -9.91072,28.47541 -16.90489,41.6098 v 0 z m -112.3376,3.02215 59.20533,-33.86732 20.0805,30.90274 -37.85841,18.37277 z m -180.2448,65.07693 C 90.770001,400.77527 81.55964,389.55023 73.510173,377.48072 v 0 l 59.512347,-18.74683 54.29314,23.0547 3.73212,1.58302 3.82805,-1.41993 50.89683,-18.93884 v 111.9538 c -56.46142,-2.60001 -107.34865,-26.54687 -144.76573,-63.964 m 226.65157,-29.40594 47.03039,-22.84365 64.1175,18.25765 c -8.13581,12.2516 -17.4517,23.63996 -27.80372,33.99194 v 0 c -37.4267,37.41713 -88.31393,61.36399 -144.78494,63.964 v 0 -112.89399 l 53.44886,19.87903 4.10629,1.52538 z"
    class="t"
    id="symbol"/>
</svg>
