<svg xmlns="http://www.w3.org/2000/svg" viewBox="0 0 1480 512">
  <defs>
    <style>
      .t {
        fill: #333333;
      }
    </style>
  </defs>
  <path
    d="M 74.978073,74.978001 C 28.657646,121.30809 0,185.32013 0,256.00006 v 0 c 0,70.68948 28.657646,134.69189 74.978073,181.02186 v 0 C 121.30809,483.35201 185.31049,512 255.99999,512 v 0 c 70.67991,0 134.69192,-28.64799 181.01233,-74.97808 v 0 C 483.34238,390.69195 512,326.68954 512,256.00006 v 0 C 512,185.32013 483.34238,121.30809 437.01232,74.978001 v 0 C 390.69191,28.6577 326.6799,0 255.99999,0 V 0 C 185.31049,0 121.30809,28.6577 74.978073,74.978001 M 188.5533,103.01204 198.57917,44.401473 c 18.30558,-4.95995 37.55139,-7.598362 57.42082,-7.598362 v 0 c 5.81404,0 11.56092,0.230173 17.25983,0.670639 v 0 l -65.3072,69.19279 z m 66.58322,-16.617031 42.98167,-45.543155 c 1.09373,0.201449 2.19705,0.431736 3.28119,0.661984 v 0 l -1.1513,76.369242 z m 66.54484,-39.575697 c 26.66207,8.356498 51.10789,21.673134 72.31091,38.85615 v 0 L 320.86586,100.8246 Z M 176.62781,51.616364 168.4824,99.222385 114.07412,88.956659 c 18.4591,-15.715199 39.55657,-28.408138 62.55369,-37.340295 z m 47.1647,67.983946 17.22146,-18.23845 58.85995,41.10127 -0.44133,29.05096 -36.61118,28.34109 z m 159.0034,-10.79331 29.80898,-6.17869 c 6.85977,7.00369 13.25907,14.46795 19.13065,22.33504 v 0 l -47.36618,15.50422 z m -252.69,43.61484 -22.15284,-43.87396 89.86816,16.96233 -22.44066,61.27774 z m 190.44334,-30.73001 42.04145,-8.70176 1.70775,34.05906 -44.35363,14.52552 z M 44.996439,196.39169 C 53.563992,166.01665 68.502042,138.32806 88.28512,114.8609 v 0 l 21.41409,42.39639 -51.194245,53.79424 z M 328.55075,180.23516 443.59388,142.54949 c 2.80146,4.62429 5.43987,9.36389 7.89596,14.19931 v 0 l -55.64591,51.09819 z m -136.66828,20.85766 20.99194,-57.31529 33.48348,68.83786 -25.48198,19.72554 z m -119.523591,24.99262 50.800881,-53.39127 41.16838,31.2384 -61.66142,55.04156 z m 339.583991,-5.33424 48.3448,-44.3729 c 2.53289,6.48575 4.75869,13.10563 6.66788,19.87907 v 0 l -25.05985,61.37359 z m -104.9789,2.39853 8.68268,-26.1823 66.77512,27.39107 -38.43408,55.75154 z m -14.71738,-20.29161 -36.7359,110.74492 -23.62073,-64.02157 z m -170.35325,66.23785 57.58392,-51.39572 26.67166,28.76315 -32.22665,39.88282 z M 36.803057,256.00006 c 0,-12.03115 0.959412,-23.82233 2.830266,-35.3257 v 0 l 46.809727,50.80105 -44.804555,30.53794 c -3.175658,-14.84206 -4.835438,-30.23104 -4.835438,-46.01329 m 419.762083,19.70634 17.44211,-42.694 c 0.78674,7.56027 1.18971,15.22591 1.18971,22.98766 v 0 c 0,13.13427 -1.15131,25.99033 -3.36759,38.48197 v 0 z m -100.5656,22.87234 42.65545,-61.87249 33.19575,40.8901 -54.9744,53.09397 z m -57.23854,-50.67613 30.54768,47.00156 -56.9603,32.5816 z m -108.84533,51.08866 26.40303,-32.65833 27.86133,75.54403 -41.71525,15.51371 z M 47.203085,322.90945 96.756731,289.12852 115.79147,342.76924 62.707191,359.4822 C 56.490197,347.8829 51.280587,335.65046 47.203085,322.90945 m 90.338265,15.5808 -1.89004,-0.79631 -17.10633,-48.17208 52.18244,17.27905 10.81258,50.3788 z m 256.04798,4.41331 51.16543,-49.41932 20.28197,24.97353 1.48713,-1.20896 c -4.22143,14.54483 -9.91072,28.47541 -16.90489,41.6098 v 0 z m -112.3376,3.02215 59.20533,-33.86732 20.0805,30.90274 -37.85841,18.37277 z m -180.2448,65.07693 C 90.770001,400.77527 81.55964,389.55023 73.510173,377.48072 v 0 l 59.512347,-18.74683 54.29314,23.0547 3.73212,1.58302 3.82805,-1.41993 50.89683,-18.93884 v 111.9538 c -56.46142,-2.60001 -107.34865,-26.54687 -144.76573,-63.964 m 226.65157,-29.40594 47.03039,-22.84365 64.1175,18.25765 c -8.13581,12.2516 -17.4517,23.63996 -27.80372,33.99194 v 0 c -37.4267,37.41713 -88.31393,61.36399 -144.78494,63.964 v 0 -112.89399 l 53.44886,19.87903 4.10629,1.52538 z"
    class="t"
    id="symbol"/>
  <g id="text">
    <path
      id="W"
      class="t"
      d="m 753.29599,123.68103 -41.51138,128.13898 h -38.77016 l -24.50812,-77.98098 -25.60078,77.98098 H 584.13538 L 542.624,123.68103 h 37.30371 l 25.79244,81.82821 27.05767,-81.82821 h 33.2877 l 25.78292,82.55735 26.8851,-82.55735 z"/>
    <path id="I1" class="t" d="m 770.37303,123.67782 h 36.20156 v 128.13921 h -36.20156 z"/>
    <path id="N1" class="t" d="m 957.66623,123.68073 v 128.13898 h -29.83789 l -56.57692,-68.27176 v 68.27176 h -35.5081 V 123.68073 h 29.83794 l 56.56732,68.28124 v -68.28124 z"/>
    <path
      id="D"
      class="t"
      d="m 1045.6585,222.90168 c 10.9745,0 19.7829,-3.10851 26.4251,-9.33513 6.6422,-6.22659 9.9681,-14.83253 9.9681,-25.81784 0,-10.97571 -3.3259,-19.58166 -9.9681,-25.80824 -6.6422,-6.21702 -15.4506,-9.33513 -26.4251,-9.33513 h -22.869 v 70.29634 z m -59.07053,-99.22265 h 60.52743 c 14.0225,0 26.4634,2.62877 37.3133,7.87676 10.8499,5.24802 19.2653,12.69305 25.2462,22.33519 5.9712,9.64211 8.9521,20.92483 8.9521,33.85773 0,12.9425 -2.9809,24.23482 -8.9521,33.87692 -5.9809,9.64214 -14.3963,17.07757 -25.2462,22.3256 -10.8499,5.24798 -23.2908,7.8768 -37.3133,7.8768 h -60.52743 z"/>
    <path id="I2" class="t" d="m 1141.7336,123.67782 h 36.2111 v 128.13921 h -36.2111 z"/>
    <path id="N2" class="t" d="m 1329.0277,123.68073 v 128.13898 h -29.8378 l -56.577,-68.27176 v 68.27176 h -35.5081 V 123.68073 h 29.838 l 56.5673,68.28124 v -68.28124 z"/>
    <path
      id="G"
      class="t"
      d="m 1445.0645,185.01188 h 32.0132 v 53.08429 c -7.3228,5.24799 -15.7382,9.27753 -25.2368,12.07899 -9.5081,2.8111 -19.0162,4.21183 -28.5339,4.21183 -13.4092,0 -25.4764,-2.83026 -36.2114,-8.50998 -10.7349,-5.67972 -19.1408,-13.57569 -25.2368,-23.70709 -6.0863,-10.1314 -9.1438,-21.59637 -9.1438,-34.41415 0,-12.80813 3.0575,-24.2827 9.1438,-34.4141 6.096,-10.13141 14.5689,-18.03697 25.4189,-23.70709 10.8596,-5.67012 23.109,-8.51958 36.7673,-8.51958 11.9427,0 22.6776,2.01475 32.1762,6.05389 9.5177,4.01994 17.4347,9.81479 23.7799,17.38454 l -23.0419,20.86723 c -8.655,-9.51738 -19.0162,-14.27607 -31.0931,-14.27607 -10.965,0 -19.8022,3.3292 -26.5211,9.97791 -6.6998,6.64872 -10.0545,15.52328 -10.0545,26.63327 0,7.0805 1.524,13.3934 4.572,18.9484 3.0575,5.54544 7.3228,9.88195 12.8053,13.00006 5.4825,3.10851 11.7605,4.66273 18.8341,4.66273 6.949,0 13.4667,-1.40073 19.5626,-4.21183 z"/>
    <path id="T" class="t" d="m 598.71049,324.19199 h -39.3165 v -28.74398 h 114.66198 v 28.74398 h -39.1344 v 99.395 h -36.21108 z"/>
    <path
      id="R"
      class="t"
      d="m 769.82663,342.8652 c 0,-5.98677 -1.88822,-10.62085 -5.67417,-13.91149 -3.77635,-3.29088 -9.393,-4.95058 -16.83077,-4.95058 h -20.10867 v 37.53218 h 20.10867 c 7.44737,0 13.05442,-1.62153 16.83077,-4.85476 3.78595,-3.22356 5.67417,-7.83837 5.67417,-13.81535 m -22.85953,46.68484 h -19.75408 v 34.03997 H 691.00197 V 295.45103 h 58.52425 c 11.57832,0 21.64225,1.92843 30.16305,5.76601 8.54959,3.84725 15.12468,9.33502 19.76367,16.47311 4.6294,7.13797 6.93933,15.53287 6.93933,25.17505 0,9.27749 -2.15656,17.3557 -6.47928,24.25391 -4.32269,6.89801 -10.52398,12.29956 -18.56557,16.20438 l 27.61357,40.26652 h -38.77017 z"/>
    <path id="E1" class="t" d="m 932.39298,395.61316 v 27.97783 h -102.787 V 295.5677 h 100.40038 v 27.98759 h -64.55334 v 21.58462 h 56.87595 v 27.06746 h -56.87595 v 23.40579 z"/>
    <path id="E2" class="t" d="m 1061.684,395.58568 v 28.00531 H 958.90697 V 295.442 h 100.40953 v 28.01487 h -64.55307 v 21.60609 h 56.86617 v 27.09377 h -56.86617 v 23.42895 z"/>
  </g>
</svg>
