<svg xmlns="http://www.w3.org/2000/svg" viewBox="0 0 1260 512">
  <defs>
    <style>
      .cls-1 {
        fill: #333333;
      }
      .cls-2 {
        fill: url("#linear-gradient");
      }
    </style>
    <linearGradient id="linear-gradient" x1="75" y1="75" x2="435" y2="435" gradientUnits="userSpaceOnUse">
      <stop offset="0" stop-color="#00df9e"/>
      <stop offset="0.1" stop-color="#0bd499"/>
      <stop offset="0.3" stop-color="#16c994"/>
      <stop offset="0.5" stop-color="#1ac592"/>
      <stop offset="1" stop-color="#0b8fdf"/>
    </linearGradient>
  </defs>
  <polygon
    class="cls-1"
    points="267.08,77.33 259.88,54.3 250.59,54.3 243.03,77.13 235.84,54.3 225.42,54.3 237.01,90.05 247.84,90.05 254.98,68.3 261.83,90.05 272.65,90.05 284.24,54.3 274.59,54.3 "
    id="polygon19"
    transform="matrix(2.7018882,0,0,2.7018882,-3.699638,0.01920928)"/>
  <rect class="cls-1" x="770.66156" y="146.73174" width="27.316088" height="96.565491" id="rect21"/>
  <polygon class="cls-1" points="311.37,90.05 311.37,71 327.15,90.05 335.47,90.05 335.47,54.3 325.56,54.3 325.56,73.35 309.79,54.3 301.46,54.3 301.46,90.05 " id="polygon23" transform="matrix(2.7018882,0,0,2.7018882,-3.699638,0.01920928)"/>
  <path
    class="cls-1"
    d="m 989.35234,152.67589 a 64.142825,64.142825 0 0 0 -28.15368,-5.94415 h -45.66191 v 96.5925 h 45.66191 a 64.142825,64.142825 0 0 0 28.15368,-5.94415 44.581155,44.581155 0 0 0 18.91316,-16.83277 47.364099,47.364099 0 0 0 6.7547,-25.50582 47.391118,47.391118 0 0 0 -6.7547,-25.53284 44.581155,44.581155 0 0 0 -18.91316,-16.83277 z m -9.32152,61.9543 a 28.072618,28.072618 0 0 1 -19.93993,7.02491 h -17.23805 v -52.98403 h 17.23805 a 27.964542,27.964542 0 0 1 19.93993,6.97087 25.235635,25.235635 0 0 1 7.51125,19.4536 25.316692,25.316692 0 0 1 -7.51125,19.53465 z"
    id="path25"/>
  <rect class="cls-1" x="1024.6659" y="146.73174" width="27.316088" height="96.565491" id="rect27"/>
  <polygon class="cls-1" points="421.15,90.05 429.47,90.05 429.47,54.3 419.57,54.3 419.57,73.35 403.79,54.3 395.47,54.3 395.47,90.05 405.37,90.05 405.37,71 " id="polygon29" transform="matrix(2.7018882,0,0,2.7018882,-3.699638,0.01920928)"/>
  <polygon class="cls-1" points="258.48,100.16 226.46,100.16 226.46,108.17 237.44,108.17 237.44,135.9 247.55,135.9 247.55,108.17 258.48,108.17 " id="polygon31" transform="matrix(2.7018882,0,0,2.7018882,-3.699638,0.01920928)"/>
  <path
    class="cls-1"
    d="m 786.46755,324.65107 a 34.097829,34.097829 0 0 0 -15.26566,-49.68772 55.118518,55.118518 0 0 0 -22.7499,-4.32302 h -44.25693 v 96.56548 h 27.31609 v -25.66793 h 14.8874 l 17.53526,25.66793 h 29.42356 l -20.83156,-30.36922 a 32.990054,32.990054 0 0 0 13.94174,-12.18552 z m -27.01888,-7.7274 a 19.048312,19.048312 0 0 1 -12.67185,3.64755 h -15.18461 v -28.28877 h 15.18461 a 18.913217,18.913217 0 0 1 12.67185,3.72861 13.158195,13.158195 0 0 1 4.296,10.48333 12.942044,12.942044 0 0 1 -4.26898,10.42928 z"
    id="path33"/>
  <polygon
    class="cls-1"
    points="325.84,100.16 297.81,100.16 297.81,135.9 326.51,135.9 326.51,128.09 307.82,128.09 307.82,121.55 321.22,121.55 323.66,113.99 307.82,113.99 307.82,107.97 325.84,107.97 "
    id="polygon35"
    transform="matrix(2.7018882,0,0,2.7018882,-3.699638,0.01920928)"/>
  <polygon
    class="cls-1"
    points="358.1,100.16 330.07,100.16 330.07,135.9 358.76,135.9 358.76,128.09 340.08,128.09 340.08,121.55 353.48,121.55 355.92,113.99 340.08,113.99 340.08,107.97 358.1,107.97 "
    id="polygon37"
    transform="matrix(2.7018882,0,0,2.7018882,-3.699638,0.01920928)"/>
  <path
    class="cls-1"
    d="m 1235.8726,192.96105 v 26.4785 a 34.55715,34.55715 0 0 1 -14.7523,3.18823 28.50492,28.50492 0 0 1 -14.212,-3.51246 24.830352,24.830352 0 0 1 -9.6727,-9.80785 29.180392,29.180392 0 0 1 -3.4314,-14.26597 26.019183,26.019183 0 0 1 27.5863,-27.50522 30.531336,30.531336 0 0 1 23.1822,10.51034 l 7.8084,-24.31699 a 50.714441,50.714441 0 0 0 -8.1057,-4.48513 62.143428,62.143428 0 0 0 -24.317,-4.53918 59.063275,59.063275 0 0 0 -27.6673,6.61963 47.715345,47.715345 0 0 0 -19.1834,17.8865 52.227498,52.227498 0 0 0 0,51.84923 47.958515,47.958515 0 0 0 18.9132,17.8865 57.712331,57.712331 0 0 0 27.3161,6.40348 75.977095,75.977095 0 0 0 21.6151,-3.16121 63.791579,63.791579 0 0 0 19.0483,-9.10537 v -40.12303 z"
    id="path39"/>
  <path
    class="cls-2"
    d="M 438.3815,76.347549 A 256.0039,256.0039 0 1 0 254.00465,512 h 1.97238 A 256.0039,256.0039 0 0 0 438.3815,76.347549 Z M 260.89446,484.33266 v -71.4109 l 28.23473,-43.74357 24.96545,20.56137 a 4.9444553,4.9444553 0 0 0 3.13419,1.10777 4.9984931,4.9984931 0 0 0 2.45872,-0.64845 l 25.55986,-14.83337 v 0 l 28.45088,-16.83276 23.85768,27.85647 a 4.9174364,4.9174364 0 0 0 3.75562,1.72921 4.8633987,4.8633987 0 0 0 2.89102,-0.94566 l 36.88077,-26.88379 12.64484,9.96997 a 228.30955,228.30955 0 0 1 -192.83376,114.0467 z m -9.80785,0 A 228.03936,228.03936 0 0 1 68.195804,385.9299 l 41.987336,-3.51246 a 4.2960022,4.2960022 0 0 0 1.02672,-0.18913 h 0.13509 a 4.2960022,4.2960022 0 0 0 1.10778,-0.5674 h 0.16211 l 21.61511,-15.26566 55.36169,20.83155 a 4.782342,4.782342 0 0 0 1.7292,0.32423 4.8904176,4.8904176 0 0 0 3.8637,-1.89132 l 19.29148,-24.72228 36.66463,52.2275 z m 185.83587,-274.64693 -1.64815,-17.83246 0.27018,-26.85677 34.31398,10.80756 c 1.18883,3.18822 2.32363,6.43049 3.37736,9.67276 z m 39.28545,-14.42808 a 234.19967,234.19967 0 0 1 5.70098,27.01888 l -36.28635,-6.61962 z m -95.64684,-95.890011 20.77752,26.073221 -11.48302,14.69827 -44.22991,-13.50944 -0.16212,-7.86249 z m -5.40378,-38.15066 a 229.66049,229.66049 0 0 1 41.23082,32.23353 L 406.41816,116.03829 386.12698,90.586499 Z M 354.86613,291.12064 V 263.5884 l 16.96786,-3.78264 14.42808,20.53435 z m 36.3404,-2.08045 8.70008,22.12846 7.07895,18.34582 -14.96846,6.13329 -36.25934,-23.07413 -0.67548,-11.13178 z m -18.29178,-39.55564 -18.04862,4.02581 v -21.48001 l 30.96364,14.56318 -12.888,2.89102 z m -10.80756,-24.83036 63.73755,-25.69495 3.56649,36.12424 -27.96454,8.10567 z m -4.75532,-8.48392 8.56499,-31.93632 16.72468,-19.39956 37.44817,25.88409 z m 20.69646,-60.81951 -16.61661,18.91322 -15.72499,-17.77842 v -19.64273 l 37.66432,11.5911 z m -7.10596,-61.792181 -30.4773,16.643631 -33.09813,-18.480911 16.99488,-19.64273 z m -42.31157,-30.3422 4.18793,-22.3176 a 224.90517,224.90517 0 0 1 29.07231,12.72589 l 10.99669,29.90991 z m -25.50582,169.651551 -11.10476,-26.55956 25.74899,-17.80544 27.39715,37.39413 v 10.96967 z m 42.04138,13.86069 v 43.74357 l -40.52833,-17.83246 v -29.72077 z m -140.84943,4.18793 -29.07232,-26.64062 28.4779,-25.01948 16.53556,6.10626 13.10415,42.33859 z m 30.58537,6.43049 v 20.21012 l -34.39504,0.32423 5.80906,-17.29208 z m -122.69274,-46.12123 19.7508,-0.45932 29.72077,15.86008 -11.94235,28.4779 -34.2059,-2.45872 -1.16181,-14.42808 v 0 z m 29.96394,-6.24136 22.66884,-17.23805 27.99156,8.10567 -25.4788,22.42567 z m 33.01707,-24.317 18.91322,-12.61781 31.01767,-2.10748 -4.78234,28.96425 -16.02219,-5.75503 h -0.29721 z M 197.265,157.91756 v -22.50673 l 16.21133,-14.48212 15.04951,23.53344 -1.89132,11.42899 z m -6.78174,-29.72077 h -49.95791 l 18.91321,-29.315491 45.76999,16.211331 z m -3.02612,9.80785 v 22.42567 l -23.93873,15.94114 -38.637,-24.31699 9.10537,-14.04982 h 1.16181 52.41663 z m -32.42265,44.60817 -23.69556,18.12967 -20.83156,0.59442 -7.21404,-14.64423 16.21133,-26.42447 z m -41.52803,79.73272 36.50251,2.70189 12.1585,22.34462 -24.31699,16.21133 -37.853452,-22.26356 z m 57.11792,31.15277 17.53525,-4.37706 -1.70219,18.91322 -10.80755,20.12907 -20.04801,-9.64574 -9.67276,-8.61903 z m 0.51336,-10.24015 -12.77993,-23.29028 11.37495,-27.34311 27.23503,24.91141 -7.10597,21.18281 z m 113.31719,-139.33637 -12.77993,-2.35065 -9.56469,-46.985831 36.15127,3.21525 15.18461,8.564981 -20.85858,38.637 z m 23.29027,12.80695 5.70099,22.91201 -28.74809,19.83186 -26.72168,-2.21555 28.01858,-43.23021 z m -40.98764,-6.05223 8.67306,1.59411 -28.69405,44.33798 h -16.72469 l 7.91653,-47.98553 z m 15.80605,58.49587 10.80755,25.58689 -19.91292,8.10566 -16.21133,-35.6379 z m -9.99699,44.44606 v 0 l 22.1825,-8.86219 v 28.53194 l -13.72559,9.37555 -29.72077,-27.01888 19.85888,-1.81026 a 4.1338889,4.1338889 0 0 0 1.40498,-0.21616 z m 40.15006,-106.04911 h -0.37827 l -9.29449,-1.18883 18.91322,-35.12454 13.50944,7.5923 0.24317,11.51005 v 22.10144 z m 6.53857,-87.622231 -49.90388,-13.69857 24.317,-15.48182 a 224.662,224.662 0 0 1 29.72077,6.99789 z m -4.97148,8.80816 -16.61661,19.1834 -36.7727,-3.26928 v -30.61239 z m -53.01104,71.762151 -24.64122,-1.75623 -16.50854,-25.77601 8.51095,-21.236841 23.26326,2.08045 z m -10.18612,-56.739651 -23.02009,-2.02642 -19.50763,-26.72167 15.42778,-25.1816 5.40378,-0.70249 21.6151,20.6154 z m -51.49799,-32.85496 -22.39865,4.62022 -4.8634,-12.07744 a 227.58004,227.58004 0 0 1 38.79911,-11.40196 z m -22.12846,14.61721 23.10114,-4.78234 19.29148,26.39745 -8.10566,20.075021 -47.3641,-16.913821 z m -20.96665,18.69707 -19.29149,-23.29028 a 223.36509,223.36509 0 0 1 26.07322,-13.67155 l 5.40378,13.64453 z m -10.1591,3.13419 -41.14976,-2.70189 a 228.33657,228.33657 0 0 1 23.69556,-18.26477 z m -31.17979,7.7274 33.47639,2.18853 -19.69676,30.612391 -25.77602,-1.45902 z m 7.64634,42.311571 -8.78114,13.50944 v 0 0 L 96.295441,179.5867 58.739196,154.02684 97.133026,135.97822 Z m -18.56197,97.48412 -27.018879,7.53827 -13.212233,-27.77541 38.258732,-4.37706 z m -28.558956,18.12967 v 0 l 29.342506,-8.10567 0.8646,11.02371 -23.992763,33.98975 -26.262353,-32.42266 19.80484,-4.32302 z m 18.670048,36.36741 32.665828,19.37254 -27.018882,11.96937 -11.996384,-22.37164 z m 42.608768,25.749 9.99699,8.70008 -15.10355,32.01737 -1.24287,0.86461 v 0 l -19.37254,13.69857 -20.588385,-34.25994 9.348533,-4.64725 z m 18.34582,14.0228 20.34522,9.80785 v 0 l 31.42296,15.31971 -17.42718,22.34461 -48.17466,-18.12967 z m 29.20742,3.18823 9.53766,-17.80545 40.52832,3.70159 -21.6151,28.09964 z m 12.07744,-27.42417 1.56709,-17.21103 36.74568,-0.35124 v 1.62113 c 0,0.27019 0,0.54038 0,0.81057 l 3.16121,18.91321 z m 34.28696,-98.48382 h 15.34672 l 17.29209,38.33979 -20.18311,1.83728 z m 13.83366,56.49648 28.09964,25.45179 -25.23564,17.37314 -2.864,-17.15699 z m 49.39052,22.72288 -2.70189,37.205 -32.66583,22.58778 -8.97027,-29.31548 z m 4.83638,43.98674 36.12424,40.25813 -17.37314,10.07804 -26.58658,-21.88529 a 4.4310966,4.4310966 0 0 0 -0.59441,-0.37826 h -0.18913 a 3.7015868,3.7015868 0 0 0 -1.02672,-0.40529 v 0 l -21.77722,-6.05223 z m 10.53736,-2.97208 35.82704,-5.40378 -5.75502,38.82614 z m -7.86249,-8.7271 2.51275,-34.80032 41.23082,18.15669 0.59441,9.91593 z m 21.83125,-138.28263 -5.10656,-20.8856 19.85887,4.10687 17.83247,20.15609 -8.10567,30.09903 z m 31.42296,143.9566 27.7484,17.61631 -10.2942,6.80876 -23.07412,13.50944 z m 39.06931,21.91231 18.67004,-7.78144 20.48032,16.21133 -30.99066,22.58779 -19.85888,-23.39836 z m 16.21133,-35.63791 11.21283,-18.39985 19.80484,18.91321 -25.1816,14.67126 z m 5.97117,-28.88318 v 0 l -10.53737,17.26507 -6.86279,-17.26507 c 0,0 0,0 0,0 a 2.9450581,2.9450581 0 0 0 -0.21615,-0.40528 l -0.24317,-0.45932 v 0 l -15.86009,-22.56077 19.75081,-4.4311 h 0.16211 v 0 l 27.99156,-7.88951 0.9997,10.96967 z m 10.80755,-125.85395 a 2.3506427,2.3506427 0 0 0 -0.29721,0.48634 l -0.18913,0.29721 a 4.4851343,4.4851343 0 0 0 -0.37826,0.9997 v 0 a 6.0252106,6.0252106 0 0 0 0,0.97268 v 0 l -0.24317,24.4791 -36.63761,-25.34371 20.7505,-26.55956 31.6121,5.40378 z m 12.0234,0.37826 13.0231,-17.15698 a 224.44585,224.44585 0 0 1 13.18522,25.45178 z m -24.26295,-33.93571 9.07834,-20.56137 a 227.55302,227.55302 0 0 1 20.45329,25.58688 z m -157.33095,-79.381471 -14.8874,-14.1579 c 4.48513,-0.27019 8.99728,-0.4323 13.50944,-0.4323 q 11.42898,0 22.58778,1.10777 z M 104.88744,94.396169 92.269628,127.3592 57.145082,143.94879 A 230.36298,230.36298 0 0 1 95.34978,93.720689 Z M 93.944798,189.88089 99.348575,200.68845 59.6038,205.36271 43.743716,171.61613 q 2.512756,-6.24136 5.403777,-12.29359 z m -44.662211,16.56258 -16.643631,1.91834 a 229.90366,229.90366 0 0 1 6.403475,-23.69556 z m 4.431097,9.37555 13.50944,28.96424 -39.528623,8.67306 a 226.12102,226.12102 0 0 1 3.053133,-35.12454 z m -8.781137,43.90568 16.886801,20.8856 -31.341903,11.40197 a 235.65869,235.65869 0 0 1 -2.701888,-28.53194 z m 23.398352,28.96424 9.753816,12.05042 12.996082,24.317 -20.804539,10.37525 -36.340396,-25.64092 c -0.648453,-2.70189 -1.242868,-5.40378 -1.783246,-8.10567 z m -4.59321,54.03777 -9.67276,19.99397 A 226.39121,226.39121 0 0 1 38.150808,324.73213 Z m 9.915929,2.02641 8.105665,-4.16091 19.615707,32.63881 -39.204396,3.32333 -2.107473,-3.40438 z m 147.063772,7.88952 21.39895,-27.93753 9.18642,30.045 c 0,0 0,0.18913 0,0.29721 a 4.782342,4.782342 0 0 0 0.40528,0.83758 l 0.35125,0.48634 a 4.5121532,4.5121532 0 0 0 0.62143,0.62144 2.8910203,2.8910203 0 0 0 0.43231,0.37826 4.1879266,4.1879266 0 0 0 0.78354,0.37826 3.5935112,3.5935112 0 0 0 0.5674,0.24317 v 0 l 25.55986,6.8628 -24.47911,37.82643 z m 201.37172,-19.83186 26.39745,-15.37375 20.91261,19.99398 a 231.09249,231.09249 0 0 1 -10.80755,24.15488 z m 35.12455,-20.53435 23.0471,-13.50944 a 227.0937,227.0937 0 0 1 -7.32211,28.42386 z m -7.2951,-6.94386 -23.42537,-22.37163 12.37465,-20.29118 45.09451,6.8628 q -0.48634,8.53796 -1.59411,16.8868 z m -9.02431,-52.30855 -1.32392,-14.50914 v 0 l -1.29691,-14.23895 44.90538,8.10566 a 232.74065,232.74065 0 0 1 1.18883,23.47941 c 0,1.21585 0,2.40468 0,3.59351 z"
    id="path41"/>
</svg>
