<svg xmlns="http://www.w3.org/2000/svg" viewBox="0 0 512 512">
  <defs>
    <style>
      .t {
        fill: #333333;
      }
    </style>
  </defs>
  <path
     d="m 352.90915,230.63927 25.84577,47.81424 67.70652,-88.07571 -71.55292,8.51186 z m -107.27943,-78.84454 17.32376,160.67623 85.66969,-123.62169 z m -127.56041,100.6237 15.13581,38.26338 0.43959,0.17983 104.18233,43.69818 -7.43303,-68.98398 z m 100.20606,-99.23503 -92.57322,72.57055 101.68467,11.91859 z m 248.01748,164.87221 c 5.80456,-19.68116 8.90166,-40.50124 8.90166,-62.06061 0,-17.39335 -2.01811,-34.31715 -5.85452,-50.54163 l -69.9644,91.00291 z M 268.71808,474.82558 c 55.47799,-3.16697 105.42116,-26.9642 142.27661,-63.82892 19.22198,-19.2216 34.89729,-41.98981 45.93694,-67.25563 L 377.50609,318.09557 268.71808,366.46928 Z M 55.16828,343.9808 c 11.049641,25.15592 26.674992,47.8542 45.83703,67.01586 36.3659,36.3652 85.46987,60.02256 140.0487,63.69904 V 365.63008 L 127.91008,318.16551 Z M 42.5601,205.89295 c -3.756478,16.10459 -5.764596,32.86855 -5.764596,50.10205 0,21.6393 3.14705,42.53929 8.98158,62.2804 L 106.19045,296.84591 85.399938,244.27622 Z m 22.808617,-58.15434 c -5.35498,9.41099 -10.030596,19.24158 -13.966906,29.44182 l 42.939744,38.47318 93.102715,-73.00013 z M 155.11458,61.361275 c -20.0512,10.410038 -38.28411,23.807216 -54.10927,39.642065 -5.884486,5.87437 -11.419297,12.08843 -16.604436,18.60219 L 197.80456,114.88006 Z M 271.05589,37.314289 c -4.97534,-0.339675 -9.99064,-0.509512 -15.0459,-0.509512 -26.3453,0 -51.59163,4.645554 -74.9897,13.157408 l 45.21761,56.715725 z m 75.75897,19.1217 c -14.51639,-6.60368 -29.862,-11.668833 -45.84702,-15.005639 l -53.10022,82.17136 107.3094,38.59306 z m 64.17983,44.567351 C 400.23478,90.233644 388.34593,80.572889 375.53793,72.230873 l 7.75274,98.086127 70.73368,-8.42194 C 443.21449,139.1768 428.59819,118.5965 410.99469,101.00334 M 256.00999,0 C 326.69372,0 390.69372,28.652579 437.02029,74.988234 483.35685,121.3139 512,185.31265 512,255.995 512,326.68735 483.35685,390.69609 437.02029,437.01177 390.69372,483.34742 326.69372,512 256.00999,512 185.31627,512 121.30628,483.34742 74.989697,437.01177 28.653138,390.69609 0,326.68735 0,255.995 0,185.31265 28.653138,121.3139 74.989697,74.988234 121.30628,28.652579 185.31627,0 256.00999,0 m 101.68467,297.01575 -22.24914,-41.18059 -51.15205,73.81935 z"
     class="t" />
</svg>
