<svg xmlns="http://www.w3.org/2000/svg" viewBox="0 0 512 512">
  <defs>
    <linearGradient id="gradient" x1="0" y1="0" x2="512" y2="512" gradientUnits="userSpaceOnUse">
      <stop offset="0" stop-color="#00df9e"/>
      <stop offset="0.1" stop-color="#0bd499"/>
      <stop offset="0.2" stop-color="#16c994"/>
      <stop offset="0.3" stop-color="#1ac592"/>
      <stop offset="1" stop-color="#0b8fdf"/>
    </linearGradient>
  </defs>
  <path
    d="M 0,255.99097 C 0,114.62067 114.62067,0 255.99097,0 V 0 C 397.37933,0 512,114.62067 512,255.99097 v 0 C 512,397.3974 397.37933,512 255.99097,512 v 0 C 114.62067,512 0,397.3974 0,255.99097 m 129.48559,189.83032 c 36.25018,24.23903 79.74318,38.43567 126.50538,38.43567 v 0 c 5.56306,0 11.01774,-0.43349 16.45437,-0.83085 v 0 L 237.65816,441.36 146.35538,418.83684 Z m 121.62867,-9.97016 37.83963,45.75073 C 339.16591,474.2868 384.1761,450.7883 418.2408,416.30818 v 0 l -53.84245,-1.95068 c -0.1445,0 -0.25287,-0.0722 -0.39736,-0.0903 v 0 c -0.0722,-0.0181 -0.12644,0 -0.19868,0 v 0 c -0.0722,0.0181 -0.10837,0.0181 -0.18062,0.0181 v 0 l -76.29337,-11.41511 z m -132.82703,1.752 17.5742,-28.15846 -6.71902,-40.85597 -74.053688,-4.37097 c 15.569337,28.79063 37.315836,53.69796 63.198508,73.3854 m 30.95805,-32.33076 90.36357,22.2703 36.46693,-33.19773 -92.24201,-142.38177 h -59.85705 z m 243.1851,-100.67689 -19.36233,96.19755 57.40064,2.05905 c 22.97471,-27.21924 39.57357,-59.89318 47.80979,-95.746 v 0 l -42.46347,-53.21029 z m -192.44929,-53.22835 89.22567,137.75793 69.95364,10.45782 19.2359,-95.63763 -64.24609,-58.23149 z m -143.935089,22.57734 -26.839947,7.297 c 2.709281,24.2571 9.283804,47.30406 18.983031,68.67125 v 0 L 126.83049,354.55463 110.32194,254.3654 Z M 337.34166,148.46862 324.1023,236.0326 l 61.24783,55.50414 44.84763,-52.3975 36.196,-71.59728 c -5.43662,-12.87812 -12.10145,-25.10601 -19.7055,-36.66561 v 0 z m 106.85406,93.70501 37.40614,46.85251 c 1.57139,-10.801 2.6551,-21.78262 2.6551,-33.03517 v 0 c 0,-24.65446 -4.06392,-48.35164 -11.3248,-70.64 v 0 z M 62.421844,135.64469 c -21.85487,34.98585 -34.678802,76.14887 -34.678802,120.34628 v 0 c 0,3.75687 0.379299,7.44149 0.559918,11.14418 v 0 l 23.570748,-6.41197 58.321802,-21.04208 39.68194,-128.23932 z m 62.783076,102.44696 57.92444,0.0181 55.34159,-122.62207 -26.3884,-2.40223 -46.85251,-4.26261 z m 73.40347,-0.54186 112.07394,-5.54499 12.95036,-85.12562 -71.23603,-28.51971 z M 338.11832,134.30811 437.60313,118.30529 C 412.20813,84.890817 377.92669,58.701097 338.17251,43.294317 v 0 z M 220.4452,30.813561 173.0689,95.60151 l 76.34755,6.93576 c 0.68635,0.0722 1.33658,0.2348 1.96874,0.46961 v 0 l 72.93386,29.18799 V 38.21893 C 302.7351,31.445726 279.79652,27.743042 255.99097,27.743042 v 0 c -12.11952,0 -23.93199,1.228207 -35.54577,3.070519 M 74.703919,117.8718 156.07267,95.366705 200.25202,34.913606 C 149.51621,47.719476 105.58973,77.467386 74.703919,117.8718"
    style="fill:url(#gradient);stroke:none"
    id="path34"/>
</svg>
