<?xml version="1.0" encoding="UTF-8"?>
<svg width="250px" height="250px" viewBox="0 0 250 250" version="1.1" xmlns="http://www.w3.org/2000/svg" xmlns:xlink="http://www.w3.org/1999/xlink">
    <!-- Generator: Sketch 46 (44423) - http://www.bohemiancoding.com/sketch -->
    <title>Illustrations/ForTravelers</title>
    <desc>Created with Sketch.</desc>
    <defs></defs>
    <g id="Symbols" stroke="none" stroke-width="1" fill="none" fill-rule="evenodd">
        <g id="Illustrations/ForTravelers">
            <g>
                <rect id="Bounds" x="0" y="0" width="250" height="250"></rect>
                <g id="ForTravelers" transform="translate(10.000000, 8.000000)">
                    <path d="M216.2,137.8 L214,135.6 C215.1,133.2 215.7,130.5 215.7,127.7 L215.7,119.6 C215.7,115.6 211.6,112.2 205.5,110.4 L208.4,105.7 C211.2,107.5 213.5,110.1 215.4,112.1 C216.8,108 215.2,103.4 211.5,100.7 L212.1,99.6 C212.4,99.1 212.2,98.5 211.7,98.2 L211.7,98.2 C211.2,98 210.7,98.1 210.4,98.6 L209.7,99.7 C205.1,97.5 199.8,98.7 197.1,102.4 C200.1,102.9 203.4,103.1 206.7,104.7 L203.5,109.9 C201.2,109.4 198.7,109.1 196,109.1 C184.9,109.1 176.3,113.7 176.3,119.6 L176.3,127.7 C176.3,130.2 176.8,132.6 177.7,134.9 C177.6,135 177.6,135.1 177.5,135.2 C176.8,136.4 176.1,137.5 175.4,138.6 C173.9,140.9 173.7,143.2 173.7,145 C173.7,148.8 173.7,155.1 173.7,161.9 C169.7,152.5 163.5,146.5 155.2,144.1 C156.8,143.2 157.9,141.5 157.9,139.5 L157.9,97 L157.9,97 L157.9,90.9 C157.9,76 153.1,50.9 121,50.8 C121,50.8 120.9,50.8 120.9,50.8 C110,50.8 92.5,57 90.3,73.7 C77.2,76.8 72,85.3 71.7,85.8 L71.7,85.8 C70.5,87.6 69.5,89.4 68.8,91.1 C68.2,92.5 68.3,94.2 69.1,95.5 C70,96.8 71.4,97.6 73,97.6 L78.8,97.6 C78.8,97.7 78.8,97.7 78.8,97.8 C78.8,98.8 79.3,99.6 80.1,100.1 C80.2,100.7 80.2,101.3 80.3,101.8 L80.3,103 C80.3,105.6 81,108.1 82.3,110.3 C83.2,115.7 83.8,126.3 80,142.6 L79.7,143.8 L94.8,143.8 C85.1,146.5 78.4,154.8 73.4,169.7 C73.3,170 73.1,170.5 73,170.9 L60.8,150 C59.3,147 56.7,144.8 53.6,143.7 L35.5,103.6 C34.8,102.1 33.6,100.9 32,100.3 C30.5,99.7 28.8,99.8 27.3,100.4 L4.5,110.7 C3,111.4 1.8,112.6 1.2,114.2 C0.6,115.7 0.7,117.4 1.3,118.9 L20,160.3 C20.7,161.8 21.9,163 23.5,163.6 C24.2,163.9 25,164 25.7,164 C26.6,164 27.4,163.8 28.2,163.4 L28.8,163.1 L40.5,167.5 C41.6,168.2 42.6,169.2 43.3,170.4 L61,199.7 C64.6,205.9 71.2,209.5 78.1,209.5 C79.9,209.5 81.8,209.2 83.6,208.7 C83.6,208.7 83.6,208.7 83.6,208.7 L81.9,226.6 L85.5,226.6 L85.5,231.7 L86.3,231.9 C94.5,233.9 105.6,234.6 116.7,234.6 C138.6,234.6 160.5,232 160.9,231.9 L161.8,231.8 L161.8,226.5 L166.4,226.5 L166.3,225.4 C165.7,217.5 164.4,205.2 163.8,199.4 C167.2,204.1 171.1,207.8 179.2,208.4 C189.5,208.4 197.9,200 197.9,189.7 L197.9,160 C197.9,159.1 198.3,158.3 198.9,157.7 L200,156.6 C200,156.6 200.1,156.6 200.1,156.6 C201.1,156.6 202.2,156.2 202.9,155.4 C203.5,154.8 203.9,153.9 204,153.1 C204.4,153.2 204.9,153.3 205.3,153.3 C206.3,153.3 207.4,152.9 208.1,152.1 C208.8,151.4 209.2,150.5 209.3,149.5 C209.6,149.5 209.8,149.6 210.1,149.6 C211.1,149.6 212.2,149.2 212.9,148.4 C214,147.3 214.3,145.7 213.9,144.4 C214.8,144.3 215.7,143.9 216.4,143.3 C217.8,141.9 217.8,139.4 216.2,137.8 Z" id="Shape" fill="#FFFFFF" fill-rule="nonzero"></path>
                    <path d="M116.6,234.7 C105.5,234.7 94.5,234 86.2,232 L85.4,231.8 L85.4,224.7 L87.4,224.7 L87.4,230.3 C110,235.5 152.9,231 159.6,230.2 L159.6,224.7 L161.6,224.7 L161.6,231.9 L160.7,232 C160.4,232 138.5,234.7 116.6,234.7 Z" id="Shape" fill="#3DE0C0" fill-rule="nonzero"></path>
                    <path d="M158.6,188.5 L157,187.3 C157.3,186.9 164.5,176.9 174.2,172.3 L175.1,174.1 C165.9,178.5 158.7,188.4 158.6,188.5 Z" id="Shape" fill="#2C378C" fill-rule="nonzero"></path>
                    <path d="M126.7,163.9 C113.5,171 105.1,163.3 104.8,163 L103.4,164.5 C103.5,164.6 105.9,166.8 110.1,168.1 C111.7,168.6 113.6,168.9 115.8,168.9 C119.1,168.9 123.1,168.1 127.6,165.7 L126.7,163.9 Z" id="Shape" fill="#3DE0C0" fill-rule="nonzero"></path>
                    <path d="M110.4,143.2 L103.2,154.2 L96.6,160 L94.3,153.1 L104.8,143.6 L103.5,142.1 L102.7,142.9 L102.7,142.9 C88.8,142.9 79.8,151.2 73.6,169.8 C73.3,170.6 73,171.7 72.6,173 L74.5,173.6 C74.9,172.3 75.3,171.2 75.5,170.4 C81,153.8 88.8,145.9 100.5,145 L92.2,152.6 L95.9,163.6 L103.3,157.1 L103.3,224.7 L84.3,224.7 L89.2,173.3 L87.2,173.1 L82.1,226.7 L105.3,226.7 L105.3,155.1 L112.3,144.3 L110.4,143.2 Z" id="Shape" fill="#2C378C" fill-rule="nonzero"></path>
                    <path d="M174.2,163.4 C169.7,151.9 162.2,145.2 151.9,143.3 L151.7,143.1 L151.6,143.2 C149.4,142.8 147,142.7 144.5,142.7 L144.6,144.7 C146.5,144.6 148.3,144.8 150.1,145 L135.7,162.2 L128.6,155 L139.1,144.5 L137.7,143.1 L126.2,154.6 L126.2,226.6 L166.3,226.6 L166.2,225.5 C165.4,215 163.3,196.6 163.3,196.4 L161.2,195.4 C161.2,195.6 163.3,214 164.1,224.6 L128.1,224.6 L128.1,157.5 L135.7,165.3 L152.3,145.6 C161.5,147.6 168.2,153.8 172.2,164.2 C172.6,165.1 173,166.2 173.5,167.5 L175.4,166.8 C175,165.4 174.5,164.3 174.2,163.4 Z" id="Shape" fill="#2C378C" fill-rule="nonzero"></path>
                    <circle id="Oval" fill="#FFFFFF" fill-rule="nonzero" cx="194.9" cy="35.4" r="20.2"></circle>
                    <path d="M194.9,56.6 C183.2,56.6 173.7,47.1 173.7,35.4 C173.7,23.7 183.2,14.2 194.9,14.2 C206.6,14.2 216.1,23.7 216.1,35.4 C216.1,47.1 206.6,56.6 194.9,56.6 Z M194.9,16.2 C184.3,16.2 175.7,24.8 175.7,35.4 C175.7,46 184.3,54.6 194.9,54.6 C205.5,54.6 214.1,46 214.1,35.4 C214.1,24.8 205.5,16.2 194.9,16.2 Z" id="Shape" fill="#FFE000" fill-rule="nonzero"></path>
                    <g id="Group" transform="translate(159.000000, 0.000000)" fill-rule="nonzero" fill="#EF882B">
                        <path d="M16.3,17.3 C16.7,17.7 17.3,17.7 17.7,17.3 C17.7,17.3 17.7,17.3 17.7,17.3 C18.1,16.9 18.1,16.3 17.7,15.9 L12.5,10.7 C12.1,10.3 11.5,10.3 11.1,10.7 L11.1,10.7 C10.7,11.1 10.7,11.7 11.1,12.1 L16.3,17.3 Z" id="Shape"></path>
                        <path d="M9.2,34.4 L1.8,34.4 C1.3,34.4 0.8,34.8 0.8,35.4 L0.8,35.5 C0.8,36 1.2,36.5 1.8,36.5 L9.2,36.5 C9.8,36.5 10.2,36.1 10.2,35.5 C10.2,34.9 9.7,34.4 9.2,34.4 Z" id="Shape"></path>
                        <path d="M60.6,10.6 C60.2,10.2 59.6,10.2 59.2,10.6 L54,15.8 C53.6,16.2 53.6,16.8 54,17.2 C54,17.2 54,17.2 54,17.2 C54.4,17.6 55,17.6 55.4,17.2 L60.6,12 C61,11.7 61,11.1 60.6,10.6 L60.6,10.6 Z" id="Shape"></path>
                        <path d="M17.7,53.5 C17.3,53.1 16.7,53.1 16.3,53.5 L11.1,58.7 C10.7,59.1 10.7,59.7 11.1,60.1 L11.1,60.1 C11.5,60.5 12.1,60.5 12.5,60.1 L17.7,54.9 C18.1,54.6 18.1,53.9 17.7,53.5 C17.7,53.6 17.7,53.5 17.7,53.5 Z" id="Shape"></path>
                        <path d="M55.4,53.5 C55,53.1 54.4,53.1 54,53.5 C54,53.5 54,53.5 54,53.5 C53.6,53.9 53.6,54.5 54,54.9 L59.2,60.1 C59.6,60.5 60.2,60.5 60.6,60.1 L60.6,60.1 C61,59.7 61,59.1 60.6,58.7 L55.4,53.5 Z" id="Shape"></path>
                        <path d="M35.9,61.1 C35.3,61.1 34.9,61.5 34.9,62.1 L34.9,69.4 C34.9,69.9 35.3,70.4 35.9,70.4 L36,70.4 C36.5,70.4 37,70 37,69.4 L37,62.1 C36.9,61.6 36.4,61.1 35.9,61.1 Z" id="Shape"></path>
                        <path d="M69.9,34.4 L62.6,34.4 C62,34.4 61.6,34.8 61.6,35.4 C61.6,36 62,36.4 62.6,36.4 L69.9,36.4 C70.4,36.4 70.9,36 70.9,35.4 L70.9,35.3 C70.9,34.8 70.4,34.4 69.9,34.4 Z" id="Shape"></path>
                        <path d="M35.9,0.4 L35.9,0.4 C35.3,0.4 34.9,0.8 34.9,1.4 L34.9,8.7 C34.9,9.3 35.3,9.7 35.9,9.7 C36.5,9.7 36.9,9.3 36.9,8.7 L36.9,1.4 C36.9,0.8 36.4,0.4 35.9,0.4 Z" id="Shape"></path>
                    </g>
                    <g id="Group" transform="translate(101.000000, 113.000000)" fill-rule="nonzero" fill="#F15A29">
                        <path d="M6.2,3.3 C6.9,4.1 8,4.6 9.1,4.6 L11.3,4.6 C11.8,4.6 12.3,4.2 12.3,3.6 L12.3,3.5 C12.3,3 11.9,2.5 11.3,2.5 L9.1,2.5 C8.6,2.5 8,2.3 7.7,1.9 C7.5,1.7 7.3,1.4 7.3,1.1 C7.2,0.7 7,0.4 6.6,0.4 L6.4,0.4 C5.8,0.3 5.2,0.9 5.3,1.5 C5.4,2.2 5.7,2.8 6.2,3.3 Z" id="Shape"></path>
                        <path d="M19.9,9.1 L19.9,9.1 C19.5,8.6 19,8.6 18.5,8.9 C11,14.1 4.1,10.3 2,8.9 C1.6,8.6 1,8.7 0.7,9.1 L0.7,9.1 C0.3,9.5 0.4,10.2 0.9,10.5 C2.5,11.5 6,13.5 10.5,13.5 C13.3,13.5 16.5,12.7 19.7,10.5 C20.2,10.2 20.2,9.6 19.9,9.1 Z" id="Shape"></path>
                    </g>
                    <path d="M152.5,144.8 L130.9,144.8 L131.5,143.4 C139.9,123.1 137.6,105.7 137.6,105.5 L139.6,105.2 C139.7,105.9 141.9,122.5 133.9,142.7 L152.5,142.7 C154.3,142.7 155.8,141.2 155.8,139.4 L155.8,93 L157.8,93 L157.8,139.6 C157.8,142.4 155.4,144.8 152.5,144.8 Z" id="Shape" fill="#5742BC" fill-rule="nonzero"></path>
                    <path d="M111.3,143.8 L79.7,143.8 L80,142.6 C85.8,117.4 81.2,106 81.2,105.8 C81,105.1 76.3,89.8 85.8,77.8 L87.4,79 C78.6,90.2 83.1,105 83.1,105.1 C83.3,105.5 87.8,116.8 82.3,141.8 L111.4,141.8 L111.4,143.8 L111.3,143.8 Z" id="Shape" fill="#5742BC" fill-rule="nonzero"></path>
                    <path d="M117.2,137.2 L109.2,137.2 C108.9,137.1 108.6,137.1 108.4,137.1 C103,136.8 86.5,135.8 88,107.1 L88,97.5 C88,94 88.4,85.3 92.4,79.7 L90.8,78.5 C86.5,84.6 86,93.8 86,97.4 L86,106.9 C85,127.3 92.4,138.1 108.3,139 C109.4,139.1 110.3,140 110.3,141.2 L110.3,150.7 L112.3,150.7 L112.3,141.2 C112.3,140.5 112.1,139.8 111.8,139.2 L117.3,139.2 L117.3,137.2 L117.2,137.2 Z" id="Shape" fill="#EE2A7B" fill-rule="nonzero"></path>
                    <path d="M179,208.6 C169.3,207.9 165.7,202.7 161.6,196.6 C159.1,193 154.8,184.1 151.6,177.3 L153.4,176.4 C157.9,186 161.4,192.7 163.2,195.4 C167.2,201.3 170.4,205.9 179.1,206.5 C188.3,206.5 195.8,199 195.8,189.8 L195.8,160.1 C195.8,158.7 196.4,157.3 197.4,156.3 L198.8,154.9 L200.2,156.3 L198.8,157.7 C198.2,158.3 197.8,159.2 197.8,160 L197.8,189.7 C197.8,200.2 189.4,208.6 179,208.6 Z" id="Shape" fill="#EE2A7B" fill-rule="nonzero"></path>
                    <g id="Group" transform="translate(0.000000, 100.000000)">
                        <rect id="Rectangle-path" fill="#A095EF" fill-rule="nonzero" transform="translate(18.510180, 11.393170) rotate(-24.248122) translate(-18.510180, -11.393170) " x="0.809704496" y="10.3931431" width="35.400951" height="2.00005373"></rect>
                        <polygon id="Shape" fill="#A095EF" fill-rule="nonzero" points="38.5 48 19.5 56.6 20.3 58.4 39.4 49.8"></polygon>
                        <path d="M33,22.8 C33,22.9 33,22.9 33,22.8 C32.8,22.8 32.5,22.7 32.3,22.7 C32.5,20.8 31.1,19.1 29.2,18.9 C28.3,18.8 27.5,19.1 26.8,19.6 C27.8,21 27.8,22.9 26.7,24.3 C26.6,24.5 25.9,24.9 25.7,25.1 C25.6,25.2 25.4,25.2 25.2,25.1 C25.6,23.2 24.5,23.2 24.6,22 C24.7,21 25.1,20.2 25.7,19.5 C25.9,19.3 26.1,19.2 26.3,19 C26.3,19 26.3,19 26.3,19 C27.1,18.4 28.1,18.1 29.2,18.2 C31.6,18.4 33.3,20.5 33,22.8 Z M26.3,20.1 C25.8,20.6 25.5,21.3 25.4,22.1 C25.3,22.6 26.1,23.2 26,24.3 C26,24.3 26.1,24.2 26.2,24.1 C27,22.8 27,21.3 26.3,20.1 Z M20.5,19.9 C20,20.6 19.8,21.4 19.9,22.2 C21.5,22.2 23.1,23.1 23.8,24.7 C23.9,25 24,25.3 24.1,25.6 C24.1,25.7 24.2,25.9 24.3,26 C24.3,26.2 24.2,26.3 24,26.4 C22.6,25.1 22,26.1 21,25.3 C20.2,24.7 19.7,23.9 19.4,23 C19.3,22.7 19.3,22.5 19.3,22.2 C19.3,22.2 19.3,22.2 19.3,22.2 C19.2,21.2 19.5,20.2 20.1,19.4 C21.4,17.5 24,17.1 25.9,18.4 C25.7,18.6 25.5,18.8 25.4,18.9 C23.6,18 21.6,18.4 20.5,19.9 Z M21.3,24.8 C21.7,25.1 22.4,24.9 23.2,25.2 C23.2,25.1 23.1,25.1 23.1,25 C22.5,23.7 21.3,23 20,22.9 C20.2,23.7 20.6,24.3 21.3,24.8 Z M18.4,23.3 C16.6,24.1 15.9,26.2 16.7,27.9 C17.1,28.7 17.7,29.3 18.5,29.7 C19.3,28.2 20.9,27.2 22.7,27.4 C23,27.4 23.4,27.7 23.9,27.8 C24,27.9 24.1,28 24.1,28.3 C22.3,28.9 22.8,29.8 21.7,30.4 C20.8,30.8 19.9,30.9 19,30.7 C19,30.7 19,30.7 19,30.7 C18.8,30.6 18.5,30.6 18.3,30.5 C18.3,30.5 18.3,30.5 18.3,30.5 C17.4,30.1 16.6,29.4 16.1,28.4 C15.1,26.3 16.1,23.8 18.2,22.8 C18.3,22.8 18.3,22.8 18.4,22.7 C18.3,22.8 18.4,23 18.4,23.3 C18.4,23.3 18.4,23.3 18.4,23.3 Z M21.3,29.6 C21.8,29.4 22,28.6 22.8,28.1 C22.7,28.1 22.7,28.1 22.6,28.1 C21.2,28 19.9,28.7 19.2,29.9 C19.9,30 20.6,29.9 21.3,29.6 Z M18.8,31.4 C18.7,33.3 20.1,34.9 21.9,35.1 C22.8,35.2 23.6,34.9 24.3,34.5 C23.5,33.1 23.5,31.3 24.5,29.9 C24.7,29.6 24.9,29.4 25.2,29.2 C25.3,29.2 25.3,29 25.4,28.9 C25.5,28.8 25.7,28.9 25.9,29 C25.5,30.9 26.6,30.9 26.5,32.1 C26.4,33.1 26,34 25.3,34.6 C25.1,34.8 24.9,34.9 24.7,35.1 L24.7,35.1 C24.5,35.2 24.3,35.4 24.1,35.5 C24.1,35.5 24.1,35.5 24,35.5 C23.3,35.8 22.6,36 21.8,35.9 C19.5,35.7 17.8,33.6 18,31.3 C18.3,31.2 18.5,31.3 18.8,31.4 Z M24.8,33.9 C25.3,33.4 25.6,32.7 25.7,31.9 C25.7,31.4 25.2,30.9 25.1,30.1 C25.1,30.1 25.1,30.2 25,30.2 C24.3,31.3 24.2,32.8 24.8,33.9 Z M29.5,45.2 C29.5,45.2 30,45 30.4,44.8 C30.8,44.6 30.8,44.5 31,44.2 C31.4,43.1 32.6,40.1 32.6,40.1 C32.7,39.9 32.9,39.8 33.1,39.9 C33.3,40 33.4,40.2 33.3,40.4 L31.8,44.3 C31.5,45.2 31.4,45.2 30.7,45.5 C30.6,45.6 29.8,45.9 29.8,45.9 C29.6,46 29.4,45.9 29.3,45.7 C29.3,45.5 29.4,45.3 29.5,45.2 Z M33.2,42.2 C33.3,42 33.5,41.9 33.7,42 C33.7,42 33.9,42 35,42.4 C35.3,42.5 35.4,42.5 35.8,42.4 C36.2,42.2 36.7,42 36.7,42 C36.9,41.9 37.1,42 37.2,42.2 C37.3,42.4 37.2,42.6 37,42.7 C37,42.7 36.3,43 36.1,43.1 C35.4,43.4 35.4,43.4 34.5,43.1 L33.5,42.7 C33.2,42.6 33.1,42.4 33.2,42.2 Z M30.6,41.8 L31.8,38.5 C31.9,38.3 32.1,38.2 32.3,38.3 C32.5,38.4 32.6,38.6 32.5,38.8 L31.3,42.1 C31.2,42.3 31,42.4 30.8,42.3 C30.6,42.2 30.5,42 30.6,41.8 Z M29.9,40.2 L31.1,36.9 C31.2,36.7 31.4,36.6 31.6,36.7 C31.8,36.8 31.9,37 31.8,37.2 L30.6,40.5 C30.5,40.7 30.3,40.8 30.1,40.7 C29.9,40.6 29.8,40.4 29.9,40.2 Z M29.3,36.9 C29.2,37.1 29,37.2 28.8,37.1 L26.7,36.3 C26.7,36.3 26.7,36.3 26.7,36.3 C26.3,36.2 25.9,36 25.5,35.7 C25.5,35.7 25.4,35.6 25.4,35.6 C25.6,35.4 25.8,35.3 26,35.1 C26,35.1 26,35.1 26,35.1 C26.4,35.4 26.6,35.5 27.2,35.7 L29.2,36.5 C29.3,36.5 29.3,36.7 29.3,36.9 Z M27.4,29.3 C27.3,29 27.1,28.5 27.2,28.1 C27.2,28 27.3,27.9 27.4,27.8 C28.8,29.1 29.4,28.1 30.4,28.9 C30.9,29.3 31.4,29.8 31.6,30.3 C31.8,30.7 32,31.3 32.1,31.8 C32.1,32.2 32.1,32.6 32.1,33 C32.1,33.1 32,33.2 32,33.3 L29.9,38.9 C29.8,39.1 29.6,39.2 29.4,39.1 C29.2,39 29.1,38.8 29.2,38.6 L31.3,33 C31.4,32.6 31.4,32.2 31.4,31.8 C29.7,31.9 28.1,30.9 27.4,29.3 Z M31.2,31.1 C31,30.5 30.6,29.9 30,29.5 C29.6,29.2 28.7,29.4 27.9,29 C27.9,29 27.9,29.1 27.9,29.1 C28.5,30.3 29.8,31.1 31.2,31.1 Z M34.3,26.2 C33.9,25.4 33.3,24.8 32.6,24.5 C31.8,25.9 30.2,26.8 28.5,26.7 C27.9,26.6 27.8,26.4 27.3,26.3 C27.2,26.3 27,26.1 27,25.9 C28.8,25.3 28.3,24.4 29.4,23.8 C30.3,23.4 31.2,23.3 32,23.5 C32.3,23.6 32.6,23.7 32.9,23.8 C32.9,23.8 32.9,23.8 32.9,23.8 C33.8,24.2 34.6,24.9 35,25.9 C35.9,28 35,30.5 32.9,31.5 C32.8,31.3 32.8,31 32.7,30.8 C34.3,29.9 35,27.9 34.3,26.2 Z M29.7,24.4 C29.3,24.6 29,25.3 28.3,25.8 C28.4,25.8 28.4,25.8 28.5,25.8 C29.9,25.9 31.2,25.2 31.8,24.1 C31.1,24 30.4,24.1 29.7,24.4 Z" id="Shape" fill="#5742BC"></path>
                        <path d="M50.4,52.4 L48.6,52 L27.4,61.6 C26.4,62.1 25.2,62.1 24.2,61.7 C23.1,61.3 22.3,60.5 21.9,59.5 L3.3,18.3 C2.8,17.3 2.8,16.1 3.2,15.1 C3.6,14.1 4.4,13.2 5.4,12.8 L28.2,2.5 C28.8,2.3 29.3,2.1 29.9,2.1 C30.4,2.1 30.9,2.2 31.4,2.4 C32.5,2.8 33.3,3.6 33.7,4.6 L51.7,44.6 C52.6,44.8 53.4,45.1 54.2,45.4 C54.1,45.3 54.1,45.1 54,45 L35.4,3.8 C34.7,2.3 33.5,1.1 31.9,0.5 C30.4,-0.1 28.7,9.29811783e-16 27.2,0.6 L4.4,10.9 C2.9,11.6 1.7,12.8 1.1,14.4 C0.5,15.9 0.6,17.6 1.2,19.1 L20,60.3 C20.7,61.8 21.9,63 23.5,63.6 C24.2,63.9 25,64 25.7,64 C26.6,64 27.4,63.8 28.2,63.4 L50.3,53.5 C50.4,52.8 50.4,52.4 50.4,52.4 Z" id="Shape" fill="#5742BC" fill-rule="nonzero"></path>
                    </g>
                    <path d="M76.2,176.6 L75.3,178.4 C75.4,178.4 81.3,181.5 86.1,186 L87.5,184.5 C82.5,179.8 76.5,176.7 76.2,176.6 Z" id="Shape" fill="#2C378C" fill-rule="nonzero"></path>
                    <g id="Group" transform="translate(176.000000, 109.000000)" fill-rule="nonzero" fill="#5742BC">
                        <path d="M19.9,36.4 C15.5,36.4 11.5,34.8 8.4,32.2 L7.7,33.1 C7.7,33.1 9.8,33.8 11.4,36.5 C13.6,37.6 16.1,38.2 18.6,38.4 C19.6,37.7 21,37.6 22,38.3 C22,38.3 22.1,38.3 22.1,38.3 C21.6,37.8 21.3,37.1 21.3,36.4 C20.9,36.4 20.4,36.4 19.9,36.4 Z" id="Shape"></path>
                        <path d="M19.9,0.1 C8.8,0.1 0.2,4.7 0.2,10.6 L0.2,18.7 C0.2,21.7 0.9,24.5 2.1,27.1 C2.5,26.4 3,25.7 3.4,25 C2.6,23 2.2,20.9 2.2,18.7 L2.2,10.6 C2.2,6 10.3,2.1 19.9,2.1 C29.5,2.1 37.6,6 37.6,10.6 L37.6,18.7 C37.6,21.4 37,24 35.8,26.4 L37.3,27.9 C38.7,25.2 39.6,22 39.6,18.7 L39.6,10.6 C39.6,4.7 31,0.1 19.9,0.1 Z" id="Shape"></path>
                    </g>
                    <path d="M175.5,189.4 L173.5,189.4 C173.5,189.1 173.5,156 173.5,145.1 C173.5,143.3 173.7,141 175.2,138.7 C175.9,137.6 176.6,136.4 177.3,135.3 C178.8,132.8 180.3,130.5 181.6,128.8 C183.7,126.2 186.9,126.1 188.5,126.9 C189.9,127.6 190.8,128.7 191.2,130.1 C191.5,131.2 191.5,133 189.8,135.3 L185.3,141.6 C186.8,142.5 189.1,144.7 189.8,149.3 L187.8,149.6 C187,144.1 183.6,143 183.5,142.9 L182.2,142.5 L183,141.4 L188.2,134.1 C189.2,132.8 189.5,131.6 189.3,130.6 C189,129.5 188.1,128.9 187.7,128.7 C186.8,128.3 184.7,128.2 183.2,130 C181.9,131.6 180.5,133.9 179,136.3 C178.3,137.5 177.5,138.6 176.8,139.7 C175.6,141.5 175.4,143.5 175.5,145 C175.6,156 175.5,189.1 175.5,189.4 Z" id="Shape" fill="#EE2A7B" fill-rule="nonzero"></path>
                    <path d="M80.4,187.4 L59.1,151 C57.6,148 54.9,146 51.7,145.4 L42.6,143.7 C41,143.4 39.5,144.4 39.2,146 C38.9,147.6 39.9,149.1 41.5,149.4 L51.9,151.6 L51.7,152.6 C51.7,152.6 50.9,157.5 52.5,162.1 L50.6,162.8 C49.2,158.9 49.4,155 49.5,153.2 L41,151.4 C38.4,150.9 36.6,148.3 37.1,145.7 C37.6,143.1 40.2,141.3 42.8,141.8 L51.9,143.5 C55.7,144.2 58.9,146.7 60.6,150.2 L81.9,186.5 L80.4,187.4 Z" id="Shape" fill="#EE2A7B" fill-rule="nonzero"></path>
                    <path d="M176.7,220.1 L175.5,218.5 L181.4,213.8 C183,212.6 185.2,212.6 186.8,213.9 L190.1,216.7 C190.9,217.4 192.1,217.4 192.9,216.8 L196.7,213.8 C198.2,212.6 200.5,212.6 202,213.9 L205.5,216.8 C206.3,217.5 207.5,217.5 208.3,216.8 L211.8,213.9 C213.3,212.6 215.6,212.6 217.1,213.9 L220.9,216.9 C221.7,217.5 222.9,217.5 223.7,216.9 L229.5,212.2 L230.8,213.8 L225,218.5 C223.5,219.7 221.2,219.7 219.7,218.5 L215.9,215.5 C215.1,214.8 213.9,214.9 213.1,215.5 L209.6,218.4 C208,219.7 205.8,219.7 204.2,218.4 L200.7,215.5 C199.9,214.8 198.7,214.8 197.9,215.5 L194.1,218.5 C192.5,219.8 190.3,219.7 188.7,218.4 L185.4,215.6 C184.6,214.9 183.4,214.9 182.6,215.5 L176.7,220.1 Z" id="Shape" fill="#FFE964" fill-rule="nonzero"></path>
                    <path d="M64.1,220.1 L65.3,218.5 L59.4,213.8 C57.8,212.6 55.6,212.6 54,213.9 L50.7,216.7 C49.9,217.4 48.7,217.4 47.9,216.8 L44.1,213.8 C42.6,212.6 40.3,212.6 38.8,213.9 L35.3,216.8 C34.5,217.5 33.3,217.5 32.5,216.8 L29,213.9 C27.5,212.6 25.2,212.6 23.7,213.9 L19.9,216.9 C19.1,217.5 17.9,217.5 17.1,216.9 L11.3,212.2 L10,213.8 L15.8,218.5 C17.3,219.7 19.6,219.7 21.1,218.5 L24.9,215.5 C25.7,214.8 26.9,214.9 27.7,215.5 L31.2,218.4 C32.8,219.7 35,219.7 36.6,218.4 L40.1,215.5 C40.9,214.8 42.1,214.8 42.9,215.5 L46.7,218.5 C48.3,219.8 50.5,219.7 52.1,218.4 L55.4,215.6 C56.2,214.9 57.4,214.9 58.2,215.5 L64.1,220.1 Z" id="Shape" fill="#FFE964" fill-rule="nonzero"></path>
                    <g id="Group" transform="translate(22.000000, 81.000000)" fill-rule="nonzero" fill="#FFE000">
                        <path d="M21.1,0.7 C20.6,0.5 20,0.6 19.8,1.1 L14.3,12 C14.1,12.5 14.2,13.1 14.7,13.3 C15.2,13.5 15.8,13.4 16,12.9 L21.5,2 C21.7,1.6 21.5,1 21.1,0.7 Z" id="Shape"></path>
                        <path d="M2.3,3.8 C2.1,3.3 1.6,3 1,3.2 L1,3.2 C0.5,3.4 0.2,3.9 0.4,4.5 L2.8,11.9 C3,12.4 3.5,12.7 4.1,12.5 L4.1,12.5 C4.6,12.3 4.9,11.8 4.7,11.2 L2.3,3.8 Z" id="Shape"></path>
                        <path d="M31.6,18.1 L31.6,18.1 C31.4,17.6 30.9,17.3 30.3,17.5 L22.2,20.1 C21.7,20.3 21.4,20.8 21.6,21.4 L21.6,21.4 C21.8,21.9 22.3,22.2 22.9,22 L31,19.4 C31.5,19.2 31.8,18.7 31.6,18.1 Z" id="Shape"></path>
                    </g>
                    <g id="Group" transform="translate(22.000000, 17.000000)" fill-rule="nonzero">
                        <path d="M60.1,33.1 L7.2,33.1 C3.3,33.1 0.1,29.9 0.1,26 C0.1,22.1 3.3,18.9 7.2,18.9 L12,18.9 C12.5,15.1 15.8,12.1 19.8,12.1 C20.1,12.1 20.3,12.1 20.6,12.2 C20.8,5.5 26.3,0.1 33.1,0.1 C38.8,0.1 43.7,3.9 45.1,9.3 C46.2,8.9 47.4,8.7 48.6,8.7 C54.4,8.7 59.2,13.3 59.5,19 L60.1,19 C64,19 67.2,22.2 67.2,26.1 C67.2,30 64,33.1 60.1,33.1 Z" id="Shape" fill="#FFFFFF"></path>
                        <path d="M60.1,33.1 L7.2,33.1 C3.3,33.1 0.1,29.9 0.1,26 C0.1,22.1 3.3,18.9 7.2,18.9 L12,18.9 C12.5,15.1 15.8,12.1 19.8,12.1 C20.1,12.1 20.3,12.1 20.6,12.2 C20.8,5.5 26.3,0.1 33.1,0.1 C38.8,0.1 43.7,3.9 45.1,9.3 C46.2,8.9 47.4,8.7 48.6,8.7 C54.4,8.7 59.2,13.3 59.5,19 L60.1,19 C64,19 67.2,22.2 67.2,26.1 C67.2,30 64,33.1 60.1,33.1 Z M7.2,21 C4.4,21 2.1,23.3 2.1,26.1 C2.1,28.9 4.4,31.2 7.2,31.2 L60.1,31.2 C62.9,31.2 65.2,28.9 65.2,26.1 C65.2,23.3 62.9,21 60.1,21 L57.5,21 L57.5,19.8 C57.5,19.8 57.5,19.7 57.5,19.6 C57.5,14.7 53.5,10.7 48.6,10.7 C47.3,10.7 46,11 44.8,11.6 L43.6,12.2 L43.4,10.9 C42.5,5.9 38.2,2.2 33.1,2.2 C27.3,2.2 22.6,6.9 22.6,12.7 C22.6,12.9 22.6,13.1 22.6,13.3 L22.7,14.7 L21.3,14.4 C20.7,14.2 20.2,14.2 19.7,14.2 C16.5,14.2 13.9,16.8 13.9,20 L13.9,21 L7.2,21 Z" id="Shape" fill="#B8F4F1"></path>
                    </g>
                    <path d="M195.9,123.2 C189.2,123.2 181.9,121.6 181.9,118.2 C181.9,114.8 189.1,113.2 195.9,113.2 C202.7,113.2 209.9,114.8 209.9,118.2 C209.9,121.6 202.6,123.2 195.9,123.2 Z M195.9,115.2 C188.5,115.2 183.9,117.1 183.9,118.2 C183.9,119.3 188.4,121.2 195.9,121.2 C203.4,121.2 207.9,119.3 207.9,118.2 C207.9,117.1 203.3,115.2 195.9,115.2 Z" id="Shape" fill="#E2A5FF" fill-rule="nonzero"></path>
                    <path d="M120.9,50.7 C120.9,50.7 120.8,50.7 120.8,50.7 C109.9,50.7 92.4,56.9 90.2,73.6 C77.2,76.8 72,85.3 71.7,85.8 L71.7,85.8 C70.5,87.6 69.5,89.4 68.8,91.1 C68.2,92.5 68.3,94.2 69.1,95.5 C70,96.8 71.4,97.6 73,97.6 L81,97.6 L81,95.6 L73,95.6 C72.1,95.6 71.3,95.2 70.8,94.4 C70.3,93.6 70.2,92.7 70.6,91.9 C74.5,83.3 79.4,79.5 86.7,79.5 C95.2,79.5 102.9,85 106.4,93.4 C107.3,95.5 109.4,96.9 111.7,96.9 L157.9,96.9 L157.9,90.8 C157.8,75.9 153,50.8 120.9,50.7 Z M108.2,92.7 C104.4,83.5 96,77.6 86.7,77.6 C86,77.6 85.4,77.6 84.8,77.7 C89.2,75.7 95.4,74 103.5,74.4 C107.5,74.6 118.2,75.1 123.7,84.3 C126.7,89.3 129,92.7 134.4,95.1 L111.6,95.1 C110.1,95 108.8,94.1 108.2,92.7 Z M155.8,95 L140.7,95 C131.5,92.7 129.1,89.3 125.4,83.2 C119.3,73.1 107.9,72.6 103.6,72.4 C99.4,72.2 95.6,72.5 92.3,73.2 C93.6,65.2 98.8,60.4 103.1,57.8 C108.2,54.6 114.9,52.8 120.9,52.8 C136.8,52.9 155.8,59.5 155.8,90.9 L155.8,95 Z" id="Shape" fill="#2C378C" fill-rule="nonzero"></path>
                    <g id="Group" transform="translate(78.000000, 95.000000)" fill-rule="nonzero">
                        <path d="M63.4,2.9 C63.4,1.4 62.2,0.2 60.7,0.2 L3.5,0.2 C2,0.2 0.8,1.4 0.8,2.9 C0.8,4 1.4,4.9 2.3,5.3 L2.3,5.7 L2.3,8.1 C2.3,15.1 7.4,21.3 14.3,22.1 C22.5,23.1 29.6,16.6 29.6,8.5 L29.6,8 C29.6,6.7 30.6,5.7 31.9,5.7 L32.2,5.7 C33.5,5.7 34.6,6.8 34.6,8.1 C34.6,15.1 39.7,21.3 46.6,22.1 C54.8,23.1 61.9,16.6 61.9,8.5 L61.9,5.7 L61.9,5.3 C62.8,4.8 63.4,3.9 63.4,2.9 Z" id="Shape" fill="#2C378C"></path>
                        <g transform="translate(6.000000, 3.000000)" id="Shape" fill="#FFFFFF">
                            <path d="M32.9,7.6 C32,8.5 32,9.9 32.9,10.8 C34,11.9 35.8,11.9 36.9,10.8 L47.5,0.2 L40.3,0.2 L32.9,7.6 Z"></path>
                            <path d="M1.1,7.6 C0.2,8.5 0.2,9.9 1.1,10.8 C2.2,11.9 4,11.9 5.1,10.8 L15.7,0.2 L8.5,0.2 L1.1,7.6 Z"></path>
                        </g>
                    </g>
                    <path d="M216.2,137.8 L211.4,133 C210.6,132.2 209.6,131.8 208.6,131.8 C207.5,131.8 206.5,132.2 205.8,133 C205,133.8 204.7,134.7 204.6,135.7 C203.3,135.4 202,135.8 201,136.8 C199.9,137.9 199.6,139.4 200,140.8 C199.1,140.9 198.3,141.3 197.6,141.9 C196.7,142.8 196.3,144.1 196.5,145.2 C196.5,145.2 196.5,145.2 196.5,145.2 C195.4,145.2 194.4,145.6 193.7,146.4 C192.9,147.2 192.5,148.2 192.5,149.2 C192.5,150.3 192.9,151.3 193.7,152 L197.2,155.5 C198,156.3 199,156.7 200,156.7 C201,156.7 202.1,156.3 202.8,155.5 C203.4,154.9 203.8,154 203.9,153.2 C204.3,153.3 204.8,153.4 205.2,153.4 C206.2,153.4 207.3,153 208,152.2 C208.7,151.5 209.1,150.6 209.2,149.6 C209.5,149.6 209.7,149.7 210,149.7 C211,149.7 212.1,149.3 212.8,148.5 C213.9,147.4 214.2,145.8 213.8,144.5 C214.7,144.4 215.6,144 216.3,143.4 C217.8,141.9 217.8,139.4 216.2,137.8 Z M201.4,154.2 C200.6,155 199.3,155 198.6,154.2 L195.1,150.7 C194.7,150.3 194.5,149.8 194.5,149.3 C194.5,148.8 194.7,148.3 195.1,147.9 C195.5,147.5 196,147.3 196.5,147.3 C197,147.3 197.5,147.5 197.9,147.9 L201.4,151.4 C202.2,152.2 202.2,153.4 201.4,154.2 Z M206.6,151 C205.8,151.8 204.5,151.8 203.8,151 L202.8,150 L199.3,146.5 L199,146.2 C198.2,145.4 198.2,144.1 199,143.4 C199.4,143 199.9,142.8 200.4,142.8 C200.9,142.8 201.4,143 201.7,143.3 L206.6,148.2 C206.9,148.6 207.1,149 207.1,149.5 C207.2,150.1 207,150.6 206.6,151 Z M211.4,147.2 C210.6,148 209.3,148 208.6,147.2 L208.2,146.8 C208.2,146.8 208.2,146.7 208.1,146.7 L203.3,141.9 C203.3,141.9 203.2,141.9 203.2,141.8 L202.4,141 C201.6,140.2 201.6,138.9 202.4,138.2 C202.8,137.8 203.3,137.6 203.8,137.6 C204.3,137.6 204.8,137.8 205.2,138.2 L211.3,144.3 C212.2,145.2 212.2,146.4 211.4,147.2 Z M214.8,142 C214,142.8 212.7,142.8 212,142 L207.2,137.2 C206.4,136.4 206.4,135.1 207.2,134.4 C207.6,134 208.1,133.8 208.6,133.8 C209.1,133.8 209.6,134 210,134.4 L214.8,139.2 C215.6,140 215.6,141.3 214.8,142 Z" id="Shape" fill="#EE2A7B" fill-rule="nonzero"></path>
                    <path d="M83.8,206.6 C75.9,209.3 67,206 62.8,198.7 L45,169.3 C44.1,167.9 42.9,166.6 41.5,165.7 L31.4,161.9 L28.8,163.1 L40.5,167.5 C41.6,168.2 42.6,169.2 43.3,170.4 L61,199.7 C64.6,205.9 71.2,209.5 78.1,209.5 C79.9,209.5 81.8,209.2 83.6,208.7 C83.6,208.7 83.6,208.7 83.6,208.7 L83.8,206.6 C83.8,206.6 83.8,206.6 83.8,206.6 Z" id="Shape" fill="#EE2A7B" fill-rule="nonzero"></path>
                    <path d="M199.2,118.7 L199.2,118.7 C198.7,118.4 198.5,117.8 198.8,117.3 L210.2,98.5 C210.5,98 211.1,97.9 211.5,98.1 L211.5,98.1 C212,98.4 212.2,99 211.9,99.5 L200.5,118.3 C200.3,118.8 199.7,119 199.2,118.7 Z" id="Shape" fill="#FF61A9" fill-rule="nonzero"></path>
                    <path d="M206.9,104.8 C210.3,106.6 213.1,109.8 215.3,112 C216.8,107.5 214.7,102.3 210.1,99.8 C205.5,97.3 199.9,98.5 197,102.3 C200.1,102.8 203.5,103 206.9,104.8 Z" id="Shape" fill="#EE2A7B" fill-rule="nonzero"></path>
                </g>
            </g>
        </g>
    </g>
</svg>