<?xml version="1.0" encoding="UTF-8"?>
<svg width="253px" height="250px" viewBox="0 0 253 250" version="1.1" xmlns="http://www.w3.org/2000/svg" xmlns:xlink="http://www.w3.org/1999/xlink">
    <!-- Generator: Sketch 46 (44423) - http://www.bohemiancoding.com/sketch -->
    <title>Illustrations/ForSuppliers</title>
    <desc>Created with Sketch.</desc>
    <defs>
        <linearGradient x1="3775.50667%" y1="1242.01373%" x2="-512.74%" y2="-130.113725%" id="linearGradient-1">
            <stop stop-color="#FFBD39" offset="0%"></stop>
            <stop stop-color="#FFF315" offset="100%"></stop>
        </linearGradient>
        <linearGradient x1="3903.31333%" y1="1282.23333%" x2="-384.93%" y2="-89.8941176%" id="linearGradient-2">
            <stop stop-color="#FFBD39" offset="0%"></stop>
            <stop stop-color="#FFF315" offset="100%"></stop>
        </linearGradient>
        <linearGradient x1="4030.70333%" y1="1322.90588%" x2="-257.54%" y2="-49.2215686%" id="linearGradient-3">
            <stop stop-color="#FFBD39" offset="0%"></stop>
            <stop stop-color="#FFF315" offset="100%"></stop>
        </linearGradient>
        <linearGradient x1="3391.59667%" y1="1119.91961%" x2="-896.646667%" y2="-252.209804%" id="linearGradient-4">
            <stop stop-color="#FFBD39" offset="0%"></stop>
            <stop stop-color="#FFF315" offset="100%"></stop>
        </linearGradient>
        <linearGradient x1="3519.40667%" y1="1160.13725%" x2="-768.84%" y2="-211.990196%" id="linearGradient-5">
            <stop stop-color="#FFBD39" offset="0%"></stop>
            <stop stop-color="#FFF315" offset="100%"></stop>
        </linearGradient>
        <linearGradient x1="3646.79667%" y1="1200.8098%" x2="-641.45%" y2="-171.317647%" id="linearGradient-6">
            <stop stop-color="#FFBD39" offset="0%"></stop>
            <stop stop-color="#FFF315" offset="100%"></stop>
        </linearGradient>
        <linearGradient x1="1560.92632%" y1="840.771186%" x2="-696.045614%" y2="-345.305085%" id="linearGradient-7">
            <stop stop-color="#FFBD39" offset="0%"></stop>
            <stop stop-color="#FFF315" offset="100%"></stop>
        </linearGradient>
        <linearGradient x1="2611.68611%" y1="946.8125%" x2="-961.852778%" y2="-302.803571%" id="linearGradient-8">
            <stop stop-color="#FFBD39" offset="0%"></stop>
            <stop stop-color="#FFF315" offset="100%"></stop>
        </linearGradient>
        <linearGradient x1="3262.88667%" y1="1078.71569%" x2="-1025.36%" y2="-293.411765%" id="linearGradient-9">
            <stop stop-color="#FFBD39" offset="0%"></stop>
            <stop stop-color="#FFF315" offset="100%"></stop>
        </linearGradient>
        <linearGradient x1="1298.3549%" y1="1202.41333%" x2="-1224.14314%" y2="-1130.20333%" id="linearGradient-10">
            <stop stop-color="#FFBD39" offset="0%"></stop>
            <stop stop-color="#FFF315" offset="100%"></stop>
        </linearGradient>
        <linearGradient x1="1435.8902%" y1="1330.22333%" x2="-1086.60784%" y2="-1002.39667%" id="linearGradient-11">
            <stop stop-color="#FFBD39" offset="0%"></stop>
            <stop stop-color="#FFF315" offset="100%"></stop>
        </linearGradient>
        <linearGradient x1="1420.90702%" y1="1165.01842%" x2="-836.063158%" y2="-676.521053%" id="linearGradient-12">
            <stop stop-color="#FFBD39" offset="0%"></stop>
            <stop stop-color="#FFF315" offset="100%"></stop>
        </linearGradient>
        <linearGradient x1="881.980392%" y1="818.503333%" x2="-1640.51765%" y2="-1514.11333%" id="linearGradient-13">
            <stop stop-color="#FFBD39" offset="0%"></stop>
            <stop stop-color="#FFF315" offset="100%"></stop>
        </linearGradient>
        <linearGradient x1="1021.47647%" y1="946.313333%" x2="-1501.02157%" y2="-1386.30333%" id="linearGradient-14">
            <stop stop-color="#FFBD39" offset="0%"></stop>
            <stop stop-color="#FFF315" offset="100%"></stop>
        </linearGradient>
        <linearGradient x1="1159.14706%" y1="1073.7%" x2="-1363.35098%" y2="-1258.91667%" id="linearGradient-15">
            <stop stop-color="#FFBD39" offset="0%"></stop>
            <stop stop-color="#FFF315" offset="100%"></stop>
        </linearGradient>
        <linearGradient x1="467.566667%" y1="434.593333%" x2="-2054.93137%" y2="-1898.02333%" id="linearGradient-16">
            <stop stop-color="#FFBD39" offset="0%"></stop>
            <stop stop-color="#FFF315" offset="100%"></stop>
        </linearGradient>
        <linearGradient x1="605.101961%" y1="562.403333%" x2="-1917.39608%" y2="-1770.21333%" id="linearGradient-17">
            <stop stop-color="#FFBD39" offset="0%"></stop>
            <stop stop-color="#FFF315" offset="100%"></stop>
        </linearGradient>
        <linearGradient x1="742.772549%" y1="689.793333%" x2="-1779.72549%" y2="-1642.82333%" id="linearGradient-18">
            <stop stop-color="#FFBD39" offset="0%"></stop>
            <stop stop-color="#FFF315" offset="100%"></stop>
        </linearGradient>
        <linearGradient x1="156.873504%" y1="96.1513089%" x2="-942.676068%" y2="-270.228272%" id="linearGradient-19">
            <stop stop-color="#FFBD39" offset="0%"></stop>
            <stop stop-color="#FFF315" offset="100%"></stop>
        </linearGradient>
        <linearGradient x1="9.66410256%" y1="-6.13403141%" x2="680.269231%" y2="600.797906%" id="linearGradient-20">
            <stop stop-color="#FFBD39" offset="0%"></stop>
            <stop stop-color="#FFF315" offset="100%"></stop>
        </linearGradient>
        <linearGradient x1="-260.745652%" y1="-650.136667%" x2="1444.92391%" y2="3213.99667%" id="linearGradient-21">
            <stop stop-color="#FFBD39" offset="0%"></stop>
            <stop stop-color="#FFF315" offset="100%"></stop>
        </linearGradient>
        <linearGradient x1="-202.969565%" y1="-522.84%" x2="1502.69783%" y2="3341.29333%" id="linearGradient-22">
            <stop stop-color="#FFBD39" offset="0%"></stop>
            <stop stop-color="#FFF315" offset="100%"></stop>
        </linearGradient>
        <linearGradient x1="-146.967391%" y1="-395.96%" x2="1558.70217%" y2="3468.17333%" id="linearGradient-23">
            <stop stop-color="#FFBD39" offset="0%"></stop>
            <stop stop-color="#FFF315" offset="100%"></stop>
        </linearGradient>
        <linearGradient x1="-429.258696%" y1="-1032.51%" x2="1276.41087%" y2="2831.62333%" id="linearGradient-24">
            <stop stop-color="#FFBD39" offset="0%"></stop>
            <stop stop-color="#FFF315" offset="100%"></stop>
        </linearGradient>
        <linearGradient x1="-371.482609%" y1="-905.213333%" x2="1334.18696%" y2="2958.92%" id="linearGradient-25">
            <stop stop-color="#FFBD39" offset="0%"></stop>
            <stop stop-color="#FFF315" offset="100%"></stop>
        </linearGradient>
        <linearGradient x1="-315.480435%" y1="-778.333333%" x2="1390.18913%" y2="3085.8%" id="linearGradient-26">
            <stop stop-color="#FFBD39" offset="0%"></stop>
            <stop stop-color="#FFF315" offset="100%"></stop>
        </linearGradient>
        <linearGradient x1="-894.414286%" y1="-943.632653%" x2="1347.32%" y2="1422.16327%" id="linearGradient-27">
            <stop stop-color="#FFBD39" offset="0%"></stop>
            <stop stop-color="#FFF315" offset="100%"></stop>
        </linearGradient>
        <linearGradient x1="-506.680769%" y1="-750.066038%" x2="1002.18077%" y2="1437.17925%" id="linearGradient-28">
            <stop stop-color="#FFBD39" offset="0%"></stop>
            <stop stop-color="#FFF315" offset="100%"></stop>
        </linearGradient>
        <linearGradient x1="-429.242308%" y1="-869.49%" x2="1079.61923%" y2="2028.61%" id="linearGradient-29">
            <stop stop-color="#FFBD39" offset="0%"></stop>
            <stop stop-color="#FFF315" offset="100%"></stop>
        </linearGradient>
        <linearGradient x1="-1436.99667%" y1="-1382.3087%" x2="1178.36333%" y2="1137.77826%" id="linearGradient-30">
            <stop stop-color="#FFBD39" offset="0%"></stop>
            <stop stop-color="#FFF315" offset="100%"></stop>
        </linearGradient>
        <linearGradient x1="-1309.7%" y1="-1260.23913%" x2="1305.65667%" y2="1259.84783%" id="linearGradient-31">
            <stop stop-color="#FFBD39" offset="0%"></stop>
            <stop stop-color="#FFF315" offset="100%"></stop>
        </linearGradient>
        <linearGradient x1="-1182.82%" y1="-1137.98261%" x2="1432.53667%" y2="1382.10435%" id="linearGradient-32">
            <stop stop-color="#FFBD39" offset="0%"></stop>
            <stop stop-color="#FFF315" offset="100%"></stop>
        </linearGradient>
        <linearGradient x1="-1819.37%" y1="-1752.65652%" x2="795.99%" y2="767.430435%" id="linearGradient-33">
            <stop stop-color="#FFBD39" offset="0%"></stop>
            <stop stop-color="#FFF315" offset="100%"></stop>
        </linearGradient>
        <linearGradient x1="-1692.07333%" y1="-1628.41087%" x2="923.283333%" y2="891.676087%" id="linearGradient-34">
            <stop stop-color="#FFBD39" offset="0%"></stop>
            <stop stop-color="#FFF315" offset="100%"></stop>
        </linearGradient>
        <linearGradient x1="-1565.19333%" y1="-1506.15652%" x2="1050.16333%" y2="1013.93043%" id="linearGradient-35">
            <stop stop-color="#FFBD39" offset="0%"></stop>
            <stop stop-color="#FFF315" offset="100%"></stop>
        </linearGradient>
        <linearGradient x1="-2201.74333%" y1="-2120.82826%" x2="413.616667%" y2="399.256522%" id="linearGradient-36">
            <stop stop-color="#FFBD39" offset="0%"></stop>
            <stop stop-color="#FFF315" offset="100%"></stop>
        </linearGradient>
        <linearGradient x1="-2346.62333%" y1="-2259.05217%" x2="268.736667%" y2="261.034783%" id="linearGradient-37">
            <stop stop-color="#FFBD39" offset="0%"></stop>
            <stop stop-color="#FFF315" offset="100%"></stop>
        </linearGradient>
        <linearGradient x1="-2074.44667%" y1="-1996.58478%" x2="540.913333%" y2="523.502174%" id="linearGradient-38">
            <stop stop-color="#FFBD39" offset="0%"></stop>
            <stop stop-color="#FFF315" offset="100%"></stop>
        </linearGradient>
        <linearGradient x1="-1947.56667%" y1="-1874.33043%" x2="667.793333%" y2="645.756522%" id="linearGradient-39">
            <stop stop-color="#FFBD39" offset="0%"></stop>
            <stop stop-color="#FFF315" offset="100%"></stop>
        </linearGradient>
    </defs>
    <g id="Symbols" stroke="none" stroke-width="1" fill="none" fill-rule="evenodd">
        <g id="Illustrations/ForSuppliers">
            <g>
                <rect id="image-bounds" x="2" y="0" width="250" height="250"></rect>
                <g id="ForSuppliers-image" transform="translate(0.000000, 8.000000)">
                    <path d="M201.1,203 L201.1,203 C180.6,223.5 147.3,223.5 126.8,203 L126.8,203 C106.3,182.5 106.3,149.2 126.8,128.7 L126.8,128.7 C147.3,108.2 180.6,108.2 201.1,128.7 L201.1,128.7 C221.6,149.2 221.6,182.5 201.1,203 Z" id="Shape" fill="#FFFFFF" fill-rule="nonzero"></path>
                    <rect id="Rectangle-path" fill="#FFFFFF" fill-rule="nonzero" transform="translate(85.179170, 81.576840) rotate(-45.000000) translate(-85.179170, -81.576840) " x="34.4296567" y="30.8273267" width="101.499027" height="101.499027"></rect>
                    <path d="M85.2,154.7 L12,81.5 L85.2,8.3 L158.4,81.5 L85.2,154.7 Z M14.9,81.5 L85.3,151.9 L155.7,81.5 L85.2,11.2 L14.9,81.5 Z" id="Shape" fill="#AEFDFF" fill-rule="nonzero"></path>
                    <path d="M163.9,219.7 C149.6,219.7 136.2,214.1 126,204 C115.9,193.9 110.3,180.4 110.3,166.1 C110.3,151.8 115.9,138.4 126,128.2 C146.9,107.3 180.8,107.3 201.7,128.2 C222.6,149.1 222.6,183 201.7,203.9 C191.7,214.2 178.2,219.7 163.9,219.7 Z M163.9,114.7 C150.7,114.7 137.5,119.7 127.5,129.8 C107.4,149.9 107.4,182.6 127.5,202.7 C147.6,222.8 180.3,222.8 200.4,202.7 C220.5,182.6 220.5,149.9 200.4,129.8 C190.3,119.7 177.1,114.7 163.9,114.7 Z" id="Shape" fill="#FFEE4D" fill-rule="nonzero"></path>
                    <polyline id="Shape" fill="#FFFFFF" fill-rule="nonzero" points="123.2 178.6 48.4 178.6 48.4 152.7 48.4 150.7 38.2 150.7 38.2 192.7 125.2 192.7 125.2 178.6 123.2 178.6"></polyline>
                    <path d="M0.8,60.2 L84.7,60.2 C87.2,60.2 89.3,58.1 89.3,55.6 C89.3,54.6 89,53.7 88.5,53 C91,52.9 93,50.9 93,48.4 C93,47.4 92.7,46.5 92.1,45.7 C94.3,45.3 95.9,43.4 95.9,41.2 C95.9,39 94.3,37.1 92.1,36.7 C92.7,35.9 93,35 93,34 C93,31.5 90.9,29.4 88.4,29.4 L58.4,29.4 C58.1,29.4 58,29.2 58,29.1 C58,29 57.9,28.8 58.1,28.6 L63.4,23.3 C64.4,22.3 65,20.9 65,19.5 C65,18 64.4,16.7 63.4,15.7 C61.3,13.6 57.8,13.6 55.7,15.7 L43.6,27.5 C41.6,29.5 38.9,30.6 36,30.6 C36,30.6 36,30.6 36,30.6 L0.8,30.6" id="Shape" fill="#FFFFFF" fill-rule="nonzero"></path>
                    <rect id="Rectangle-path" fill="#E2A5FF" fill-rule="nonzero" x="91.7" y="178.7" width="2" height="10"></rect>
                    <polygon id="Shape" fill="#4592DD" fill-rule="nonzero" points="125.2 192.7 38.2 192.7 38.2 150.7 48.4 150.7 48.4 152.7 40.2 152.7 40.2 190.7 123.2 190.7 123.2 178.6 125.2 178.6"></polygon>
                    <g id="Group" transform="translate(149.000000, 127.000000)" fill-rule="nonzero">
                        <path d="M102.1,17.9 L59.9,17.9 C59.9,17.9 59.9,17.9 59.9,17.9 C57,17.9 54.3,16.8 52.3,14.7 L40.2,2.6 C38.1,0.5 34.6,0.5 32.5,2.6 C30.4,4.7 30.4,8.2 32.5,10.3 L38.6,16.4 L7.6,16.4 C5.1,16.4 3,18.5 3,21 C3,22 3.3,22.9 3.9,23.7 C1.7,24.1 0.1,26 0.1,28.2 C0.1,30.5 1.7,32.3 3.9,32.7 C3.3,33.5 3,34.4 3,35.4 C3,37.9 5,39.9 7.5,40 C7,40.7 6.7,41.7 6.7,42.6 C6.7,45.1 8.8,47.2 11.3,47.2 L102.2,47.2 L102.2,17.9 L102.1,17.9 Z" id="Shape" fill="#FFFFFF"></path>
                        <path d="M38.7,4 L50.8,16.1 C53.2,18.5 56.4,19.8 59.8,19.8 C59.8,19.8 59.8,19.8 59.8,19.8 L102,19.8 L102,17.8 L59.8,17.8 C59.8,17.8 59.8,17.8 59.8,17.8 C56.9,17.8 54.2,16.7 52.2,14.6 L40.1,2.5 C38,0.4 34.5,0.4 32.4,2.5 C30.3,4.6 30.3,8.1 32.4,10.2 L38.5,16.3 L7.5,16.3 C5,16.3 2.9,18.4 2.9,20.9 C2.9,21.9 3.2,22.8 3.8,23.6 C1.6,24 2.84217094e-14,25.9 2.84217094e-14,28.1 C2.84217094e-14,30.4 1.6,32.2 3.8,32.6 C3.2,33.4 2.9,34.3 2.9,35.3 C2.9,37.8 4.9,39.8 7.4,39.9 C6.9,40.6 6.6,41.6 6.6,42.5 C6.6,45 8.7,47.1 11.2,47.1 L102,47.1 L102,45.1 L11.1,45.1 C9.7,45.1 8.5,43.9 8.5,42.5 C8.5,41.1 9.7,39.9 11.1,39.9 L28,39.9 L28,37.9 L11.1,37.9 L7.5,37.9 C6.1,37.9 4.9,36.7 4.9,35.3 C4.9,33.9 6.1,32.7 7.5,32.7 L25.1,32.7 L28,32.7 L28,30.7 L25.1,30.7 L7.5,30.7 L4.6,30.7 C3.2,30.7 2,29.5 2,28.1 C2,26.7 3.2,25.5 4.6,25.5 L7.5,25.5 L25.1,25.5 L28,25.5 L28,23.5 L25.1,23.5 L7.5,23.5 C6.1,23.5 4.9,22.3 4.9,20.9 C4.9,19.5 6.1,18.3 7.5,18.3 L38.9,18.3 C39.2,18.3 39.5,18.2 39.7,18.1 C39.9,18.6 39.9,19.1 39.9,19.6 C39.8,22.7 40.3,28.4 45.8,31.3 L46.7,29.5 C42.2,27.1 41.8,22.3 41.9,19.6 C42,17.9 41.4,16.3 40.2,15.1 C40.2,15.1 40.2,15.1 40.2,15 L40.1,14.9 C40.1,14.9 40.1,14.9 40.1,14.9 L39.2,14 L39.2,14 L33.9,8.7 C32.6,7.4 32.6,5.2 33.9,3.8 C35.2,2.4 37.4,2.7 38.7,4 Z" id="Shape" fill="#EE2A7B"></path>
                    </g>
                    <path d="M95.8,41 C95.8,38.7 94.2,36.9 92,36.5 C92.6,35.7 92.9,34.8 92.9,33.8 C92.9,31.3 90.8,29.2 88.3,29.2 L57.3,29.2 L58.1,28.4 L63.4,23.1 C65.5,21 65.5,17.5 63.4,15.4 C61.3,13.3 57.8,13.3 55.7,15.4 L43.6,27.5 C41.6,29.5 38.9,30.6 36,30.6 C36,30.6 36,30.6 36,30.6 L1,30.6 L1,32.6 L36,32.6 C36,32.6 36,32.6 36,32.6 C39.4,32.6 42.6,31.3 45,28.9 L57.1,16.8 C58.4,15.5 60.6,15.5 62,16.8 C63.3,18.1 63.3,20.3 62,21.7 L56.6,27 L55.7,27.9 L55.6,28 C55.6,28 55.6,28 55.6,28.1 C54.5,29.3 53.8,30.9 53.9,32.6 C54,35.3 53.6,40.1 49.1,42.5 L50,44.3 C55.4,41.4 56,35.7 55.9,32.6 C55.9,32.1 56,31.6 56.1,31.1 C56.4,31.2 56.6,31.3 56.9,31.3 L88.3,31.3 C89.7,31.3 90.9,32.5 90.9,33.9 C90.9,35.3 89.7,36.5 88.3,36.5 L70.7,36.5 L67.8,36.5 L67.8,38.5 L70.7,38.5 L88.3,38.5 L91.2,38.5 C92.6,38.5 93.8,39.7 93.8,41.1 C93.8,42.5 92.6,43.7 91.2,43.7 L88.3,43.7 L70.7,43.7 L67.8,43.7 L67.8,45.7 L70.7,45.7 L88.3,45.7 C89.7,45.7 90.9,46.9 90.9,48.3 C90.9,49.7 89.7,50.9 88.3,50.9 L84.7,50.9 L67.8,50.9 L67.8,52.9 L84.7,52.9 C86.1,52.9 87.3,54.1 87.3,55.5 C87.3,56.9 86.1,58.1 84.7,58.1 L1,58.1 L1,60.1 L84.7,60.1 C87.2,60.1 89.3,58 89.3,55.5 C89.3,54.5 89,53.6 88.5,52.9 C91,52.8 93,50.8 93,48.3 C93,47.3 92.7,46.4 92.1,45.6 C94.2,45.2 95.8,43.3 95.8,41 Z" id="Shape" fill="#5742BC" fill-rule="nonzero"></path>
                    <g id="Group" transform="translate(77.000000, 0.000000)" fill-rule="nonzero">
                        <path d="M79.2,15.1 L60.8,15.1 L60.8,14.3 C60.8,13.3 60,12.4 59,12.3 L49.2,11.5 L49.2,10.5 C49.2,6.6 46.4,3.1 42.6,2.5 C37.7,1.7 33.5,5.5 33.5,10.3 L33.5,11.5 L23.7,12.3 C22.7,12.4 21.9,13.3 21.9,14.3 L21.9,15.1 L3.9,15.1 C2.5,15.1 1.3,16.3 1.3,17.7 L1.3,104.6 C1.3,106 2.5,107.2 3.9,107.2 L79.3,107.2 C80.7,107.2 81.9,106 81.9,104.6 L81.9,17.7 C81.8,16.2 80.7,15.1 79.2,15.1 Z" id="Shape" fill="#FFFFFF"></path>
                        <polygon id="Shape" fill="#FFFFFF" points="21.7 21.6 10.2 21.6 10.2 94.6 73.2 94.6 73.2 21.6 61.4 21.6 61.4 26.1 21.8 26.1"></polygon>
                        <path d="M79.4,107.9 L4,107.9 C2,107.9 0.4,106.3 0.4,104.3 L0.4,17.4 C0.4,15.4 2,13.8 4,13.8 L21.9,13.8 L21.9,15.8 L4,15.8 C3.1,15.8 2.4,16.5 2.4,17.4 L2.4,104.3 C2.4,105.2 3.1,105.9 4,105.9 L79.4,105.9 C80.3,105.9 81,105.2 81,104.3 L81,17.4 C81,16.5 80.3,15.8 79.4,15.8 L60.8,15.8 L60.8,13.8 L79.4,13.8 C81.4,13.8 83,15.4 83,17.4 L83,104.3 C83,106.3 81.4,107.9 79.4,107.9 Z" id="Shape" fill="#EE2A7B"></path>
                        <path d="M62,26.1 L21,26.1 L21,13.9 C21,12.3 22.2,11 23.7,10.9 L32.6,10.1 L32.6,9.8 C32.6,7.2 33.7,4.8 35.7,3.1 C37.7,1.4 40.3,0.7 42.8,1.1 C47.1,1.8 50.3,5.6 50.3,10.1 L50.3,10.1 L59.2,10.9 C60.8,11 61.9,12.3 61.9,13.9 L61.9,26.1 L62,26.1 Z" id="Shape" fill="#DDDCEA"></path>
                        <polygon id="Shape" fill="#4592DD" points="75.2 96.6 8.2 96.6 8.2 19.6 21.7 19.6 21.7 21.6 10.2 21.6 10.2 94.6 73.2 94.6 73.2 21.6 61.4 21.6 61.4 19.6 75.2 19.6"></polygon>
                        <path d="M62,26.1 L21,26.1 L21,13.9 C21,12.3 22.2,11 23.7,10.9 L32.6,10.1 L32.6,9.8 C32.6,7.2 33.7,4.8 35.7,3.1 C37.7,1.4 40.3,0.7 42.8,1.1 C47.1,1.8 50.3,5.6 50.3,10.1 L50.3,10.1 L59.2,10.9 C60.8,11 61.9,12.3 61.9,13.9 L61.9,26.1 L62,26.1 Z M23,24.1 L60,24.1 L60,13.9 C60,13.4 59.6,12.9 59.1,12.9 L48.4,12 L48.4,10.1 C48.4,6.6 45.9,3.6 42.6,3.1 C40.6,2.8 38.6,3.4 37.1,4.7 C35.6,6 34.7,7.9 34.7,9.9 L34.7,12 L24,12.9 C23.5,12.9 23.1,13.4 23.1,13.9 L23.1,24.1 L23,24.1 Z" id="Shape" fill="#857DB7"></path>
                        <g transform="translate(16.000000, 36.000000)" id="Rectangle-path" fill="#3DE0C0">
                            <rect x="0.8" y="0.4" width="50" height="2"></rect>
                            <rect x="39.9" y="8.1" width="10.9" height="2"></rect>
                            <rect x="0.8" y="8.1" width="35.7" height="2"></rect>
                            <rect x="0.8" y="15.7" width="50" height="2"></rect>
                            <rect x="12.4" y="23.4" width="38.4" height="2"></rect>
                            <rect x="0.8" y="23.4" width="8.7" height="2"></rect>
                            <rect x="34.9" y="31" width="15.9" height="2"></rect>
                            <rect x="0.8" y="31" width="29.7" height="2"></rect>
                            <rect x="0.8" y="38.7" width="33" height="2"></rect>
                        </g>
                    </g>
                    <path d="M134.4,180 L47.4,180 L47.4,138 L134.4,138 L134.4,153.1 L133.2,153.1 C133.2,153.1 133.2,153.1 133.2,153.1 C129.9,153.1 127.3,155.7 127.3,159 C127.3,162.3 129.9,164.9 133.2,164.9 L134.4,164.9 L134.4,180 Z" id="Shape" fill="#FFFFFF" fill-rule="nonzero"></path>
                    <g id="Group" transform="translate(174.000000, 45.000000)" fill-rule="nonzero">
                        <path d="M29.5,42.8 L2.9,42.8 C1.8,42.8 0.9,41.9 0.9,40.8 L0.9,14.1 C0.9,13.3 1.3,12.3 1.9,11.7 L12.4,1.2 C13,0.6 14,0.2 14.8,0.2 L41.4,0.2 C42.5,0.2 43.4,1.1 43.4,2.2 L43.4,28.8 C43.4,29.6 43,30.6 42.4,31.2 L31.9,41.7 C31.3,42.3 30.3,42.8 29.5,42.8 Z" id="Shape" fill="#FFFFFF"></path>
                        <polygon id="Shape" fill="#E2A5FF" points="42.8 1.9 41.4 0.5 29.8 12.1 1.6 12.1 1.6 14.1 29.2 14.1 29.2 41.8 31.2 41.8 31.2 13.5"></polygon>
                        <path d="M29.2,42.8 L2.6,42.8 C1.5,42.8 0.6,41.9 0.6,40.8 L0.6,14.1 C0.6,13.3 1,12.3 1.6,11.7 L12.1,1.2 C12.7,0.6 13.7,0.2 14.5,0.2 L41.1,0.2 C42.2,0.2 43.1,1.1 43.1,2.2 L43.1,28.8 C43.1,29.6 42.7,30.6 42.1,31.2 L31.6,41.7 C31,42.3 30,42.8 29.2,42.8 Z M14.5,2.2 C14.2,2.2 13.7,2.4 13.5,2.6 L3,13.1 C2.8,13.3 2.6,13.8 2.6,14.1 L2.6,40.7 L29.2,40.7 C29.5,40.7 30,40.5 30.2,40.3 L40.7,29.8 C40.9,29.6 41.1,29.1 41.1,28.8 L41.1,2.2 L14.5,2.2 Z" id="Shape" fill="#A095EF"></path>
                    </g>
                    <path d="M134.4,180 L47.4,180 L47.4,138 L134.4,138 L134.4,153.1 L133.2,153.1 C133.2,153.1 133.2,153.1 133.2,153.1 C129.9,153.1 127.3,155.7 127.3,159 C127.3,162.3 129.9,164.9 133.2,164.9 L134.4,164.9 L134.4,180 Z M49.4,178 L132.4,178 L132.4,166.9 C128.4,166.5 125.3,163.1 125.3,159 C125.3,154.9 128.4,151.6 132.4,151.1 L132.4,140 L49.4,140 L49.4,178 Z" id="Shape" fill="#857DB7" fill-rule="nonzero"></path>
                    <rect id="Rectangle-path" fill="#918DA0" fill-rule="nonzero" x="101" y="142" width="2" height="34"></rect>
                    <rect id="Rectangle-path" fill="#E2A5FF" fill-rule="nonzero" x="56" y="145.8" width="10" height="10"></rect>
                    <rect id="Rectangle-path" fill="#3DE0C0" fill-rule="nonzero" x="70.9" y="146.8" width="21.6" height="2"></rect>
                    <rect id="Rectangle-path" fill="#3DE0C0" fill-rule="nonzero" x="70.9" y="152.2" width="12.3" height="2"></rect>
                    <g id="Group" transform="translate(107.000000, 168.000000)" fill-rule="nonzero" fill="#DDDCEA">
                        <rect id="Rectangle-path" x="0.9" y="0.3" width="2" height="6.8"></rect>
                        <rect id="Rectangle-path" x="5.3" y="0.3" width="2" height="6.8"></rect>
                        <rect id="Rectangle-path" x="9.6" y="0.3" width="2" height="6.8"></rect>
                    </g>
                    <rect id="Rectangle-path" fill="#DDDCEA" fill-rule="nonzero" x="56" y="163.5" width="27.2" height="4.8"></rect>
                    <g id="Group" transform="translate(199.000000, 100.000000)" fill-rule="nonzero">
                        <rect id="Rectangle-path" fill="#EBF7F5" x="2.3" y="1.7" width="14.8" height="20.5"></rect>
                        <path d="M18.7,24 L0.7,24 L0.7,0 L18.7,0 L18.7,24 Z M2.7,22 L16.7,22 L16.7,2 L2.7,2 L2.7,22 Z" id="Shape" fill="#3DE0C0"></path>
                    </g>
                    <g id="Group" transform="translate(11.000000, 144.000000)" fill-rule="nonzero">
                        <rect id="Rectangle-path" fill="url(#linearGradient-1)" x="0.6" y="18.9" width="3" height="5.1"></rect>
                        <rect id="Rectangle-path" fill="url(#linearGradient-2)" x="0.6" y="9.8" width="3" height="5.1"></rect>
                        <rect id="Rectangle-path" fill="url(#linearGradient-3)" x="0.6" y="0.7" width="3" height="5.1"></rect>
                        <rect id="Rectangle-path" fill="url(#linearGradient-4)" x="0.6" y="46.3" width="3" height="5.1"></rect>
                        <rect id="Rectangle-path" fill="url(#linearGradient-5)" x="0.6" y="37.2" width="3" height="5.1"></rect>
                        <rect id="Rectangle-path" fill="url(#linearGradient-6)" x="0.6" y="28.1" width="3" height="5.1"></rect>
                        <path d="M5.6,72.7 L3.1,74.4 C4.1,76 5.5,77.4 7,78.6 L8.8,76.2 C7.6,75.2 6.5,74.1 5.6,72.7 Z" id="Shape" fill="url(#linearGradient-7)"></path>
                        <path d="M3.7,67 C3.7,66.2 3.6,65.4 3.6,64.6 L0.6,64.6 C0.6,65.5 0.6,66.5 0.7,67.4 C0.8,68.3 1,69.3 1.3,70.2 L4.2,69.2 C3.9,68.6 3.8,67.8 3.7,67 Z" id="Shape" fill="url(#linearGradient-8)"></path>
                        <rect id="Rectangle-path" fill="url(#linearGradient-9)" x="0.6" y="55.5" width="3" height="5.1"></rect>
                        <rect id="Rectangle-path" fill="url(#linearGradient-10)" x="29.9" y="78.8" width="5.1" height="3"></rect>
                        <rect id="Rectangle-path" fill="url(#linearGradient-11)" x="20.8" y="78.8" width="5.1" height="3"></rect>
                        <path d="M11.1,80.8 C12.9,81.5 14.8,81.8 16.7,81.8 L16.8,78.8 C15.2,78.8 13.6,78.6 12.2,78 L11.1,80.8 Z" id="Shape" fill="url(#linearGradient-12)"></path>
                        <rect id="Rectangle-path" fill="url(#linearGradient-13)" x="57.4" y="78.8" width="5.1" height="3"></rect>
                        <rect id="Rectangle-path" fill="url(#linearGradient-14)" x="48.2" y="78.8" width="5.1" height="3"></rect>
                        <rect id="Rectangle-path" fill="url(#linearGradient-15)" x="39.1" y="78.8" width="5.1" height="3"></rect>
                        <rect id="Rectangle-path" fill="url(#linearGradient-16)" x="84.8" y="78.8" width="5.1" height="3"></rect>
                        <rect id="Rectangle-path" fill="url(#linearGradient-17)" x="75.7" y="78.8" width="5.1" height="3"></rect>
                        <rect id="Rectangle-path" fill="url(#linearGradient-18)" x="66.6" y="78.8" width="5.1" height="3"></rect>
                        <polygon id="Shape" fill="url(#linearGradient-19)" points="94 70.7 91.8 72.8 99.3 80.3 91.8 87.7 94 89.8 103.5 80.3"></polygon>
                    </g>
                    <g id="Group" transform="translate(167.000000, 11.000000)">
                        <polygon id="Shape" fill="url(#linearGradient-20)" points="11.9 2.7 9.8 0.6 0.2 10.1 9.8 19.7 11.9 17.5 4.5 10.1"></polygon>
                        <rect id="Rectangle-path" fill="url(#linearGradient-21)" x="28" y="9" width="4.6" height="3"></rect>
                        <rect id="Rectangle-path" fill="url(#linearGradient-22)" x="19.7" y="9" width="4.6" height="3"></rect>
                        <rect id="Rectangle-path" fill="url(#linearGradient-23)" x="11.5" y="9" width="4.6" height="3"></rect>
                        <rect id="Rectangle-path" fill="url(#linearGradient-24)" x="52.7" y="9" width="4.6" height="3"></rect>
                        <rect id="Rectangle-path" fill="url(#linearGradient-25)" x="44.4" y="9" width="4.6" height="3"></rect>
                        <rect id="Rectangle-path" fill="url(#linearGradient-26)" x="36.2" y="9" width="4.6" height="3"></rect>
                        <path d="M73.9,19.7 L71,20.7 C71.4,22 71.5,23.3 71.5,24.6 L74.5,24.5 C74.5,23 74.4,21.3 73.9,19.7 Z" id="Shape" fill="url(#linearGradient-27)"></path>
                        <path d="M69.1,12.5 L67.1,14.8 C68.1,15.7 69,16.7 69.7,17.8 L72.3,16.1 C71.4,14.8 70.3,13.6 69.1,12.5 Z" id="Shape" fill="url(#linearGradient-28)"></path>
                        <path d="M60.6,12.1 C61.9,12.2 63.2,12.6 64.4,13.2 L65.8,10.5 C64.3,9.8 62.7,9.4 61.1,9.2 L60.6,12.1 Z" id="Shape" fill="url(#linearGradient-29)"></path>
                        <rect id="Rectangle-path" fill="url(#linearGradient-30)" x="71.5" y="44.7" width="3" height="4.6"></rect>
                        <rect id="Rectangle-path" fill="url(#linearGradient-31)" x="71.5" y="36.5" width="3" height="4.6"></rect>
                        <rect id="Rectangle-path" fill="url(#linearGradient-32)" x="71.5" y="28.3" width="3" height="4.6"></rect>
                        <rect id="Rectangle-path" fill="url(#linearGradient-33)" x="71.5" y="69.5" width="3" height="4.6"></rect>
                        <rect id="Rectangle-path" fill="url(#linearGradient-34)" x="71.5" y="61.2" width="3" height="4.6"></rect>
                        <rect id="Rectangle-path" fill="url(#linearGradient-35)" x="71.5" y="53" width="3" height="4.6"></rect>
                        <rect id="Rectangle-path" fill="url(#linearGradient-36)" x="71.5" y="94.2" width="3" height="4.6"></rect>
                        <rect id="Rectangle-path" fill="url(#linearGradient-37)" x="71.5" y="103.5" width="3" height="4.6"></rect>
                        <rect id="Rectangle-path" fill="url(#linearGradient-38)" x="71.5" y="85.9" width="3" height="4.6"></rect>
                        <rect id="Rectangle-path" fill="url(#linearGradient-39)" x="71.5" y="77.7" width="3" height="4.6"></rect>
                    </g>
                    <path d="M1,122.2 L89.9,122.2 C92.4,122.2 94.5,120.1 94.5,117.6 C94.5,116.6 94.2,115.7 93.7,115 C96.2,114.9 98.2,112.9 98.2,110.4 C98.2,109.4 97.9,108.5 97.3,107.7 C99.5,107.3 101.1,105.4 101.1,103.2 C101.1,101 99.5,99.1 97.3,98.7 C97.9,97.9 98.2,97 98.2,96 C98.2,93.5 96.1,91.4 93.6,91.4 L63.6,91.4 C63.3,91.4 63.2,91.2 63.2,91.1 C63.2,91 63.1,90.8 63.3,90.6 L68.6,85.3 C69.6,84.3 70.2,82.9 70.2,81.5 C70.2,80 69.6,78.7 68.6,77.7 C66.5,75.6 63,75.6 60.9,77.7 L48.8,89.5 C46.8,91.5 44.1,92.6 41.2,92.6 C41.2,92.6 41.2,92.6 41.2,92.6 L1,92.6 L1,122.2 Z" id="Shape" fill="#FFFFFF" fill-rule="nonzero"></path>
                    <path d="M101,103.1 C101,100.8 99.4,99 97.2,98.6 C97.8,97.8 98.1,96.9 98.1,95.9 C98.1,93.4 96,91.3 93.5,91.3 L63.5,91.3 C63.2,91.3 63.1,91.1 63.1,91 C63.1,90.9 63,90.7 63.2,90.5 L68.5,85.2 C69.5,84.2 70.1,82.8 70.1,81.4 C70.1,79.9 69.5,78.6 68.5,77.6 C66.4,75.5 62.9,75.5 60.8,77.6 L48.8,89.5 C46.8,91.5 44.1,92.6 41.2,92.6 C41.2,92.6 41.2,92.6 41.2,92.6 L1,92.6 L1,94.6 L41.2,94.6 C41.2,94.6 41.2,94.6 41.2,94.6 C44.6,94.6 47.8,93.3 50.2,90.9 L62.3,78.8 C63.6,77.5 65.8,77.5 67.2,78.8 C67.8,79.4 68.2,80.3 68.2,81.2 C68.2,82.1 67.8,83 67.2,83.6 L61.8,89 C61.1,89.7 60.9,90.7 61.3,91.7 C61.7,92.7 62.6,93.2 63.6,93.2 L93.6,93.2 C95,93.2 96.2,94.4 96.2,95.8 C96.2,97.2 95,98.4 93.6,98.4 L75.9,98.4 L73,98.4 L73,100.4 L75.9,100.4 L93.5,100.4 L96.4,100.4 C97.8,100.4 99,101.6 99,103 C99,104.4 97.8,105.6 96.4,105.6 L93.5,105.6 L75.9,105.6 L73,105.6 L73,107.6 L75.9,107.6 L93.5,107.6 C94.9,107.6 96.1,108.8 96.1,110.2 C96.1,111.6 95,113 93.5,113 L73,113 L73,115 L89.9,115 C91.3,115 92.5,116.2 92.5,117.6 C92.5,119 91.3,120.2 89.9,120.2 L1,120.2 L1,122.2 L89.9,122.2 C92.4,122.2 94.5,120.1 94.5,117.6 C94.5,116.6 94.2,115.7 93.7,115 C96.2,114.9 98.2,112.9 98.2,110.4 C98.2,109.4 97.9,108.5 97.3,107.7 C99.4,107.2 101,105.4 101,103.1 Z" id="Shape" fill="#5742BC" fill-rule="nonzero"></path>
                    <g id="Group" transform="translate(148.000000, 185.000000)" fill-rule="nonzero">
                        <path d="M103,46.5 L12.1,46.5 C9.6,46.5 7.5,44.4 7.5,41.9 C7.5,40.9 7.8,40 8.3,39.3 C5.8,39.2 3.8,37.2 3.8,34.7 C3.8,33.7 4.1,32.8 4.7,32 C2.5,31.6 0.9,29.7 0.9,27.5 C0.9,25.3 2.5,23.4 4.7,23 C4.1,22.2 3.8,21.3 3.8,20.3 C3.8,17.8 5.9,15.7 8.4,15.7 L38.4,15.7 C38.7,15.7 38.8,15.5 38.8,15.4 C38.8,15.3 38.9,15.1 38.7,14.9 L33.4,9.6 C32.4,8.6 31.8,7.2 31.8,5.8 C31.8,4.3 32.4,3 33.4,2 C35.5,-0.1 39,-0.1 41.1,2 L53.2,14.1 C55.2,16.1 57.9,17.2 60.8,17.2 C60.8,17.2 60.8,17.2 60.8,17.2 L103,17.2" id="Shape" fill="#FFFFFF"></path>
                        <path d="M12.1,44.5 C10.7,44.5 9.5,43.3 9.5,41.9 C9.5,40.5 10.7,39.3 12.1,39.3 L29,39.3 L29,37.3 L12.1,37.3 L8.5,37.3 C7.1,37.3 5.9,36.1 5.9,34.7 C5.9,33.3 7.1,32.1 8.5,32.1 L26.1,32.1 L29,32.1 L29,30.1 L26.1,30.1 L8.5,30.1 L5.6,30.1 C4.2,30.1 3,28.9 3,27.5 C3,26.1 4.2,24.9 5.6,24.9 L8.5,24.9 L26.1,24.9 L29,24.9 L29,22.9 L26.1,22.9 L8.5,22.9 C7.1,22.9 5.9,21.7 5.9,20.3 C5.9,18.9 7.1,17.7 8.5,17.7 L38.5,17.7 C39.5,17.7 40.4,17.1 40.8,16.2 C41.2,15.3 41,14.2 40.3,13.5 L35,8.2 C33.7,6.9 33.7,4.7 35,3.3 C36.3,1.9 38.5,2 39.9,3.3 L52,15.4 C54.4,17.8 57.6,19.1 61,19.1 C61,19.1 61,19.1 61,19.1 L103,19.1 L103,17.1 L60.8,17.1 C60.8,17.1 60.8,17.1 60.8,17.1 C57.9,17.1 55.2,16 53.2,14 L41.1,1.9 C39,-0.2 35.5,-0.2 33.4,1.9 C32.4,2.9 31.8,4.3 31.8,5.7 C31.8,7.2 32.4,8.5 33.4,9.5 L38.7,14.8 C38.9,15 38.8,15.2 38.8,15.3 C38.8,15.4 38.6,15.6 38.4,15.6 L8.4,15.6 C5.9,15.6 3.8,17.7 3.8,20.2 C3.8,21.2 4.1,22.1 4.7,22.9 C2.5,23.3 0.9,25.2 0.9,27.4 C0.9,29.7 2.5,31.5 4.7,31.9 C4.1,32.7 3.8,33.6 3.8,34.6 C3.8,37.1 5.8,39.1 8.3,39.2 C7.8,39.9 7.5,40.9 7.5,41.8 C7.5,44.3 9.6,46.4 12.1,46.4 L103,46.4 L103,44.4 L12.1,44.4 L12.1,44.5 Z" id="Shape" fill="#EE2A7B"></path>
                    </g>
                </g>
            </g>
        </g>
    </g>
</svg>