<?xml version="1.0" encoding="UTF-8"?>
<svg width="250px" height="250px" viewBox="0 0 250 250" version="1.1" xmlns="http://www.w3.org/2000/svg" xmlns:xlink="http://www.w3.org/1999/xlink">
    <!-- Generator: Sketch 46 (44423) - http://www.bohemiancoding.com/sketch -->
    <title>Illustrations/ForSellers</title>
    <desc>Created with Sketch.</desc>
    <defs>
        <linearGradient x1="87.4079258%" y1="14.11695%" x2="-228.053983%" y2="311.381537%" id="linearGradient-1">
            <stop stop-color="#FFBD39" offset="0%"></stop>
            <stop stop-color="#FFE000" offset="100%"></stop>
        </linearGradient>
        <linearGradient x1="213.165502%" y1="-103.343367%" x2="-102.296407%" y2="193.92122%" id="linearGradient-2">
            <stop stop-color="#FFBD39" offset="0%"></stop>
            <stop stop-color="#FFE000" offset="100%"></stop>
        </linearGradient>
        <linearGradient x1="341.060355%" y1="-215.791127%" x2="20.7451866%" y2="76.8287005%" id="linearGradient-3">
            <stop stop-color="#FFBD39" offset="0%"></stop>
            <stop stop-color="#FFE000" offset="100%"></stop>
        </linearGradient>
        <linearGradient x1="65.3196429%" y1="63.4298246%" x2="-178.273214%" y2="-152.729825%" id="linearGradient-4">
            <stop stop-color="#FFBD39" offset="0%"></stop>
            <stop stop-color="#FFE000" offset="100%"></stop>
        </linearGradient>
        <linearGradient x1="181.794737%" y1="171.044643%" x2="-57.5245614%" y2="-48.975%" id="linearGradient-5">
            <stop stop-color="#FFBD39" offset="0%"></stop>
            <stop stop-color="#FFE000" offset="100%"></stop>
        </linearGradient>
        <linearGradient x1="297.64386%" y1="277.546429%" x2="58.3245614%" y2="57.5285714%" id="linearGradient-6">
            <stop stop-color="#FFBD39" offset="0%"></stop>
            <stop stop-color="#FFE000" offset="100%"></stop>
        </linearGradient>
        <linearGradient x1="51.2733333%" y1="107.048571%" x2="51.2733333%" y2="-307.725714%" id="linearGradient-7">
            <stop stop-color="#FFBD39" offset="0%"></stop>
            <stop stop-color="#FFE000" offset="100%"></stop>
        </linearGradient>
        <linearGradient x1="51.2733333%" y1="287.048571%" x2="51.2733333%" y2="-127.725714%" id="linearGradient-8">
            <stop stop-color="#FFBD39" offset="0%"></stop>
            <stop stop-color="#FFE000" offset="100%"></stop>
        </linearGradient>
        <linearGradient x1="51.2733333%" y1="467.048571%" x2="51.2733333%" y2="52.2742857%" id="linearGradient-9">
            <stop stop-color="#FFBD39" offset="0%"></stop>
            <stop stop-color="#FFE000" offset="100%"></stop>
        </linearGradient>
        <linearGradient x1="-176.88125%" y1="289.464583%" x2="134.2%" y2="-38.9%" id="linearGradient-10">
            <stop stop-color="#FFBD39" offset="0%"></stop>
            <stop stop-color="#FFE000" offset="100%"></stop>
        </linearGradient>
        <linearGradient x1="-79.6333333%" y1="186.85625%" x2="231.447917%" y2="-141.50625%" id="linearGradient-11">
            <stop stop-color="#FFBD39" offset="0%"></stop>
            <stop stop-color="#FFE000" offset="100%"></stop>
        </linearGradient>
        <linearGradient x1="15.5416667%" y1="86.3416667%" x2="326.622917%" y2="-242.020833%" id="linearGradient-12">
            <stop stop-color="#FFBD39" offset="0%"></stop>
            <stop stop-color="#FFE000" offset="100%"></stop>
        </linearGradient>
        <linearGradient x1="-222.484483%" y1="-115.606897%" x2="103.85%" y2="83.0310345%" id="linearGradient-13">
            <stop stop-color="#FFBD39" offset="0%"></stop>
            <stop stop-color="#FFE000" offset="100%"></stop>
        </linearGradient>
        <linearGradient x1="-85.6186441%" y1="-34.4603448%" x2="235.184746%" y2="164.17931%" id="linearGradient-14">
            <stop stop-color="#FFBD39" offset="0%"></stop>
            <stop stop-color="#FFE000" offset="100%"></stop>
        </linearGradient>
        <linearGradient x1="46.5051724%" y1="46.7931034%" x2="372.837931%" y2="245.432759%" id="linearGradient-15">
            <stop stop-color="#FFBD39" offset="0%"></stop>
            <stop stop-color="#FFE000" offset="100%"></stop>
        </linearGradient>
    </defs>
    <g id="Symbols" stroke="none" stroke-width="1" fill="none" fill-rule="evenodd">
        <g id="Illustrations/ForSellers">
            <g>
                <rect id="image-bounds" x="0" y="0" width="250" height="250"></rect>
                <g id="ForSellersImage" transform="translate(5.000000, 6.000000)">
                    <circle id="Oval" fill="#FFFFFF" cx="124.5" cy="27.3" r="25"></circle>
                    <g id="Group" transform="translate(45.000000, 166.000000)">
                        <polygon id="Shape" fill="url(#linearGradient-1)" points="17.3 4.8 19.3 7 23.9 2.9 21.9 0.7"></polygon>
                        <polygon id="Shape" fill="url(#linearGradient-2)" points="9 12.2 11.1 14.4 15.6 10.3 13.6 8.1"></polygon>
                        <polygon id="Shape" fill="url(#linearGradient-3)" points="0.9 19.6 2.9 21.8 7.4 17.7 5.4 15.4"></polygon>
                    </g>
                    <circle id="Oval" fill="#FFFFFF" cx="27" cy="203.6" r="25"></circle>
                    <circle id="Oval" fill="#FFFFFF" cx="37.3" cy="47.3" r="30"></circle>
                    <circle id="Oval" fill="#FFFFFF" cx="204.2" cy="63.9" r="30"></circle>
                    <g id="Group" transform="translate(56.000000, 71.000000)">
                        <polygon id="Shape" fill="url(#linearGradient-4)" points="15.7 12.6 13.6 14.7 17.1 18.3 19.2 16.1"></polygon>
                        <polygon id="Shape" fill="url(#linearGradient-5)" points="9.4 6.3 7.2 8.4 10.8 11.9 12.9 9.8"></polygon>
                        <polygon id="Shape" fill="url(#linearGradient-6)" points="3.1 0 0.9 2.1 4.5 5.6 6.6 3.5"></polygon>
                    </g>
                    <g id="Group" transform="translate(123.000000, 53.000000)">
                        <rect id="Rectangle-path" fill="url(#linearGradient-7)" x="0" y="13.3" width="3" height="3.5"></rect>
                        <rect id="Rectangle-path" fill="url(#linearGradient-8)" x="0" y="7" width="3" height="3.5"></rect>
                        <rect id="Rectangle-path" fill="url(#linearGradient-9)" x="0" y="0.7" width="3" height="3.5"></rect>
                    </g>
                    <g id="Group" transform="translate(170.000000, 85.000000)">
                        <polygon id="Shape" fill="url(#linearGradient-10)" points="9.6 2.7 11.7 4.8 14.4 2.1 12.3 0"></polygon>
                        <polygon id="Shape" fill="url(#linearGradient-11)" points="4.8 7.4 7 9.6 9.6 6.9 7.5 4.8"></polygon>
                        <polygon id="Shape" fill="url(#linearGradient-12)" points="0.1 12.2 2.2 14.3 4.9 11.6 2.8 9.5"></polygon>
                    </g>
                    <circle id="Oval" fill="#FFFFFF" cx="208.6" cy="206.3" r="30"></circle>
                    <circle id="Oval" fill="#FFFFFF" fill-rule="nonzero" cx="119" cy="131" r="60"></circle>
                    <path d="M142.9,117.1 C142.9,117.2 142.8,117.2 142.8,117.3 C142.3,116.8 141.8,116.3 141.2,115.9 C143.8,111.3 142.2,105.4 137.6,102.8 C135.4,101.6 133,101.2 130.7,101.7 C131.5,106.4 129.5,111.1 125.1,113.7 C124.6,114 122.4,114.5 121.7,114.5 C121.3,114.5 120.7,114.4 120.3,113.9 C123.5,109.6 120.6,108.4 122.4,105.3 C123.7,103 125.8,101.3 128.1,100.3 C128.7,100.1 129.4,99.8 130.1,99.7 C130.1,99.7 130.1,99.7 130.1,99.7 C132.9,99.1 135.8,99.5 138.5,101 C144.2,104.3 146.2,111.5 142.9,117.1 Z M128.8,102.4 C127,103.2 125.4,104.6 124.3,106.4 C123.5,107.7 124.7,110 123.4,112.6 C123.5,112.5 123.6,112.4 124,112.2 C127.6,110.1 129.3,106.2 128.8,102.4 Z M114.3,95.3 C112.2,96.5 110.8,98.3 110,100.4 C114.1,102.2 117,106.4 117,111.2 C117,112.1 116.9,113 116.7,113.9 C116.6,114.3 116.6,114.7 116.7,115.1 C116.5,115.5 116.1,115.7 115.4,115.8 C113.3,110.9 110.8,112.7 109,109.7 C107.6,107.3 107.2,104.6 107.6,102.1 C107.7,101.4 107.9,100.6 108.1,99.9 C108.1,99.9 108.1,99.9 108.1,99.9 C109,97.4 110.8,95.1 113.3,93.7 C118.8,90.5 125.9,92.3 129.2,97.8 C128.5,98 127.8,98.3 127.2,98.5 C124.4,94.1 118.8,92.8 114.3,95.3 Z M110.7,108.6 C111.4,109.8 113.4,110.1 115,111.9 C115,111.7 115,111.5 115,111.2 C115,107.4 112.8,104.1 109.5,102.5 C109.3,104.5 109.6,106.7 110.7,108.6 Z M105.3,101.5 C99.9,101.5 95.6,105.9 95.6,111.2 C95.6,113.7 96.6,116 98.2,117.8 C101.9,114.9 107.1,114.3 111.4,116.8 C112.2,117.2 112.9,118.4 113.9,119.1 C114.1,119.5 114.1,120 113.9,120.5 C108.6,119.9 108.9,123 105.4,123 C102.7,123 100.2,122.1 98.3,120.6 C98.3,120.6 98.3,120.6 98.3,120.6 C97.8,120.2 97.3,119.7 96.8,119.2 C96.8,119.2 96.8,119.2 96.8,119.2 C94.9,117.1 93.7,114.3 93.7,111.2 C93.7,104.7 99,99.4 105.5,99.4 C105.7,99.4 105.8,99.4 106,99.4 C105.5,100.2 105.4,100.9 105.3,101.5 C105.3,101.5 105.3,101.5 105.3,101.5 Z M105.3,121 C106.7,121 108.2,119.1 110.8,118.8 C110.7,118.7 110.5,118.7 110.3,118.6 C106.8,116.6 102.7,117 99.6,119.2 C101.2,120.3 103.2,121 105.3,121 Z M96.8,122.5 C94.4,127.1 96,132.8 100.6,135.4 C102.7,136.6 105.1,137 107.4,136.5 C106.9,132 109.1,127.5 113.2,125.1 C114,124.6 114.9,124.3 115.7,124 C115.9,123.9 116.3,123.7 116.6,123.5 C117,123.5 117.5,123.7 117.8,124.2 C114.6,128.5 117.5,129.7 115.7,132.8 C114.3,135.2 112.2,136.9 109.8,137.9 C109.2,138.1 108.5,138.3 107.8,138.5 L107.8,138.5 C107.2,138.6 106.5,138.7 105.8,138.7 C105.7,138.7 105.7,138.7 105.6,138.7 C103.6,138.7 101.5,138.2 99.6,137.1 C94,133.9 92.1,126.7 95.3,121.1 C95.7,121.6 96.3,122.1 96.8,122.5 Z M109.3,135.9 C111.1,135.1 112.7,133.7 113.8,131.9 C114.5,130.8 113.8,128.8 114.4,126.7 C114.3,126.8 114.2,126.8 114.1,126.9 C110.8,128.7 109.1,132.3 109.3,135.9 Z M108.4,170 C108.4,170 109.9,170 111,170 C112.2,170 112.4,169.8 113.1,169.2 C115.4,166.9 122,160.6 122,160.6 C122.4,160.2 123,160.2 123.4,160.6 C123.8,161 123.8,161.6 123.4,162 L115.2,170.2 C113.3,172.1 113.2,172.1 111.1,172.1 C110.7,172.1 108.5,172.1 108.5,172.1 C107.9,172.1 107.5,171.6 107.5,171.1 C107.4,170.4 107.8,170 108.4,170 Z M121,166.6 C121.4,166.2 122,166.2 122.4,166.6 C122.4,166.6 122.9,166.9 125.2,169.2 C125.8,169.8 126.1,170 127.3,170 C128.4,170 129.9,170 129.9,170 C130.5,170 130.9,170.5 130.9,171 C130.9,171.6 130.4,172 129.9,172 C129.9,172 127.7,172 127.3,172 C125.3,172 125.1,172 123.2,170.1 L121,168 C120.7,167.6 120.7,167 121,166.6 Z M115,162.6 L121.9,155.7 C122.3,155.3 122.9,155.3 123.3,155.7 C123.7,156.1 123.7,156.7 123.3,157.1 L116.4,164 C116,164.4 115.4,164.4 115,164 C114.6,163.6 114.6,163 115,162.6 Z M115,157.8 L121.9,150.9 C122.3,150.5 122.9,150.5 123.3,150.9 C123.7,151.3 123.7,151.9 123.3,152.3 L116.4,159.2 C116,159.6 115.4,159.6 115,159.2 C114.6,158.8 114.6,158.1 115,157.8 Z M117.2,148.6 C116.8,149 116.2,149 115.8,148.6 L111.3,144.1 C111.3,144.1 111.3,144 111.2,144 C110.3,143.2 109.5,142.2 108.8,141.1 C108.7,141 108.6,140.8 108.6,140.7 C109.3,140.5 110,140.3 110.6,140.1 C110.6,140.1 110.6,140.1 110.6,140.1 C111.3,141.3 111.8,141.8 112.9,143 L117.2,147.3 C117.6,147.6 117.6,148.2 117.2,148.6 Z M121.1,127 C121.1,126.1 121.4,124.6 121.8,123.7 C122,123.5 122.2,123.2 122.8,123.2 C124.9,128.1 127.4,126.3 129.2,129.3 C130.1,130.9 130.6,132.6 130.7,134.3 C130.7,135.5 130.5,137.3 130.2,138.7 C129.9,139.8 129.4,140.8 128.7,141.7 C128.4,142 128.3,142.2 128.2,142.3 L116.3,154.2 C115.9,154.6 115.3,154.6 114.9,154.2 C114.5,153.8 114.5,153.2 114.9,152.8 L126.7,141 C127.4,140.1 127.9,139 128.3,137.9 C124,136.3 121.1,132 121.1,127 Z M128.7,136 C128.9,134.1 128.5,132.2 127.4,130.4 C126.7,129.1 124.3,128.8 122.7,126.7 C122.7,126.8 122.7,126.9 122.7,127 C122.8,131 125.2,134.5 128.7,136 Z M142.2,127 C142.2,124.6 141.3,122.3 139.8,120.6 C136.1,123.4 131.1,123.8 126.8,121.4 C125.3,120.6 125.2,119.9 124.3,119.1 C124.1,118.9 123.7,118.2 123.9,117.6 C129.2,118.2 128.9,115.1 132.4,115.1 C135,115.1 137.4,116 139.4,117.4 C140,117.9 140.7,118.5 141.3,119.1 C141.3,119.1 141.3,119.1 141.3,119.1 C143.1,121.2 144.2,123.9 144.2,126.8 C144.2,133.2 139,138.5 132.6,138.6 C132.7,137.9 132.8,137.2 132.9,136.6 C138.1,136.5 142.2,132.2 142.2,127 Z M132.5,117.3 C131.1,117.3 129.8,119 127.4,119.4 C127.5,119.5 127.7,119.6 127.9,119.7 C131.3,121.7 135.3,121.3 138.3,119.2 C136.7,118 134.7,117.3 132.5,117.3 Z" id="Shape" fill="#5742BC"></path>
                    <path d="M119,69 C84.8,69 57,96.8 57,131 C57,165.2 84.8,193 119,193 C153.2,193 181,165.2 181,131 C181,96.8 153.2,69 119,69 Z M119,189 C87,189 61,163 61,131 C61,99 87,73 119,73 C151,73 177,99 177,131 C177,163 151,189 119,189 Z" id="Shape" fill="#FF781D" fill-rule="nonzero"></path>
                    <path d="M34.9,78.7 L32.9,78.6 L33.5,68.1 C26.3,67.7 22.6,65.4 21.8,55.5 L21.4,55.4 C20.3,55.2 19.5,54.5 19,53.5 C18.6,52.5 18.6,51.4 19.1,50.5 L21.5,46.2 L21.5,45.5 C21.5,34.1 28.3,27.4 39.6,27.4 C50.4,27.4 57.7,34.7 57.7,45.5 C57.7,53.2 55.6,59.3 51.7,63.3 L53.8,72.7 L51.8,73.1 L49.5,62.6 L49.9,62.2 C53.7,58.6 55.7,52.9 55.6,45.5 C55.6,37.5 50.6,29.4 39.5,29.4 C29.2,29.4 23.4,35.3 23.4,45.5 L23.4,46.7 L20.7,51.4 C20.5,51.8 20.5,52.2 20.6,52.6 C20.8,53 21.1,53.3 21.5,53.3 L23.4,53.7 L23.5,54.5 C24.2,64.6 27.5,65.8 34.4,66.1 L35.4,66.1 L34.9,78.7 Z" id="Shape" fill="#F15A29" fill-rule="nonzero"></path>
                    <ellipse id="Oval" fill="#5742BC" cx="29.8" cy="45.9" rx="1.8" ry="2.8"></ellipse>
                    <path d="M24.7,58.4 C23.8,58.4 23.1,58.2 23,58.2 L23.5,56.3 L23.3,57.3 L23.5,56.3 C23.6,56.3 27,57.1 28.9,54.2 L30.6,55.3 C28.8,58 26.3,58.4 24.7,58.4 Z" id="Shape" fill="#F15A29" fill-rule="nonzero"></path>
                    <path d="M45.9,54.7 C42.5,54.7 39.7,51.9 39.7,48.5 L39.7,45.6 C39.7,42.2 42.5,39.4 45.9,39.4 C49.3,39.4 52.1,42.2 52.1,45.6 L52.1,48.5 C52.1,51.9 49.3,54.7 45.9,54.7 Z M45.9,41.3 C43.6,41.3 41.7,43.2 41.7,45.5 L41.7,48.4 C41.7,50.7 43.6,52.6 45.9,52.6 C48.2,52.6 50.1,50.7 50.1,48.4 L50.1,45.5 C50.1,43.2 48.2,41.3 45.9,41.3 Z" id="Shape" fill="#4592DD" fill-rule="nonzero"></path>
                    <g id="Group" transform="translate(34.000000, 26.000000)" fill-rule="nonzero" fill="#5742BC">
                        <path d="M1.8,2.7 C4,3.1 11,5.3 11.1,18.8 C11.1,19.3 11.5,19.8 12.1,19.8 L12.1,19.8 C12.1,19.8 12.1,19.8 12.1,19.8 C12.4,19.8 12.6,19.7 12.8,19.5 C13,19.3 13.1,19.1 13.1,18.8 C13.1,12.5 11.6,7.7 8.6,4.5 C6.2,1.9 3.5,1.1 2.1,0.8 C1.8,0.7 1.5,0.8 1.3,1 C1.1,1.2 0.9,1.5 0.9,1.8 C1,2.2 1.3,2.6 1.8,2.7 Z" id="Shape"></path>
                        <path d="M12,22.9 C11.4,22.9 11,23.4 11,23.9 L11,27.8 C11,29.7 9.6,31.3 7.8,31.7 C7.3,30.7 6.3,30 5.2,30 L3.5,30 C1.9,30 0.6,31.3 0.6,32.9 C0.6,34.5 1.9,35.8 3.5,35.8 L5.2,35.8 C6.5,35.8 7.7,34.9 8,33.6 C10.8,33.2 13,30.7 13,27.7 L13,23.8 C13,23.4 12.5,22.9 12,22.9 Z" id="Shape"></path>
                    </g>
                    <path d="M27,230.1 C12.4,230.1 0.5,218.2 0.5,203.6 C0.5,189 12.4,177.1 27,177.1 C41.6,177.1 53.5,189 53.5,203.6 C53.5,218.2 41.7,230.1 27,230.1 Z M27,180.1 C14,180.1 3.5,190.6 3.5,203.6 C3.5,216.6 14,227.1 27,227.1 C40,227.1 50.5,216.6 50.5,203.6 C50.5,190.6 40,180.1 27,180.1 Z" id="Shape" fill="#EE2A7B" fill-rule="nonzero"></path>
                    <g id="Group" transform="translate(197.000000, 206.000000)" fill="#6CCEFF">
                        <rect id="Rectangle-path" x="0.9" y="0.1" width="3" height="5"></rect>
                        <rect id="Rectangle-path" x="10.1" y="0.1" width="3" height="5"></rect>
                        <rect id="Rectangle-path" x="19.4" y="0.1" width="3" height="5"></rect>
                        <rect id="Rectangle-path" x="0.9" y="9.5" width="3" height="5"></rect>
                        <rect id="Rectangle-path" x="10.1" y="9.5" width="3" height="5"></rect>
                        <rect id="Rectangle-path" x="19.4" y="9.5" width="3" height="5"></rect>
                        <rect id="Rectangle-path" x="0.9" y="18.9" width="3" height="5"></rect>
                        <rect id="Rectangle-path" x="10.1" y="18.9" width="3" height="5"></rect>
                        <rect id="Rectangle-path" x="19.4" y="18.9" width="3" height="5"></rect>
                    </g>
                    <polygon id="Shape" fill="#EE2A7B" fill-rule="nonzero" points="190.6 192 190.6 197.7 190.6 199.7 190.6 232.1 192.6 232.1 192.6 199.7 202.4 199.7 202.4 197.7 192.6 197.7 192.6 194 224.6 194 224.6 197.7 213.8 197.7 213.8 199.7 224.6 199.7 224.6 231.8 226.6 231.8 226.6 192"></polygon>
                    <path d="M41.1,214.7 L13,214.7 C12,214.7 11.1,213.9 11.1,212.8 L11.1,194.4 C11.1,193.4 11.9,192.5 13,192.5 L41.2,192.5 C42.2,192.5 43.1,193.3 43.1,194.4 L43.1,212.8 C43,213.9 42.2,214.7 41.1,214.7 Z" id="Shape" fill="#FFFFFF"></path>
                    <polygon id="Shape" fill="#5742BC" fill-rule="nonzero" points="206.2 196.2 207.3 196.2 207.3 198.7 209.9 198.7 209.9 196.2 211 196.2 211 202.5 209.9 202.5 209.9 199.7 207.3 199.7 207.3 202.5 206.2 202.5"></polygon>
                    <g id="Group" transform="translate(163.000000, 172.000000)">
                        <polygon id="Shape" fill="url(#linearGradient-13)" points="16.2 14.1 14.1 16.2 17.8 19.9 19.9 17.8"></polygon>
                        <polygon id="Shape" fill="url(#linearGradient-14)" points="9.6 7.5 7.4 9.6 11.1 13.3 13.3 11.2"></polygon>
                        <polygon id="Shape" fill="url(#linearGradient-15)" points="2.9 0.9 0.8 3 4.5 6.7 6.6 4.5"></polygon>
                    </g>
                    <path d="M233.2,58.2 L226.6,58.2 L232.7,52.1 L218.7,52.1 L211.3,58.2 L191.6,58.2 C188,58.2 182.6,61.1 182.6,65.2 C182.6,69.3 188,72.2 191.6,72.2 L207.1,72.2 L219.7,78.8 L229.6,78.8 C230.4,78.8 231,78.3 231.3,77.6 C231.6,76.9 231.2,76.1 230.6,75.7 L225.4,72.3 L233.2,72.3 L233.2,58.2 L233.2,58.2 Z" id="Shape" fill="#FFFFFF" fill-rule="nonzero"></path>
                    <path d="M191.6,60.2 L233.2,60.2 L233.2,58.2 L226.6,58.2 L232.7,52.1 L218.7,52.1 L211.3,58.2 L191.6,58.2 C188,58.2 182.6,61.1 182.6,65.2 C182.6,69.3 188,72.2 191.6,72.2 L207.1,72.2 L219.7,78.8 L229.6,78.8 C230.4,78.8 231,78.3 231.3,77.6 C231.6,76.9 231.2,76.1 230.6,75.7 L225.4,72.3 L233.2,72.3 L233.2,70.3 L222.3,70.3 L214.8,65.4 L213.7,67.1 L221.7,72.3 L221.7,72.3 L221.7,72.3 L228.8,76.9 L220.3,76.9 L200,66.2 L199.1,68 L203.4,70.2 L191.7,70.2 C188.7,70.2 184.7,67.7 184.7,65.2 C184.7,65.1 184.7,65.1 184.7,65 L190.2,65 C190.8,65 191.2,64.5 191.2,64 C191.2,63.5 190.7,63 190.2,63 L185.6,63 C186.9,61.4 189.5,60.2 191.6,60.2 Z M219.5,54 L227.9,54 L223.8,58.1 L214.5,58.1 L219.5,54 Z" id="Shape" fill="#4592DD" fill-rule="nonzero"></path>
                    <g id="Group" transform="translate(186.000000, 44.000000)" fill-rule="nonzero" fill="#B8F4F1">
                        <path d="M18.9,7.7 C18.9,6.7 18.1,5.8 17,5.8 L15.5,5.8 C15.5,5.7 15.5,5.6 15.5,5.6 C15.5,4.3 14.5,3.3 13.2,3.3 C12.8,3.3 12.4,3.4 12.1,3.6 C11.5,1.7 9.8,0.3 7.7,0.3 C5.5,0.3 3.6,1.9 3.2,3.9 C3.1,3.9 3,3.9 2.9,3.9 C1.3,3.9 0.1,5.2 0.1,6.7 C0.1,7.9 0.8,8.9 1.9,9.3 C2.1,9.4 2.4,9.5 2.7,9.5 L17,9.5 C18.1,9.5 18.9,8.7 18.9,7.7 Z" id="Shape"></path>
                        <path d="M28.6,38.6 L28.1,38.6 C28.1,38.6 28.1,38.5 28.1,38.5 C28.1,36.8 26.7,35.4 25,35.4 C24.5,35.4 24.1,35.5 23.7,35.7 C23.4,34 21.9,32.7 20.2,32.7 C18.2,32.7 16.6,34.3 16.6,36.3 C16.6,36.4 16.6,36.5 16.6,36.6 C16.4,36.5 16.2,36.5 16,36.5 C14.8,36.5 13.9,37.5 13.9,38.6 L12.1,38.6 C11.1,38.6 10.2,39.5 10.2,40.5 C10.2,41.5 11.1,42.4 12.1,42.4 L28.6,42.4 C29.6,42.4 30.5,41.5 30.5,40.5 C30.5,39.5 29.7,38.6 28.6,38.6 Z" id="Shape"></path>
                    </g>
                    <path d="M137.6,48.6 L125.7,52 C124.9,52.2 124.1,52.2 123.4,52 L112.3,48.7 C110.6,48.2 109.4,46.6 109.4,44.7 L109.4,29.6 C109.4,27.3 111.3,25.5 113.5,25.5 L136.5,25.5 C138.8,25.5 140.6,27.4 140.6,29.6 L140.6,44.7 C140.6,46.5 139.4,48.1 137.6,48.6 Z" id="Shape" fill="#FFFFFF" fill-rule="nonzero"></path>
                    <g id="Group" transform="translate(112.000000, 25.000000)" fill-rule="nonzero" fill="#3DE0C0">
                        <polygon id="Shape" points="4.8 7.5 2.7 7.5 2.7 0.4 0.7 0.4 0.7 9.5 6.8 9.5 6.8 0.4 4.8 0.4"></polygon>
                        <polygon id="Shape" points="23.3 0.4 23.3 7.5 21.1 7.5 21.1 0.4 19.1 0.4 19.1 9.5 25.3 9.5 25.3 0.4"></polygon>
                    </g>
                    <path d="M136.7,24.4 L131.5,24.4 L131.5,20.7 C131.5,19.3 130.4,18.2 129,18.2 L120.8,18.2 C119.4,18.2 118.3,19.3 118.3,20.7 L118.3,24.4 L113.1,24.4 C110.2,24.4 107.8,26.8 107.8,29.7 L107.8,46.7 L109.8,46.7 L109.8,29.7 C109.8,27.9 111.3,26.4 113.1,26.4 L136.6,26.4 C138.4,26.4 139.9,27.9 139.9,29.7 L139.9,46.7 L141.9,46.7 L141.9,29.7 C142,26.8 139.6,24.4 136.7,24.4 Z M120.4,20.7 C120.4,20.4 120.6,20.2 120.9,20.2 L129.1,20.2 C129.4,20.2 129.6,20.4 129.6,20.7 L129.6,24.4 L120.4,24.4 L120.4,20.7 L120.4,20.7 Z" id="Shape" fill="#EE2A7B" fill-rule="nonzero"></path>
                    <path d="M204.2,95.4 C186.8,95.4 172.7,81.3 172.7,63.9 C172.7,46.5 186.8,32.4 204.2,32.4 C221.6,32.4 235.7,46.5 235.7,63.9 C235.7,81.3 221.6,95.4 204.2,95.4 Z M204.2,35.4 C188.5,35.4 175.7,48.2 175.7,63.9 C175.7,79.6 188.5,92.4 204.2,92.4 C219.9,92.4 232.7,79.6 232.7,63.9 C232.7,48.2 220,35.4 204.2,35.4 Z" id="Shape" fill="#3DE0C0" fill-rule="nonzero"></path>
                    <path d="M208.6,237.8 C191.2,237.8 177.1,223.7 177.1,206.3 C177.1,188.9 191.2,174.8 208.6,174.8 C226,174.8 240.1,188.9 240.1,206.3 C240.1,223.7 226,237.8 208.6,237.8 Z M208.6,177.8 C192.9,177.8 180.1,190.6 180.1,206.3 C180.1,222 192.9,234.8 208.6,234.8 C224.3,234.8 237.1,222 237.1,206.3 C237.1,190.6 224.3,177.8 208.6,177.8 Z" id="Shape" fill="#5742BC" fill-rule="nonzero"></path>
                    <g id="Group" transform="translate(10.000000, 191.000000)">
                        <rect id="Rectangle-path" fill="#E2A5FF" x="1.1" y="5.7" width="31.9" height="4.7"></rect>
                        <g transform="translate(4.000000, 15.000000)" fill-rule="nonzero" id="Rectangle-path" fill="#3DE0C0">
                            <rect x="0.6" y="0.1" width="1" height="2.8"></rect>
                            <rect x="3.3" y="0.1" width="1" height="2.8"></rect>
                            <rect x="5.9" y="0.1" width="1" height="2.8"></rect>
                            <rect x="8.6" y="0.1" width="1" height="2.8"></rect>
                            <rect x="11.3" y="0.1" width="1" height="2.8"></rect>
                            <rect x="14" y="0.1" width="1" height="2.8"></rect>
                        </g>
                        <path d="M31.1,24.7 L3,24.7 C1.4,24.7 0.1,23.4 0.1,21.8 L0.1,3.4 C0.1,1.8 1.4,0.5 3,0.5 L31.2,0.5 C32.8,0.5 34.1,1.8 34.1,3.4 L34.1,21.8 C34,23.4 32.7,24.7 31.1,24.7 Z M3,2.6 C2.5,2.6 2.1,3 2.1,3.5 L2.1,21.9 C2.1,22.4 2.5,22.8 3,22.8 L31.2,22.8 C31.7,22.8 32.1,22.4 32.1,21.9 L32.1,3.5 C32.1,3 31.7,2.6 31.2,2.6 L3,2.6 Z" id="Shape" fill="#4592DD" fill-rule="nonzero"></path>
                    </g>
                    <path d="M37.6,78.8 C20.2,78.8 6.1,64.7 6.1,47.3 C6.1,29.9 20.2,15.8 37.6,15.8 C55,15.8 69.1,29.9 69.1,47.3 C69.1,64.7 55,78.8 37.6,78.8 Z M37.6,18.8 C21.9,18.8 9.1,31.6 9.1,47.3 C9.1,63 21.9,75.8 37.6,75.8 C53.3,75.8 66.1,63 66.1,47.3 C66.1,31.6 53.3,18.8 37.6,18.8 Z" id="Shape" fill="#FFEE4D" fill-rule="nonzero"></path>
                    <path d="M125,53.8 C110.4,53.8 98.5,41.9 98.5,27.3 C98.5,12.7 110.4,0.8 125,0.8 C139.6,0.8 151.5,12.7 151.5,27.3 C151.5,41.9 139.6,53.8 125,53.8 Z M125,3.8 C112,3.8 101.5,14.3 101.5,27.3 C101.5,40.3 112,50.8 125,50.8 C138,50.8 148.5,40.3 148.5,27.3 C148.5,14.3 137.9,3.8 125,3.8 Z" id="Shape" fill="#E2A5FF" fill-rule="nonzero"></path>
                </g>
            </g>
        </g>
    </g>
</svg>