<?xml version="1.0" encoding="UTF-8"?>
<svg width="250px" height="250px" viewBox="0 0 250 250" version="1.1" xmlns="http://www.w3.org/2000/svg" xmlns:xlink="http://www.w3.org/1999/xlink">
    <!-- Generator: Sketch 46 (44423) - http://www.bohemiancoding.com/sketch -->
    <title>Illustrations/PlatformGovernance</title>
    <desc>Created with Sketch.</desc>
    <defs>
        <radialGradient cx="-583.310127%" cy="-143.335%" fx="-583.310127%" fy="-143.335%" r="722.851899%" gradientTransform="translate(-5.833101,-1.433350),scale(0.126582,1.000000),translate(5.833101,1.433350)" id="radialGradient-1">
            <stop stop-color="#FFF315" offset="0%"></stop>
            <stop stop-color="#FFBD39" offset="100%"></stop>
        </radialGradient>
        <radialGradient cx="-71.2514586%" cy="-120.42676%" fx="-71.2514586%" fy="-120.42676%" r="185.849474%" gradientTransform="translate(-0.712515,-1.204268),scale(0.480906,1.000000),translate(0.712515,1.204268)" id="radialGradient-2">
            <stop stop-color="#FFF315" offset="0%"></stop>
            <stop stop-color="#FFBD39" offset="100%"></stop>
        </radialGradient>
        <radialGradient cx="-666.746133%" cy="581.084825%" fx="-666.746133%" fy="581.084825%" r="831.378344%" gradientTransform="translate(-6.667461,5.810848),scale(0.701547,1.000000),translate(6.667461,-5.810848)" id="radialGradient-3">
            <stop stop-color="#FFF315" offset="0%"></stop>
            <stop stop-color="#FFBD39" offset="100%"></stop>
        </radialGradient>
        <radialGradient cx="-122.474991%" cy="165.876923%" fx="-122.474991%" fy="165.876923%" r="310.882885%" gradientTransform="translate(-1.224750,1.658769),scale(0.667914,1.000000),translate(1.224750,-1.658769)" id="radialGradient-4">
            <stop stop-color="#FFF315" offset="0%"></stop>
            <stop stop-color="#FFBD39" offset="100%"></stop>
        </radialGradient>
        <radialGradient cx="-299.554825%" cy="226.510908%" fx="-299.554825%" fy="226.510908%" r="411.097035%" gradientTransform="translate(-2.995548,2.265109),scale(0.571664,1.000000),translate(2.995548,-2.265109)" id="radialGradient-5">
            <stop stop-color="#FFF315" offset="0%"></stop>
            <stop stop-color="#FFBD39" offset="100%"></stop>
        </radialGradient>
        <radialGradient cx="-375.900939%" cy="-506.766347%" fx="-375.900939%" fy="-506.766347%" r="515.117516%" gradientTransform="translate(-3.759009,-5.067663),scale(0.303915,1.000000),translate(3.759009,5.067663)" id="radialGradient-6">
            <stop stop-color="#FFF315" offset="0%"></stop>
            <stop stop-color="#FFBD39" offset="100%"></stop>
        </radialGradient>
        <radialGradient cx="-243.974767%" cy="-398.453691%" fx="-243.974767%" fy="-398.453691%" r="508.997992%" gradientTransform="translate(-2.439748,-3.984537),scale(0.304761,1.000000),translate(2.439748,3.984537)" id="radialGradient-7">
            <stop stop-color="#FFF315" offset="0%"></stop>
            <stop stop-color="#FFBD39" offset="100%"></stop>
        </radialGradient>
        <radialGradient cx="-148.163866%" cy="-190.237238%" fx="-148.163866%" fy="-190.237238%" r="479.876471%" gradientTransform="translate(-1.481639,-1.902372),scale(1.000000,0.995816),translate(1.481639,1.902372)" id="radialGradient-8">
            <stop stop-color="#FFF315" offset="0%"></stop>
            <stop stop-color="#FFBD39" offset="100%"></stop>
        </radialGradient>
        <radialGradient cx="-236.486623%" cy="323.306861%" fx="-236.486623%" fy="323.306861%" r="508.758869%" gradientTransform="translate(-2.364866,3.233069),scale(0.770305,1.000000),translate(2.364866,-3.233069)" id="radialGradient-9">
            <stop stop-color="#FFF315" offset="0%"></stop>
            <stop stop-color="#FFBD39" offset="100%"></stop>
        </radialGradient>
        <radialGradient cx="212.252688%" cy="-284.525%" fx="212.252688%" fy="-284.525%" r="204.678495%" gradientTransform="translate(2.122527,-2.845250),scale(0.050179,1.000000),translate(-2.122527,2.845250)" id="radialGradient-10">
            <stop stop-color="#FFF315" offset="0%"></stop>
            <stop stop-color="#FFBD39" offset="100%"></stop>
        </radialGradient>
        <radialGradient cx="388.288575%" cy="218.424693%" fx="388.288575%" fy="218.424693%" r="616.334187%" gradientTransform="translate(3.882886,2.184247),scale(0.201322,1.000000),translate(-3.882886,-2.184247)" id="radialGradient-11">
            <stop stop-color="#FFF315" offset="0%"></stop>
            <stop stop-color="#FFBD39" offset="100%"></stop>
        </radialGradient>
        <radialGradient cx="253.01157%" cy="237.411567%" fx="253.01157%" fy="237.411567%" r="347.685055%" gradientTransform="translate(2.530116,2.374116),scale(0.716885,1.000000),translate(-2.530116,-2.374116)" id="radialGradient-12">
            <stop stop-color="#FFF315" offset="0%"></stop>
            <stop stop-color="#FFBD39" offset="100%"></stop>
        </radialGradient>
        <radialGradient cx="441.350226%" cy="318.360464%" fx="441.350226%" fy="318.360464%" r="774.136934%" gradientTransform="translate(4.413502,3.183605),scale(0.498417,1.000000),translate(-4.413502,-3.183605)" id="radialGradient-13">
            <stop stop-color="#FFF315" offset="0%"></stop>
            <stop stop-color="#FFBD39" offset="100%"></stop>
        </radialGradient>
        <radialGradient cx="420.125642%" cy="-246.098853%" fx="420.125642%" fy="-246.098853%" r="666.431075%" gradientTransform="translate(4.201256,-2.460989),scale(0.462449,1.000000),translate(-4.201256,2.460989)" id="radialGradient-14">
            <stop stop-color="#FFF315" offset="0%"></stop>
            <stop stop-color="#FFBD39" offset="100%"></stop>
        </radialGradient>
        <radialGradient cx="340.677716%" cy="-204.516379%" fx="340.677716%" fy="-204.516379%" r="362.282444%" gradientTransform="translate(3.406777,-2.045164),scale(0.429474,1.000000),translate(-3.406777,2.045164)" id="radialGradient-15">
            <stop stop-color="#FFF315" offset="0%"></stop>
            <stop stop-color="#FFBD39" offset="100%"></stop>
        </radialGradient>
        <radialGradient cx="515.911477%" cy="486.378398%" fx="515.911477%" fy="486.378398%" r="1159.63191%" gradientTransform="translate(5.159115,4.863784),scale(1.000000,0.772529),translate(-5.159115,-4.863784)" id="radialGradient-16">
            <stop stop-color="#FFF315" offset="0%"></stop>
            <stop stop-color="#FFBD39" offset="100%"></stop>
        </radialGradient>
        <radialGradient cx="-567.59069%" cy="630.854185%" fx="-567.59069%" fy="630.854185%" r="1481.43161%" gradientTransform="translate(-5.675907,6.308542),scale(1.000000,0.830837),translate(5.675907,-6.308542)" id="radialGradient-17">
            <stop stop-color="#FFF315" offset="0%"></stop>
            <stop stop-color="#FFBD39" offset="100%"></stop>
        </radialGradient>
        <radialGradient cx="330.974134%" cy="-186.147202%" fx="330.974134%" fy="-186.147202%" r="555.799996%" gradientTransform="translate(3.309741,-1.861472),scale(1.000000,0.768214),translate(-3.309741,1.861472)" id="radialGradient-18">
            <stop stop-color="#FFF315" offset="0%"></stop>
            <stop stop-color="#FFBD39" offset="100%"></stop>
        </radialGradient>
    </defs>
    <g id="Symbols" stroke="none" stroke-width="1" fill="none" fill-rule="evenodd">
        <g id="Illustrations/PlatformGovernance">
            <g>
                <rect id="Bounds" x="0" y="0" width="250" height="250"></rect>
                <g id="PlatformGovernance" transform="translate(6.000000, 2.000000)">
                    <path d="M218.7,188.6 L218.7,178.3 C218.7,175 216,172.3 212.7,172.3 C209.4,172.3 206.7,175 206.7,178.3 L206.7,186 C206.7,187 205.9,187.9 204.8,187.9 C203.7,187.9 202.9,187.7 202.4,187.3 C202.1,187 201.9,186.6 201.9,186 L201.9,152.6 L201.9,145.3 C201.9,144.8 202.1,144.3 202.5,143.9 C202.9,143.5 203.4,143.4 204,143.4 C205,143.5 205.7,144.4 205.7,145.5 L205.7,148.9 C205.7,152.3 208.5,155.1 211.9,155.1 C215.4,155.1 218.2,152.3 218.2,148.8 L218.2,145.3 C218.2,141.3 216.6,137.6 213.7,134.8 C210.8,132 207,130.6 203,130.8 C195.9,131.1 189.9,136.7 189.4,143.4 C189.4,144 189.4,145.2 189.4,146.1 C188.3,145.7 187.2,145.5 186,145.5 C181.4,145.5 177.4,148.3 175.7,152.6 C173.6,153.7 171.9,155.4 170.8,157.7 C167,159.4 164.3,163.3 164.3,167.7 L164.3,246.2 L205.6,245.9 L205.6,210.6 C205.6,209.6 206.3,209.2 208.4,208.3 C212.5,206.7 219.1,203.8 218.7,188.6 Z" id="Shape" fill="#FFFFFF" fill-rule="nonzero"></path>
                    <path d="M223.7,160.4 C223.7,153.6 218.2,148 211.3,148 C204.5,148 198.9,153.5 198.9,160.4 L198.9,160.4 L198.9,163.2 L198.9,163.2 C198.9,164 199,164.9 199.2,165.8 C200.6,172.5 207.2,176.8 213.9,175.4 C219.7,174.2 223.7,169 223.7,163.3 L223.7,163.3 L223.7,160.4 L223.7,160.4 Z" id="Shape" fill="#FFFFFF" fill-rule="nonzero"></path>
                    <path d="M224.7,161 C224.7,155.8 221.7,151.3 217.4,149.1 L216.7,151 C220.3,152.9 222.8,156.7 222.8,161.1 C222.8,167.4 217.7,172.5 211.4,172.5 C205.1,172.5 200,167.4 200,161.1 C200,156.3 203,152.1 207.3,150.5 L207.1,148.5 C201.8,150.3 198,155.3 198,161.2 C198,161.2 198,161.2 198,161.2 L198,161.2 L198,164 C198,164.9 198.1,165.9 198.3,166.8 C199.4,171.9 203.2,175.7 208,177 L209.1,174.7 L211.4,173.3 L213.8,173.3 L216.5,174.8 L217,176.2 C221.6,174 224.7,169.3 224.7,164.1 L224.7,161 L224.7,161 Z" id="Shape" fill="#F15A29" fill-rule="nonzero"></path>
                    <path d="M160.6,132.5 C160.2,131.9 159.7,131.5 159.2,131.1 C160.3,129.5 160.4,127.3 159.2,125.6 C158.6,124.8 157.9,124.2 156.9,123.9 C157.4,122.5 157.2,120.9 156.4,119.6 C155.2,117.9 153.2,117.7 151.6,117.8 C151.5,117 151.3,116.2 150.8,115.4 C149.4,113.3 145.8,111.9 141.7,113.4 C127.8,118.3 116.1,125 97.3,139 L87.8,129.5 C86.3,127.8 84.1,126.8 81.9,126.7 C80,126.6 78.3,127.3 77.1,128.5 C74.5,131.1 74.5,135.5 77.1,138.1 L78.7,139.7 C84.9,145.9 88.3,154.1 88.3,162.9 L88.3,246.9 L133,246.3 L132.6,167.1 C133.7,165.2 142.2,151.5 159.2,139.4 C161.5,137.7 162.1,134.7 160.6,132.5 Z" id="Shape" fill="#FFFFFF" fill-rule="nonzero"></path>
                    <path d="M65.6,246.3 L65.6,180 L65.6,172.4 L65.6,155 C65.6,151.4 62.6,148.4 59,148.4 C55.4,148.4 52.4,151.4 52.4,155 L52.4,174.9 L42.6,156.9 C41,154.2 38.4,152.2 35.3,151.4 C32.2,150.6 29,151 26.3,152.6 C21,155.7 19,162.3 21.5,167.8 C19.7,167.9 18.1,168.6 16.8,169.9 C15,171.7 14.4,174.1 14.8,176.4 C13.8,176.8 12.8,177.3 12,178.1 C10.6,179.5 9.9,181.3 9.9,183.3 C9.9,184.2 10.1,185 10.3,185.8 L10.1,185.6 C8.7,187 8,188.8 8,190.8 C8,192.8 8.8,194.6 10.1,196 L16.1,202 C17.5,203.4 19.4,204.1 21.3,204.1 C21.7,204.1 22,204.1 22.4,204 L24.7,209.4 C25.7,211.7 26.2,214.1 26.2,216.6 L26.2,245.8" id="Shape" fill="#FFFFFF" fill-rule="nonzero"></path>
                    <path d="M35.2,180.8 L33.2,180.9 C33.3,182.4 32.7,183.8 31.7,184.9 C29.6,187 26.3,187 24.2,184.9 L18.2,178.9 C16.1,176.8 16.1,173.5 18.2,171.4 C19.4,170.2 21,169.7 22.7,169.9 L23,167.9 C20.7,167.6 18.5,168.4 16.9,170 C15.1,171.8 14.5,174.2 14.9,176.5 C13.9,176.9 12.9,177.4 12.1,178.2 C10.7,179.6 10,181.4 10,183.4 C10,184.3 10.2,185.1 10.4,185.9 L10.2,185.7 C8.8,187.1 8.1,188.9 8.1,190.9 C8.1,192.9 8.9,194.7 10.2,196.1 L16.2,202.1 C17.6,203.5 19.5,204.2 21.4,204.2 C21.8,204.2 22.1,204.2 22.5,204.1 L24.8,209.5 C25.8,211.8 26.3,214.2 26.3,216.7 L26.3,245.9 L28.3,245.9 L28.3,216.7 C28.3,213.9 27.8,211.3 26.7,208.7 L24.5,203.6 C25.3,203.2 26,202.8 26.7,202.1 C28.6,200.2 29.3,197.3 28.5,194.7 C28.5,194.7 28.6,194.6 28.6,194.6 C30.3,192.9 31,190.4 30.6,188.1 C31.6,187.8 32.6,187.2 33.4,186.4 C34.6,184.8 35.3,182.8 35.2,180.8 Z M25.1,200.6 C24.1,201.6 22.8,202.1 21.3,202.1 C19.8,202.1 18.5,201.5 17.5,200.6 L11.5,194.6 C10.5,193.6 10,192.3 10,190.8 C10,189.6 10.4,188.4 11.2,187.5 C11.4,187.8 11.7,188.2 12,188.5 L18,194.5 C19.4,195.9 21.3,196.6 23.2,196.6 C24.3,196.6 25.5,196.3 26.5,195.8 C26.8,197.6 26.3,199.4 25.1,200.6 Z M26.9,193.1 C24.8,195.2 21.5,195.2 19.4,193.1 L13.4,187.1 C11.3,185 11.3,181.7 13.4,179.6 C14,179 14.7,178.6 15.4,178.4 C15.7,179.1 16.2,179.7 16.8,180.3 L22.8,186.3 C24.2,187.7 26.1,188.4 28,188.4 C28.1,188.4 28.3,188.4 28.4,188.4 C28.7,190.1 28.2,191.9 26.9,193.1 Z" id="Shape" fill="#5742BC" fill-rule="nonzero"></path>
                    <path d="M159.4,16.5 L158.8,16.5 L93.3,16.5 C88,16.5 83.8,20.8 83.8,26 L83.8,91.7 L65.1,91.7 L65.1,92.2 C65.1,97.5 69.4,101.7 74.6,101.7 L140.7,101.7 C146,101.7 150.2,97.4 150.2,92.2 L150.2,26.5 L168.9,26.5 L168.9,26 C168.9,20.7 164.6,16.5 159.4,16.5 Z" id="Shape" fill="#FFFFFF" fill-rule="nonzero"></path>
                    <g id="Group" transform="translate(177.000000, 49.000000)" fill-rule="nonzero">
                        <path d="M31.9,16.1 C31.9,7.8 25.2,1 16.8,1 C8.5,1 1.7,7.7 1.7,16.1 L1.7,16.1 L1.7,19.5 L1.7,19.5 C1.7,20.5 1.8,21.6 2,22.6 C3.7,30.7 11.7,35.9 19.9,34.2 C27,32.7 31.9,26.4 31.9,19.5 L31.9,19.5 L31.9,16.1 L31.9,16.1 Z" id="Shape" fill="#FFFFFF"></path>
                        <path d="M32.9,16.1 C32.9,7.2 25.7,-7.10542736e-15 16.8,-7.10542736e-15 C7.9,-7.10542736e-15 0.7,7.2 0.7,16.1 C0.7,16.1 0.7,16.1 0.7,16.1 L0.7,16.1 L0.7,19.5 C0.7,20.6 0.8,21.7 1,22.8 C2.6,30.4 9.3,35.6 16.7,35.6 C17.8,35.6 18.9,35.5 20,35.3 C27.4,33.7 32.8,27.1 32.8,19.6 L32.9,16.1 L32.9,16.1 Z M16.9,2 C24.7,2 31,8.3 31,16.1 C31,23.9 24.7,30.2 16.9,30.2 C9.1,30.2 2.8,23.9 2.8,16.1 C2.8,8.3 9.1,2 16.9,2 Z M19.8,33.2 C13.7,34.5 7.7,31.6 4.7,26.5 C7.6,29.9 12,32.1 16.8,32.1 C21.6,32.1 26,29.9 28.9,26.6 C27,29.9 23.7,32.4 19.8,33.2 Z" id="Shape" fill="#F15A29"></path>
                    </g>
                    <g id="Group" transform="translate(30.000000, 103.000000)" fill-rule="nonzero">
                        <path d="M26.4,13.6 C26.4,6.8 20.9,1.3 14.1,1.3 C7.3,1.3 1.8,6.8 1.8,13.6 L1.8,13.6 L1.8,16.4 L1.8,16.4 C1.8,17.2 1.9,18.1 2.1,18.9 C3.5,25.5 10,29.8 16.7,28.4 C22.5,27.2 26.5,22.1 26.5,16.4 L26.5,16.4 L26.4,13.6 L26.4,13.6 Z" id="Shape" fill="#FFFFFF"></path>
                        <path d="M27.4,13.6 C27.4,6.3 21.4,0.3 14.1,0.3 C6.8,0.3 0.8,6.3 0.8,13.6 C0.8,13.6 0.8,13.6 0.8,13.6 L0.8,13.6 L0.8,16.4 C0.8,17.3 0.9,18.2 1.1,19.1 C1.8,22.6 3.9,25.6 6.9,27.5 C9.1,28.9 11.6,29.7 14.1,29.7 C15,29.7 16,29.6 16.9,29.4 C23,28.1 27.5,22.6 27.5,16.4 L27.4,13.6 L27.4,13.6 Z M14.1,2.3 C20.3,2.3 25.4,7.4 25.4,13.6 C25.4,19.8 20.3,24.9 14.1,24.9 C7.9,24.9 2.8,19.8 2.8,13.6 C2.8,7.4 7.9,2.3 14.1,2.3 Z M16.5,27.4 C13.5,28 10.5,27.5 8,25.8 C7.1,25.2 6.3,24.5 5.6,23.7 C7.9,25.6 10.9,26.8 14.1,26.8 C17.3,26.8 20.2,25.7 22.5,23.8 C21,25.6 18.9,26.9 16.5,27.4 Z" id="Shape" fill="#F15A29"></path>
                    </g>
                    <g id="Group" transform="translate(16.000000, 23.000000)" fill-rule="nonzero">
                        <path d="M31.8,16.7 C31.8,8.4 25.1,1.6 16.7,1.6 C8.4,1.6 1.6,8.3 1.6,16.7 L1.6,16.7 L1.6,20.1 L1.6,20.1 C1.6,21.1 1.7,22.2 1.9,23.2 C3.6,31.3 11.6,36.5 19.8,34.8 C26.9,33.3 31.8,27 31.8,20.1 L31.8,20.1 L31.8,16.7 L31.8,16.7 Z" id="Shape" fill="#FFFFFF"></path>
                        <path d="M32.8,16.7 C32.8,7.8 25.6,0.6 16.7,0.6 C7.8,0.6 0.6,7.8 0.6,16.7 C0.6,16.7 0.6,16.7 0.6,16.7 L0.6,16.7 L0.6,20.1 C0.6,21.2 0.7,22.3 0.9,23.4 C1.8,27.6 4.3,31.2 7.9,33.5 C10.5,35.2 13.6,36.1 16.6,36.1 C17.7,36.1 18.8,36 20,35.7 C27.4,34.1 32.8,27.5 32.8,20 L32.8,16.7 L32.8,16.7 Z M16.8,2.6 C24.6,2.6 30.9,8.9 30.9,16.7 C30.9,24.5 24.6,30.8 16.8,30.8 C9,30.8 2.7,24.5 2.7,16.7 C2.7,8.9 9,2.6 16.8,2.6 Z M19.7,33.8 C16,34.6 12.3,33.9 9.1,31.8 C7.2,30.6 5.7,29 4.6,27.1 C7.5,30.5 11.9,32.7 16.8,32.7 C21.6,32.7 26,30.5 28.9,27.2 C26.9,30.5 23.6,33 19.7,33.8 Z" id="Shape" fill="#F15A29"></path>
                    </g>
                    <g id="Group" transform="translate(64.000000, 15.000000)" fill-rule="nonzero">
                        <path d="M95.4,0.9 L94.8,0.9 L29.3,0.9 C23.8,0.9 19.3,5.4 19.3,10.9 L19.3,76.1 L0.6,76.1 L0.6,77.1 C0.6,82.6 5.1,87.1 10.6,87.1 L76.7,87.1 C82.2,87.1 86.7,82.6 86.7,77.1 L86.7,11.9 L105.4,11.9 L105.4,10.9 C105.4,5.4 100.9,0.9 95.4,0.9 Z M10.6,85.1 C6.5,85.1 3.1,82 2.6,78.1 L66.1,78.1 C66.4,81 67.9,83.5 70.1,85.1 L10.6,85.1 Z M84.7,10.9 L84.7,77.1 C84.7,81.5 81.1,85.1 76.7,85.1 L76.1,85.1 C71.7,85.1 68.1,81.5 68.1,77.1 L68.1,76.1 L21.3,76.1 L21.3,10.9 C21.3,6.5 24.9,2.9 29.3,2.9 L88.8,2.9 C86.3,4.7 84.7,7.6 84.7,10.9 Z M86.8,9.9 C87.3,5.9 90.7,2.9 94.8,2.9 L95.4,2.9 C99.5,2.9 102.9,6 103.4,9.9 L86.8,9.9 Z" id="Shape" fill="#5742BC"></path>
                        <g transform="translate(29.000000, 16.000000)" id="Rectangle-path" fill="#9CE2E2">
                            <rect x="0.3" y="0.3" width="45.6" height="2"></rect>
                            <rect x="0.3" y="9.4" width="45.6" height="2"></rect>
                            <rect x="33.2" y="18.5" width="12.7" height="2"></rect>
                            <rect x="0.3" y="18.5" width="27.7" height="2"></rect>
                            <rect x="0.3" y="27.6" width="45.6" height="2"></rect>
                            <rect x="0.3" y="45.9" width="35.9" height="2"></rect>
                            <rect x="0.3" y="36.7" width="25.2" height="2"></rect>
                        </g>
                    </g>
                    <path d="M160.6,132.5 C160.2,131.9 159.7,131.5 159.2,131.1 C160.3,129.5 160.4,127.3 159.2,125.6 C158.6,124.8 157.9,124.2 156.9,123.9 C157.4,122.5 157.2,120.9 156.4,119.6 C155.2,117.9 153.2,117.7 151.6,117.8 C151.5,117 151.3,116.2 150.8,115.4 C149.4,113.3 145.8,111.9 141.7,113.4 C127.8,118.3 116.1,125 97.3,139 L87.8,129.5 C86.3,127.8 84.1,126.8 81.9,126.7 C80,126.6 78.3,127.3 77.1,128.5 C74.5,131.1 74.5,135.5 77.1,138.1 L78.7,139.7 C84.9,145.9 88.3,154.1 88.3,162.9 L88.3,246.9 L90.3,246.9 L90.3,162.9 C90.3,153.6 86.7,144.9 80.1,138.3 L78.5,136.7 C76.6,134.8 76.6,131.8 78.5,129.9 C79.3,129.1 80.5,128.7 81.8,128.7 C83.5,128.7 85.1,129.5 86.3,130.9 L96.8,141.4 L97.1,141.7 L97.5,141.7 C97.8,141.7 104.7,141.4 107.8,151.2 L109.7,150.6 C107.2,142.6 102.2,140.4 99.4,139.9 C117.4,126.5 128.8,120 142.2,115.3 C145.4,114.2 148.1,115.1 149,116.6 C149.3,117.1 149.5,117.6 149.5,118.2 C144.4,119.3 133.6,124.7 120.3,134.5 L121.5,136.1 C136.6,124.8 146.6,120.7 150.1,120.1 C151.9,119.8 153.8,119.6 154.5,120.8 C155.1,121.7 155.1,122.8 154.7,123.8 C154,123.8 153.2,124 152.4,124.2 C148.8,125.3 137.6,130.8 125.9,140.3 L127.2,141.9 C138.5,132.7 149.7,127.3 153,126.2 C155.1,125.5 156.6,125.8 157.3,126.9 C158.1,128.1 157.9,129.7 156.9,130.6 C155.9,130.5 154.8,130.7 153.6,131.2 C143.2,136 134.9,142.3 129.8,146.7 L131.1,148.2 C136.1,143.9 144.2,137.7 154.4,133 C155.7,132.4 157.6,132.2 158.6,133.7 C159.5,135 159.1,136.8 157.8,137.8 C139.2,151.1 130.5,166.2 130.5,166.4 L130.4,166.6 L130.8,246.4 L132.8,246.4 L132.4,167.2 C133.5,165.3 142,151.6 159,139.5 C161.5,137.7 162.1,134.7 160.6,132.5 Z" id="Shape" fill="#EE2A7B" fill-rule="nonzero"></path>
                    <g id="Group" transform="translate(7.000000, 0.000000)" fill-rule="nonzero">
                        <path d="M225.5,64.9 L211.7,64.9 C211.1,64.9 210.7,65.3 210.7,65.9 L210.7,65.9 C210.7,66.5 211.1,66.9 211.7,66.9 L225.5,66.9 C226.1,66.9 226.5,66.5 226.5,65.9 L226.5,65.9 C226.5,65.3 226.1,64.9 225.5,64.9 Z" id="Shape" fill="url(#radialGradient-1)"></path>
                        <path d="M223.2,125.3 L163.7,97.7 C163.2,97.5 162.6,97.7 162.4,98.2 L162.4,98.2 C162.2,98.7 162.4,99.3 162.9,99.5 L222.4,127.1 C222.9,127.3 223.5,127.1 223.7,126.6 L223.7,126.6 C223.9,126.1 223.7,125.5 223.2,125.3 Z" id="Shape" fill="url(#radialGradient-2)"></path>
                        <path d="M210.3,15.2 C210.6,15.7 211.2,15.8 211.7,15.5 L223.4,7.9 C223.9,7.6 224,7 223.7,6.5 L223.7,6.5 C223.4,6 222.8,5.9 222.3,6.2 L210.6,13.8 C210.1,14.1 210,14.7 210.3,15.2 L210.3,15.2 Z" id="Shape" fill="url(#radialGradient-3)"></path>
                        <path d="M163.7,45.4 L163.7,45.4 C164,45.9 164.6,46 165.1,45.7 L199.8,23.2 C200.3,22.9 200.4,22.3 200.1,21.8 L200.1,21.8 C199.8,21.3 199.2,21.2 198.7,21.5 L164,44 C163.5,44.3 163.4,44.9 163.7,45.4 Z" id="Shape" fill="url(#radialGradient-4)"></path>
                        <path d="M229.4,26.6 L229.4,26.6 C229.1,26.1 228.5,25.9 228,26.2 L202.3,40 C201.8,40.3 201.6,40.9 201.9,41.4 L201.9,41.4 C202.2,41.9 202.8,42.1 203.3,41.8 L229,27.9 C229.5,27.7 229.7,27.1 229.4,26.6 Z" id="Shape" fill="url(#radialGradient-5)"></path>
                        <path d="M223.3,101 L203.1,96.2 C202.6,96.1 202,96.4 201.9,96.9 L201.9,96.9 C201.8,97.4 202.1,98 202.6,98.1 L222.8,102.9 C223.3,103 223.9,102.7 224,102.2 L224,102.2 C224.2,101.7 223.8,101.1 223.3,101 Z" id="Shape" fill="url(#radialGradient-6)"></path>
                        <path d="M174.5,89.3 C174,89.2 173.4,89.5 173.3,90 L173.3,90 C173.2,90.5 173.5,91.1 174,91.2 L194.5,96.1 C195,96.2 195.6,95.9 195.7,95.4 L195.7,95.4 C195.8,94.9 195.5,94.3 195,94.2 L174.5,89.3 Z" id="Shape" fill="url(#radialGradient-7)"></path>
                        <path d="M155.5,107.8 C155.1,107.4 154.5,107.4 154.1,107.8 L154.1,107.8 C153.7,108.2 153.7,108.8 154.1,109.2 L175.9,131.1 C176.3,131.5 176.9,131.5 177.3,131.1 L177.3,131.1 C177.7,130.7 177.7,130.1 177.3,129.7 L155.5,107.8 Z" id="Shape" fill="url(#radialGradient-8)"></path>
                        <path d="M173.2,23.2 L193.7,7.9 C194.1,7.6 194.2,6.9 193.9,6.5 L193.9,6.5 C193.6,6.1 192.9,6 192.5,6.3 L172,21.6 C171.6,21.9 171.5,22.6 171.8,23 C172.1,23.4 172.7,23.6 173.2,23.2 Z" id="Shape" fill="url(#radialGradient-9)"></path>
                        <path d="M55.9,71 L55.9,71 C55.9,70.4 55.4,70 54.9,70 L1.1,70.8 C0.5,70.8 0.1,71.3 0.1,71.8 L0.1,71.8 C0.1,72.4 0.6,72.8 1.1,72.8 L54.9,72 C55.4,72 55.9,71.5 55.9,71 Z" id="Shape" fill="url(#radialGradient-10)"></path>
                        <path d="M47.7,53.9 C47.2,53.8 46.7,54.2 46.6,54.8 L46.6,54.8 C46.5,55.3 46.9,55.8 47.5,55.9 L64,57.6 C64.5,57.7 65,57.3 65.1,56.7 L65.1,56.7 C65.2,56.2 64.8,55.7 64.2,55.6 L47.7,53.9 Z" id="Shape" fill="url(#radialGradient-11)"></path>
                        <path d="M66.7,29.5 C67.2,29.8 67.8,29.7 68.1,29.3 L68.1,29.3 C68.4,28.8 68.3,28.2 67.9,27.9 L37,6.3 C36.5,6 35.9,6.1 35.6,6.5 L35.6,6.5 C35.3,7 35.4,7.6 35.8,7.9 L66.7,29.5 Z" id="Shape" fill="url(#radialGradient-12)"></path>
                        <path d="M68.1,45.4 L68.1,45.4 C68.3,44.9 68.1,44.3 67.6,44.1 L54.8,38.7 C54.3,38.5 53.7,38.7 53.5,39.2 L53.5,39.2 C53.3,39.7 53.5,40.3 54,40.5 L66.8,45.9 C67.3,46.1 67.9,45.9 68.1,45.4 Z" id="Shape" fill="url(#radialGradient-13)"></path>
                        <path d="M63.6,82.2 C63.4,81.7 62.8,81.4 62.3,81.6 L47.2,87.5 C46.7,87.7 46.4,88.3 46.6,88.8 C46.8,89.3 47.4,89.6 47.9,89.4 L63,83.5 C63.6,83.3 63.8,82.7 63.6,82.2 Z" id="Shape" fill="url(#radialGradient-14)"></path>
                        <path d="M41.3,89.8 L11.8,101.3 C11.3,101.5 11,102.1 11.2,102.6 C11.4,103.1 12,103.4 12.5,103.2 L42,91.6 C42.5,91.4 42.8,90.8 42.6,90.3 C42.4,89.8 41.8,89.6 41.3,89.8 Z" id="Shape" fill="url(#radialGradient-15)"></path>
                        <path d="M69.5,0.4 C69.2,3.33066907e-16 68.5,-0.1 68.1,0.2 L68.1,0.2 C67.7,0.5 67.6,1.2 67.9,1.6 L75.8,12.4 C76.1,12.8 76.8,12.9 77.2,12.6 L77.2,12.6 C77.6,12.3 77.7,11.6 77.4,11.2 L69.5,0.4 Z" id="Shape" fill="url(#radialGradient-16)"></path>
                        <path d="M164.1,12.4 L169.8,5.1 C170.1,4.7 170.1,4 169.6,3.7 C169.2,3.4 168.5,3.4 168.2,3.9 L162.5,11.2 C162.2,11.6 162.2,12.3 162.7,12.6 C163.1,12.9 163.7,12.8 164.1,12.4 Z" id="Shape" fill="url(#radialGradient-17)"></path>
                        <path d="M70.7,112 C70.3,111.7 69.6,111.8 69.3,112.2 L50.7,137 C50.4,137.4 50.5,138.1 50.9,138.4 L50.9,138.4 C51.3,138.7 52,138.6 52.3,138.2 L70.9,113.4 C71.2,113 71.1,112.4 70.7,112 L70.7,112 Z" id="Shape" fill="url(#radialGradient-18)"></path>
                    </g>
                    <path d="M18.7,13.1 L15.3,11.8 L15.2,11.8 C14.8,11.7 14.5,11.4 14.4,11 L13.1,7.5 L11.9,11 C11.8,11.4 11.5,11.7 11.1,11.8 L11,11.8 L7.6,13.1 L11,14.4 C11,14.4 11,14.4 11,14.4 L11.1,14.4 C11.5,14.5 11.8,14.8 11.9,15.2 L13.2,18.7 L14.5,15.3 C14.7,14.9 15,14.6 15.4,14.4 C15.4,14.4 15.4,14.4 15.4,14.4 L18.7,13.1 Z" id="Shape" fill="#9CE2E2" fill-rule="nonzero"></path>
                    <path d="M15.2,134.1 L10.6,132.4 L10.5,132.4 C10,132.2 9.6,131.8 9.4,131.3 L7.7,126.6 L6,131.3 C5.8,131.8 5.4,132.2 4.9,132.4 L4.8,132.4 L0.2,134.1 L4.8,135.8 C4.8,135.8 4.8,135.8 4.8,135.8 L4.9,135.8 C5.4,136 5.8,136.4 6,136.9 L7.7,141.6 L9.4,137 C9.6,136.4 10,136 10.6,135.8 C10.6,135.8 10.6,135.8 10.6,135.8 L15.2,134.1 Z" id="Shape" fill="#9CE2E2" fill-rule="nonzero"></path>
                    <path d="M237.1,224.4 L231.6,222.4 L231.5,222.4 C230.9,222.2 230.4,221.7 230.2,221.1 L228.1,215.5 L226,221 C225.8,221.6 225.3,222.1 224.7,222.3 L224.6,222.3 L219.1,224.3 L224.6,226.3 C224.6,226.3 224.6,226.3 224.6,226.3 L224.7,226.3 C225.3,226.5 225.8,227 226,227.6 L228.1,233.2 L230.1,227.7 C230.3,227 230.9,226.5 231.5,226.3 C231.5,226.3 231.5,226.3 231.5,226.3 L237.1,224.4 Z" id="Shape" fill="#9CE2E2" fill-rule="nonzero"></path>
                    <path d="M71,150.8 L67.7,147.7 C66.8,146.9 65.6,146.4 64.4,146.5 C62.9,146.6 61.5,147.2 60.4,148.4 L12.7,200.3 L14.2,201.7 L11.8,204.2 L12.6,204.9 L7.2,205 L4,218.8 L17.3,214.8 L17,209.1 L17.9,210 L20.3,207.5 L21.8,208.9 L70.8,158.3 C71.9,157.2 72.5,155.7 72.5,154.2 C72.4,152.8 71.9,151.6 71,150.8 Z" id="Shape" fill="#FFFFFF" fill-rule="nonzero"></path>
                    <path d="M32.9,182 L32.5,181.6 L15.5,200 L21.7,205.8 L69.4,156.6 C70.1,155.9 70.5,154.9 70.5,154 C70.5,153.3 70.2,152.6 69.7,152.1 L66.4,149 C65.9,148.5 65.2,148.3 64.5,148.3 C63.6,148.3 62.6,148.8 61.9,149.5 L39.4,174 L39.8,174.7 L32.9,182 Z" id="Shape"></path>
                    <g id="Group" transform="translate(14.000000, 147.000000)" fill-rule="nonzero" fill="#FFFFFF">
                        <path d="M56.5,4.3 L53.2,1.2 C51.6,-0.3 49,2.86992652e-14 47.3,1.8 L46.6,2.6 C48.9,3.3 50.6,5.4 50.6,8 L50.6,16.1 L56.2,10.3 C58,8.5 58.1,5.8 56.5,4.3 Z" id="Shape"></path>
                        <path d="M24.8,26.3 L24.8,26.3 C26.3,28.9 25.5,32.3 22.9,33.8 L22.9,33.8 C21.3,34.8 19.3,34.8 17.8,34 L0.4,53 L8,60.2 L39.5,27.7 L39.5,10.5 L24.8,26.3 Z" id="Shape"></path>
                    </g>
                    <path d="M11.8,210.2 C11.4,209.8 10.6,209.8 10.2,210.2 C9.9,210.5 9.8,211 10,211.3 L4.8,216.8 L5.5,217.5 L10.6,212 C11,212.1 11.4,212 11.7,211.7 C12.3,211.3 12.3,210.6 11.8,210.2 Z" id="Shape" fill="#2C378C" fill-rule="nonzero"></path>
                    <path d="M3.9,218.7 L7.1,204.9 L16.7,204.8 L17.1,214.7 L3.9,218.7 Z M8.7,206.9 L6.6,215.8 L15.1,213.2 L14.8,206.8 L8.7,206.9 Z" id="Shape" fill="#2C378C" fill-rule="nonzero"></path>
                    <rect id="Rectangle-path" fill="#2C378C" fill-rule="nonzero" transform="translate(16.339275, 205.331195) rotate(43.359026) translate(-16.339275, -205.331195) " x="12.18908" y="203.081089" width="8.30038997" height="4.50021143"></rect>
                    <g id="Group" transform="translate(12.000000, 146.000000)" fill-rule="nonzero" fill="#2C378C">
                        <polygon id="Shape" points="40.4 13.9 40.4 11 26.3 26.4 27.4 28.1"></polygon>
                        <path d="M40.4,30.1 L40.4,28.2 L9.6,59.9 L3.4,54.1 L20.4,35.7 L19,34.3 L0.7,54.2 L9.7,62.7 L30.8,41 C33.2,35 38.7,31.2 40.4,30.1 Z" id="Shape"></path>
                        <path d="M59,4.8 L55.7,1.7 C54.8,0.9 53.6,0.4 52.4,0.5 C50.9,0.6 49.5,1.2 48.4,2.4 L48.3,2.6 C49,2.7 49.7,3 50.4,3.4 C51,2.9 51.8,2.6 52.5,2.6 C53.2,2.6 53.9,2.8 54.4,3.3 L57.7,6.4 C58.2,6.9 58.5,7.5 58.5,8.3 C58.5,9.2 58.1,10.2 57.4,10.9 L53.7,14.7 L53.7,17.6 L58.8,12.3 C59.9,11.2 60.5,9.7 60.5,8.2 C60.4,6.8 59.9,5.6 59,4.8 Z" id="Shape"></path>
                    </g>
                    <path d="M180.9,153.5 C178.1,153.5 175.5,154.8 173.8,157 C174.3,156.9 174.9,156.9 175.4,156.9 C181.5,156.9 186.4,161.8 186.4,167.9 L186.4,175.8 C188.3,175.5 189.8,173.9 189.8,171.9 L189.8,162.6 C189.9,157.5 185.8,153.5 180.9,153.5 Z" id="Shape"></path>
                    <path d="M202.4,187.3 C202.9,187.7 203.7,188 204.8,187.9 C205.9,187.9 206.7,187 206.7,186 L206.7,178.3 C206.7,177.7 206.8,177 207,176.4 C205.1,175.7 203.3,174.7 201.9,173.3 L201.9,186 C201.9,186.6 202.1,187 202.4,187.3 Z" id="Shape"></path>
                    <path d="M211.9,155.2 C209.2,155.2 206.8,153.4 206,151 C202.4,152.9 199.9,156.7 199.9,161.1 C199.9,167.4 205,172.5 211.3,172.5 C217.6,172.5 222.7,167.4 222.7,161.1 C222.7,157.2 220.7,153.7 217.7,151.7 C216.6,153.7 214.4,155.2 211.9,155.2 Z" id="Shape"></path>
                    <path d="M204,143.4 C203.5,143.4 202.9,143.5 202.5,143.9 C202.1,144.3 201.9,144.8 201.9,145.3 L201.9,151.4 C203,150.3 204.3,149.4 205.7,148.8 L205.7,145.5 C205.7,144.5 204.9,143.5 204,143.4 Z" id="Shape"></path>
                    <path d="M178.5,151.7 C179.3,151.5 180,151.4 180.8,151.4 C186.9,151.4 191.8,156.3 191.8,162.4 L191.8,169.8 C193.6,169.4 195,167.8 195,165.9 L195,156.6 C195,151.6 191,147.6 186,147.6 C183,147.6 180.2,149.2 178.5,151.7 Z" id="Shape"></path>
                    <path d="M216.6,150.9 C217,151.1 217.3,151.3 217.6,151.5 C217.9,150.9 218.1,150.2 218.2,149.5 C217.9,149.3 217.6,149.2 217.3,149 L216.6,150.9 Z" id="Shape" fill="#262262" fill-rule="nonzero"></path>
                    <path d="M207,148.3 C206.6,148.4 206.1,148.6 205.7,148.8 L205.7,148.9 C205.7,149.6 205.8,150.3 206,150.9 C206.4,150.7 206.8,150.5 207.2,150.4 L207,148.3 Z" id="Shape" fill="#262262" fill-rule="nonzero"></path>
                    <g id="Group" transform="translate(164.000000, 130.000000)" fill-rule="nonzero" fill="#5742BC">
                        <path d="M27.5,17.1 C27.5,16.2 27.5,14.3 27.5,13.6 C27.9,7.9 33.1,3.2 39.2,2.9 C42.7,2.7 45.9,4 48.4,6.3 C50.9,8.7 52.3,11.9 52.3,15.3 L52.3,18.8 C52.3,21.2 50.4,23.1 48,23.1 C45.7,23.1 43.8,21.2 43.8,18.9 L43.8,15.5 C43.8,13.4 42.2,11.6 40.3,11.4 C39.2,11.3 38.1,11.7 37.3,12.4 C36.5,13.1 36,14.2 36,15.3 L36,23.9 C36.6,23 37.2,22.2 38,21.4 L38,15.3 C38,14.8 38.2,14.3 38.6,13.9 C39,13.5 39.5,13.4 40.1,13.4 C41.1,13.5 41.8,14.4 41.8,15.5 L41.8,18.8 C42.2,18.6 42.6,18.4 43.1,18.3 L43.3,20.3 C42.9,20.5 42.5,20.6 42.1,20.8 C42.9,23.3 45.3,25 48,25 C50.5,25 52.7,23.5 53.7,21.4 C53.4,21.2 53,21 52.7,20.8 L53.4,18.9 C53.7,19.1 54,19.2 54.3,19.4 C54.3,19.2 54.3,18.9 54.3,18.7 L54.3,15.2 C54.3,11.2 52.7,7.5 49.8,4.7 C46.9,1.9 43.1,0.5 39.1,0.7 C32,1 26,6.6 25.5,13.3 C25.5,13.9 25.5,15.1 25.5,16 C24.4,15.6 23.3,15.4 22.1,15.4 C17.5,15.4 13.5,18.2 11.8,22.5 C9.7,23.6 8,25.3 6.9,27.6 C3.1,29.3 0.4,33.2 0.4,37.6 L0.4,116.1 L2.4,116.1 L2.4,37.6 C2.4,32.6 6.4,28.6 11.4,28.6 C16.4,28.6 20.4,32.6 20.4,37.6 L20.4,47.9 C20.4,50.1 18.6,51.9 16.4,51.9 C14.2,51.9 12.4,50.1 12.4,47.9 L12.4,39.2 L10.4,39.2 L10.4,47.9 C10.4,51.2 13.1,53.9 16.4,53.9 C19.7,53.9 22.4,51.2 22.4,47.9 L22.4,47.5 C25.4,47.2 27.8,44.7 27.8,41.6 C30.7,41.2 33,38.7 33,35.7 L33,26.4 C33.1,22.5 30.8,19 27.5,17.1 Z M25.9,41.7 C25.9,43.7 24.4,45.4 22.5,45.6 L22.5,37.7 C22.5,31.6 17.6,26.7 11.5,26.7 C10.9,26.7 10.4,26.8 9.9,26.8 C11.6,24.6 14.2,23.3 17,23.3 C22,23.3 26,27.3 26,32.3 L26,41.7 L25.9,41.7 Z M31.1,35.9 C31.1,37.8 29.7,39.4 27.9,39.8 L27.9,32.4 C27.9,26.3 23,21.4 16.9,21.4 C16.1,21.4 15.3,21.5 14.6,21.7 C16.2,19.2 19,17.6 22.1,17.6 C27.1,17.6 31.1,21.6 31.1,26.6 L31.1,35.9 Z" id="Shape"></path>
                        <path d="M54.7,58.6 L54.7,48.3 C54.7,47.2 54.4,46.2 53.9,45.4 C53.6,45.6 53.2,45.8 52.9,45.9 L52.4,44.5 L49.7,43 L47.3,43 L45,44.4 L43.9,46.7 C43.6,46.6 43.3,46.5 43,46.4 C42.8,47 42.7,47.6 42.7,48.3 L42.7,56 C42.7,57 41.9,57.9 40.8,57.9 C39.7,57.9 38.9,57.7 38.4,57.3 C38.1,57 37.9,56.6 37.9,56 L37.9,43.3 C37.1,42.6 36.5,41.7 35.9,40.8 L35.9,56 C35.9,57.1 36.3,58 37,58.7 C37.9,59.5 39.2,59.9 40.8,59.9 C43,59.8 44.7,58.1 44.7,56 L44.7,48.3 C44.7,46.1 46.5,44.3 48.7,44.3 C50.9,44.3 52.7,46.1 52.7,48.3 L52.7,58.6 C53.1,72.5 47.7,74.9 43.7,76.6 C41.6,77.5 39.7,78.4 39.7,80.8 L39.7,116.1 L41.7,116.1 L41.7,80.8 C41.7,79.8 42.4,79.4 44.5,78.5 C48.5,76.7 55.1,73.8 54.7,58.6 Z" id="Shape"></path>
                    </g>
                    <path d="M212.7,172.3 C210,172.3 207.8,174 207,176.4 C207.3,176.5 207.6,176.6 207.9,176.7 L209,174.4 L211.3,173 L213.7,173 L216.4,174.5 L216.9,175.9 C217.2,175.7 217.6,175.6 217.9,175.4 C216.9,173.5 214.9,172.3 212.7,172.3 Z" id="Shape" fill="#262262" fill-rule="nonzero"></path>
                    <g id="Group" transform="translate(20.000000, 148.000000)" fill-rule="nonzero" fill="#5742BC">
                        <path d="M7.3,6.3 C9.6,5 12.3,4.6 14.8,5.3 C17.4,6 19.5,7.6 20.9,9.8 L24.9,17.2 L26.3,15.6 L22.6,8.8 C21,6.1 18.4,4.1 15.3,3.3 C12.2,2.5 9,2.9 6.3,4.5 C0.6,7.8 -1.3,15.2 2.1,20.8 L8.4,31.5 C9.6,33.5 11.8,34.7 14,34.7 C15.1,34.7 16.2,34.4 17.3,33.8 C20.4,32 21.4,28 19.6,24.9 L13.4,14.3 L11.7,15.3 L17.9,25.9 C19.1,28 18.4,30.8 16.3,32 C14.2,33.2 11.4,32.5 10.2,30.4 L3.9,19.7 C1,15.2 2.6,9.1 7.3,6.3 Z" id="Shape"></path>
                        <path d="M39,0.4 C35.4,0.4 32.4,3.4 32.4,7 L32.4,28.1 C30.2,29.5 21.6,35.5 21.6,45 L23.6,45 C23.6,35.5 33.8,29.6 33.9,29.6 L34.4,29.3 L34.4,7 C34.4,4.5 36.5,2.4 39,2.4 C41.5,2.4 43.6,4.5 43.6,7 L43.6,24.5 L43.6,32.1 L43.6,98.3 L45.6,98.3 L45.6,32 L45.6,24.4 L45.6,7 C45.6,3.3 42.7,0.4 39,0.4 Z" id="Shape"></path>
                    </g>
                </g>
            </g>
        </g>
    </g>
</svg>