<?xml version="1.0" encoding="utf-8"?>
<!-- Generator: Adobe Illustrator 19.1.0, SVG Export Plug-In . SVG Version: 6.00 Build 0)  -->
<svg version="1.1" id="Layer_1" xmlns="http://www.w3.org/2000/svg" xmlns:xlink="http://www.w3.org/1999/xlink" x="0px" y="0px"
	 viewBox="0 0 566.9 566.9" style="enable-background:new 0 0 566.9 566.9;" xml:space="preserve">
<style type="text/css">
	.st0{fill:#231F20;}
</style>
<g>
	<path class="st0" d="M283.5,0C127.2,0,0,127.2,0,283.5s127.2,283.5,283.5,283.5s283.5-127.2,283.5-283.5S439.8,0,283.5,0z
		 M283.5,7.5c150.9,0,273.9,121.8,275.9,272.3h-85.8c-2-103.2-86.5-186.5-190.1-186.5S95.3,176.6,93.3,279.7H7.6
		C9.6,129.3,132.5,7.5,283.5,7.5z M466.2,283.5c0,100.8-82,182.8-182.8,182.8s-182.8-82-182.8-182.8s82-182.8,182.8-182.8
		S466.2,182.7,466.2,283.5z M283.5,559.5C132.5,559.5,9.6,437.7,7.6,287.2h85.8c2,103.2,86.5,186.5,190.1,186.5
		s188.1-83.3,190.1-186.5h85.8C557.4,437.7,434.4,559.5,283.5,559.5z"/>
	<path class="st0" d="M39.8,222.1c0.6,0.6,1.4,1,2.3,1l37.8-0.5c0.1,0,0.2,0,0.3,0c0.2,0,0.3,0,0.3,0l0.1,0c0.1,0,0.3-0.1,0.5-0.2
		c0.2-0.1,0.4-0.2,0.6-0.3l0-0.1c0.2-0.1,0.4-0.2,0.4-0.3c0.1-0.1,0.1-0.1,0.2-0.2c0,0,0.1-0.1,0.3-0.3l0.1-0.2
		c0.1-0.1,0.2-0.3,0.3-0.5c0.1-0.2,0.2-0.4,0.2-0.5l0.1-0.2c0-0.3,0-0.5,0-0.6l0-0.1l-0.2-0.6l0-0.1c-0.1-0.2-0.1-0.4-0.1-0.4
		c-0.1-0.1-0.1-0.1-0.1-0.1l-0.2-0.5c-0.2-0.2-0.3-0.3-0.4-0.4l-14.2-14.2l20.1-0.3c0.3,0,0.6,0,0.7-0.1c0.4,0,0.7-0.2,1.1-0.4
		l0-0.1c0.3-0.1,0.4-0.2,0.5-0.3c0.1-0.1,0.1-0.1,0.1-0.2c0,0,0.1-0.1,0.3-0.3l0.1-0.2c0.1-0.1,0.2-0.3,0.3-0.5
		c0.1-0.2,0.1-0.4,0.2-0.5l0-0.1c0-0.3,0-0.4,0-0.4c0,0,0-0.1,0-0.1l0-0.1l-0.1-0.6l0-0.1c-0.1-0.2-0.1-0.3-0.1-0.5
		c-0.1-0.1-0.1-0.1-0.1-0.1c-0.2-0.4-0.4-0.8-0.6-1l-26.8-26.6c-0.6-0.6-1.4-0.9-2.3-1s-1.7,0.3-2.3,1c-0.6,0.6-0.9,1.4-0.9,2.3
		c0,0.9,0.3,1.7,1,2.3l21.2,21.2l-19.9,0.3c-1.5,0-2.5,0.8-3.1,2.1c-0.6,1.4-0.3,2.6,0.7,3.6l14.1,14l-30,0.5c-0.9,0-1.7,0.3-2.3,1
		c-0.6,0.7-0.9,1.4-0.9,2.3C38.8,220.8,39.1,221.5,39.8,222.1z"/>
	<path class="st0" d="M108.4,164.7c0.7,0.5,1.6,0.7,2.4,0.6c0.9-0.1,1.6-0.6,2.1-1.3c0.5-0.7,0.7-1.6,0.6-2.5
		c-0.1-0.9-0.6-1.6-1.3-2.2l-28.4-20.8c-0.7-0.5-1.6-0.7-2.5-0.6c-0.9,0.2-1.6,0.6-2.2,1.3c-0.5,0.7-0.7,1.6-0.6,2.4
		c0.1,0.9,0.6,1.6,1.3,2.1L108.4,164.7z"/>
	<path class="st0" d="M126.7,141.5c0.6,0.7,1.4,1,2.3,1.1c0.9,0,1.7-0.2,2.3-0.8c0.7-0.6,1-1.4,1-2.3c0-0.9-0.2-1.7-0.8-2.3
		l-16.6-18.3l31.9,6.8c0.1,0,0.2,0.1,0.5,0.1c1,0.1,1.9-0.1,2.6-0.7c0.7-0.6,1-1.4,1.1-2.3c0.1-0.9-0.2-1.7-0.8-2.4l-23.3-25.7
		c-0.6-0.6-1.3-1-2.3-1c-0.9,0-1.7,0.2-2.3,0.8c-0.6,0.6-1,1.3-1,2.2s0.2,1.7,0.8,2.3l16.5,18.2l-32.2-6.8c-0.9-0.2-1.7,0-2.4,0.5
		c-0.7,0.5-1.2,1.2-1.5,2.3c-0.2,1,0.1,1.9,0.9,2.7L126.7,141.5z"/>
	<path class="st0" d="M171.2,105.5c0.4,0.8,1.1,1.4,1.9,1.6c0.9,0.3,1.7,0.2,2.5-0.2l6.2-3.2c5.1-2.7,8.5-6.7,10.3-12.2
		c1.7-5.5,1.3-10.8-1.4-15.9c-2.7-5.1-6.7-8.6-12.2-10.3c-5.5-1.7-10.8-1.3-15.9,1.4l-6.2,3.2c-0.8,0.4-1.4,1.1-1.6,1.9
		c-0.3,0.9-0.2,1.7,0.2,2.5L171.2,105.5z M165.6,72.5c3.5-1.8,7.1-2.1,10.8-0.9c3.7,1.2,6.5,3.5,8.3,7c1.8,3.5,2.1,7.1,1,10.8
		c-1.2,3.7-3.5,6.5-7,8.4l-3.3,1.7l-13.1-25.3L165.6,72.5z"/>
	<path class="st0" d="M221.5,83.5c0.3,0.9,0.8,1.5,1.6,2s1.6,0.5,2.5,0.3c0.9-0.3,1.5-0.8,2-1.6c0.5-0.8,0.6-1.6,0.3-2.5L218,47.9
		c-0.3-0.9-0.8-1.5-1.6-2c-0.8-0.4-1.7-0.5-2.5-0.3c-0.9,0.3-1.5,0.8-2,1.6c-0.4,0.8-0.5,1.6-0.3,2.5L221.5,83.5z"/>
	<path class="st0" d="M251.4,78.5c0.7,0.6,1.5,0.8,2.4,0.8c0.9-0.1,1.6-0.5,2.2-1.2c0.6-0.7,0.8-1.5,0.8-2.4l-1.9-24.7L275.9,76
		c0,0.1,0.2,0.2,0.3,0.3c0.7,0.7,1.6,1.1,2.5,1c0.9-0.1,1.7-0.4,2.3-1.1c0.6-0.7,0.9-1.5,0.8-2.4L279,39.3c-0.1-0.9-0.5-1.6-1.2-2.2
		c-0.7-0.6-1.5-0.8-2.4-0.8c-0.9,0.1-1.6,0.4-2.2,1.1s-0.8,1.5-0.8,2.3l1.9,24.5l-21.3-25.1c-0.6-0.7-1.3-1-2.2-1.1
		c-0.9-0.1-1.7,0.2-2.5,0.9c-0.8,0.7-1.1,1.6-1,2.7l2.7,34.6C250.3,77.2,250.7,78,251.4,78.5z"/>
	<path class="st0" d="M326.6,81.8c5,1,9.7,0.3,14.2-2c0.6-0.3,1.1-0.7,1.4-1.2l0-0.1c0.3-0.4,0.4-0.8,0.5-1.2l2.5-12.9
		c0.2-0.9,0-1.8-0.5-2.5c-0.5-0.8-1.3-1.2-2.2-1.4l-11.7-2.2c-0.9-0.2-1.8,0-2.6,0.5c-0.8,0.5-1.2,1.2-1.4,2.1
		c-0.2,0.9,0,1.8,0.5,2.6c0.5,0.8,1.3,1.3,2.2,1.4l8.4,1.6l-1.5,8c-2.9,1-5.7,1.2-8.5,0.7c-4.1-0.8-7.3-2.9-9.7-6.2
		c-2.4-3.4-3.2-7.1-2.5-11c0.8-4,2.9-7.1,6.4-9.3c3.5-2.2,7.1-3,10.9-2.3c3.8,0.7,6.8,2.4,9.1,5c0.6,0.7,1.4,1.1,2.4,1.2
		c1,0.1,1.8-0.2,2.5-0.8c0.7-0.6,1.1-1.4,1.1-2.4c0.1-1-0.2-1.8-0.9-2.5c-3.3-3.8-7.4-6.2-12.5-7.1c-6-1.2-11.5-0.1-16.5,3.2
		c-5,3.3-8.1,7.9-9.2,13.8c-1.1,5.9,0,11.2,3.5,16.1C315.9,77.7,320.6,80.7,326.6,81.8z"/>
	<path class="st0" d="M401.1,112.7c0.8,0.5,1.6,0.7,2.5,0.5c0.9-0.2,1.6-0.6,2.1-1.4l17.6-26.6l7.9,5.2c0.7,0.5,1.5,0.6,2.5,0.5
		c0.9-0.2,1.6-0.7,2.1-1.4c0.5-0.8,0.7-1.6,0.5-2.5c-0.2-0.9-0.6-1.6-1.4-2.1l-21.2-14.1c-0.8-0.5-1.6-0.7-2.5-0.5
		c-0.9,0.2-1.6,0.7-2.1,1.4c-0.5,0.8-0.7,1.6-0.5,2.5c0.2,0.9,0.6,1.6,1.4,2.1l7.9,5.2l-17.6,26.6c-0.5,0.8-0.7,1.6-0.5,2.5
		C399.9,111.5,400.3,112.2,401.1,112.7z"/>
	<path class="st0" d="M430.9,134.7c0,0.9,0.3,1.7,0.9,2.3c0.6,0.7,1.4,1,2.3,1.1c0.9,0,1.7-0.3,2.4-0.9l9.4-8.9l4.8,5.1
		c0.6,1.1,1,2.2,1.3,3.4c0.3,1.9-0.1,3.5-1.4,4.8c-2.2,2.1-3.6,4-4.3,5.8c-0.6,2-0.3,3.7,0.9,5l0,0c0.9,0.9,1.9,1.3,3,1.2
		c1.1-0.1,2-0.7,2.5-1.7c0.5-1,0.5-2,0.1-2.9c0.6-0.9,1.4-1.7,2.4-2.6c2.7-2.5,3.9-5.5,3.5-8.9c4,0.5,7.4-0.6,10.1-3.1
		c2.7-2.6,4.1-5.6,4.3-9.1c0.1-3.5-1-6.6-3.5-9.2l-7.3-7.8c-0.6-0.7-1.4-1-2.3-1c-0.9,0-1.7,0.3-2.3,0.9l-25.6,24.2
		C431.2,133,430.9,133.8,430.9,134.7z M459.6,115.3l5,5.3c1.2,1.2,1.7,2.7,1.7,4.4c-0.1,1.7-0.7,3.1-1.9,4.3
		c-1.2,1.2-2.7,1.7-4.4,1.7c-1.7,0-3.1-0.7-4.3-1.9l-5-5.3L459.6,115.3z"/>
	<path class="st0" d="M462.4,172.3c-0.2,0.9-0.1,1.7,0.4,2.5l0.1,0l0,0.1l9.9,16.6c0.4,0.8,1.1,1.2,2,1.5c0.9,0.2,1.7,0.1,2.5-0.3
		c0.8-0.5,1.3-1.1,1.5-2c0.2-0.9,0.1-1.7-0.3-2.5l-8.3-13.9l9.4-5.6l7.1,12c0.5,0.8,1.1,1.3,2,1.5c0.9,0.2,1.7,0.1,2.5-0.4
		c0.8-0.5,1.3-1.1,1.5-2c0.2-0.9,0.1-1.7-0.3-2.5l-7.1-12l9.4-5.6l8.3,13.9c0.4,0.8,1.1,1.2,2,1.5c0.9,0.2,1.7,0.1,2.5-0.4
		c0.8-0.5,1.3-1.1,1.5-2c0.2-0.9,0.1-1.7-0.4-2.5l-10-16.8c-0.5-0.8-1.1-1.3-2-1.5c-0.9-0.2-1.7-0.1-2.5,0.4l-30.3,18
		C463.1,170.8,462.6,171.4,462.4,172.3z"/>
	<path class="st0" d="M483.6,213.5c-0.4,0.8-0.5,1.6-0.2,2.5l0.1,0l0,0.1l6,18.4c0.3,0.8,0.8,1.5,1.7,1.9c0.8,0.4,1.7,0.5,2.5,0.2
		c0.9-0.3,1.5-0.8,1.9-1.7c0.4-0.8,0.5-1.7,0.2-2.5l-5-15.4l10.4-3.4l4.3,13.2c0.3,0.9,0.8,1.5,1.7,1.9c0.8,0.4,1.7,0.5,2.5,0.2
		c0.9-0.3,1.5-0.8,1.9-1.7c0.4-0.8,0.5-1.7,0.2-2.5l-4.3-13.2l10.4-3.4l5,15.4c0.3,0.8,0.8,1.5,1.7,1.9c0.8,0.4,1.7,0.5,2.5,0.2
		c0.9-0.3,1.5-0.8,1.9-1.7c0.4-0.8,0.5-1.6,0.2-2.5l-6.1-18.5c-0.3-0.9-0.8-1.5-1.6-1.9c-0.8-0.4-1.6-0.5-2.5-0.2l-33.5,11
		C484.7,212.2,484,212.7,483.6,213.5z"/>
	<path class="st0" d="M57.2,356.8l-0.6-2.4l7.4-0.6l0.7,2.6c0.2,0.6,0.5,1,1,1.3c0.5,0.3,1.1,0.4,1.7,0.2c0.6-0.2,1-0.5,1.3-1
		c0.3-0.5,0.4-1.1,0.2-1.7l-0.5-1.9l4.3-0.4c0.7-0.1,1.2-0.4,1.6-0.9c0.4-0.6,0.5-1.1,0.4-1.8c-0.2-0.6-0.5-1.1-0.9-1.4
		s-0.9-0.5-1.5-0.4l-5.1,0.5l-1.7-6.5l4.3-0.4c0.7-0.1,1.2-0.4,1.6-1c0.4-0.6,0.5-1.1,0.3-1.7c-0.2-0.6-0.5-1.1-0.9-1.4
		c-0.4-0.3-0.9-0.4-1.5-0.4l-5.1,0.5l-0.8-3.1c-0.2-0.6-0.5-1-1-1.3c-0.5-0.3-1.1-0.4-1.7-0.2c-0.6,0.2-1,0.5-1.3,1
		c-0.3,0.5-0.4,1.1-0.2,1.7l0.6,2.4l-7.4,0.6l-0.7-2.6c-0.2-0.6-0.5-1.1-1-1.4c-0.5-0.3-1.1-0.4-1.7-0.2c-0.6,0.2-1,0.5-1.3,1
		c-0.3,0.5-0.4,1.1-0.2,1.7l0.5,1.9l-4.5,0.4c-0.7,0.1-1.2,0.4-1.6,0.9c-0.4,0.6-0.5,1.1-0.3,1.8c0.2,0.6,0.5,1.1,0.9,1.4
		c0.4,0.3,0.9,0.4,1.4,0.4l5.2-0.5l1.7,6.5l-4.5,0.4c-0.7,0.1-1.2,0.4-1.6,1c-0.4,0.6-0.5,1.2-0.3,1.8c0.2,0.6,0.5,1.1,0.9,1.4
		c0.4,0.3,0.9,0.4,1.5,0.4l5.2-0.5l0.8,3.1c0.2,0.6,0.5,1.1,1,1.4c0.5,0.3,1.1,0.4,1.7,0.2c0.6-0.2,1-0.5,1.3-1
		C57.3,358,57.3,357.4,57.2,356.8z M55.4,350l-1.7-6.4l7.4-0.6l1.7,6.4L55.4,350z"/>
	<path class="st0" d="M83.8,385.7c0.3,0.6,0.7,1,1.3,1.2c0.6,0.2,1.2,0.2,1.8-0.1c0.6-0.3,1-0.7,1.2-1.3c0.2-0.6,0.2-1.2-0.1-1.8
		l-7.7-16.6c-0.3-0.6-0.7-1-1.3-1.2c-0.6-0.2-1.2-0.2-1.8,0.1c-0.6,0.3-1,0.7-1.2,1.3s-0.2,1.2,0.1,1.8l2.8,6.1l-20.4,9.4
		c-0.6,0.3-1,0.7-1.2,1.3c-0.2,0.6-0.2,1.2,0.1,1.8c0.3,0.6,0.7,1,1.3,1.2c0.6,0.2,1.2,0.2,1.8-0.1l20.4-9.4L83.8,385.7z"/>
	<path class="st0" d="M102.7,412.4c0.5-2.5,0-4.7-1.4-6.8l-4.3-6.3c-0.4-0.5-0.9-0.9-1.5-1c-0.6-0.1-1.2,0-1.7,0.4l-20.6,13.9
		c-0.5,0.4-0.9,0.9-1,1.5c-0.1,0.6,0,1.2,0.4,1.8c0.4,0.5,0.9,0.9,1.5,1c0.6,0.1,1.2,0,1.8-0.3l7.6-5.1l2.8,4.2
		c0.3,0.8,0.5,1.7,0.5,2.5c0,1.4-0.5,2.4-1.5,3.2c-1.8,1.2-3,2.4-3.7,3.6c-0.7,1.3-0.6,2.5,0.1,3.6l0,0c0.5,0.8,1.2,1.2,2,1.2
		c0.8,0,1.4-0.3,1.9-0.9c0.5-0.6,0.6-1.3,0.4-2.1c0.5-0.5,1.2-1,2-1.5c2.2-1.5,3.3-3.4,3.4-5.8c2.8,0.8,5.2,0.5,7.4-1
		C100.9,416.9,102.2,414.9,102.7,412.4z M96.3,414.3c-1,0.7-2.1,0.9-3.2,0.6c-1.2-0.2-2.1-0.9-2.8-1.9l-2.9-4.4l7.2-4.9l2.9,4.4
		c0.7,1,0.9,2.1,0.7,3.3C97.8,412.7,97.2,413.6,96.3,414.3z"/>
	<path class="st0" d="M121.5,431.5c-0.5-0.1-1-0.1-1.4,0.1l-24.5,10.1c-0.7,0.3-1.2,0.9-1.4,1.6c-0.2,0.8,0,1.5,0.7,2.2
		c0.7,0.7,1.5,0.9,2.5,0.5l5.4-2.2l7.1,7.6l-2.5,5.3c-0.5,0.9-0.4,1.8,0.3,2.5c0.7,0.7,1.4,1,2.2,0.8c0.8-0.2,1.4-0.6,1.7-1.3
		l11.6-23.9c0.5-1,0.3-1.9-0.5-2.7C122.4,431.9,122,431.6,121.5,431.5z M112.1,447l-4.7-5l9-3.7L112.1,447z"/>
	<path class="st0" d="M156.5,462c-0.6-0.2-1.2-0.1-1.8,0.2l-18.4,10.6l5-20.6c0.1-0.6,0.1-1.2-0.3-1.8c-0.3-0.5-0.8-0.9-1.4-1
		c-0.6-0.2-1.2-0.1-1.8,0.2c-0.6,0.3-0.9,0.8-1,1.4l-6.4,25.9c0,0.1,0,0.2,0,0.3c0,0.1,0,0.2,0,0.2c0,0,0,0.1,0,0.2
		c0,0.1,0,0.2,0,0.2c0.1,0.2,0.1,0.3,0.1,0.3l0,0c0,0.2,0.1,0.4,0.2,0.4l0,0l0,0.1c0.1,0.1,0.2,0.2,0.2,0.3l0.1,0.1
		c0.1,0.1,0.2,0.2,0.3,0.3c0.1,0.1,0.3,0.2,0.4,0.2l0.1,0.1c0.3,0.1,0.5,0.1,0.6,0.2c0.1,0,0.2,0,0.3,0l0.8-0.1c0,0,0.1,0,0.1,0
		l0.3-0.2l23.2-13.3c0.5-0.3,0.9-0.8,1-1.4c0.2-0.6,0.1-1.2-0.3-1.8C157.6,462.5,157.2,462.1,156.5,462z"/>
	<path class="st0" d="M186.7,478.7l-12.4-6.4c-0.6-0.3-1.2-0.4-1.8-0.2c-0.6,0.2-1.1,0.6-1.4,1.1l-11.4,22c-0.3,0.6-0.3,1.2-0.1,1.8
		c0.2,0.6,0.6,1.1,1.2,1.4l0.1,0l0.1,0.1l12.3,6.4c0.6,0.3,1.1,0.3,1.8,0.1c0.6-0.2,1.1-0.6,1.4-1.1c0.3-0.6,0.3-1.2,0.1-1.8
		c-0.2-0.6-0.6-1.1-1.1-1.4l-10.3-5.3l3.6-6.9l8.8,4.6c0.6,0.3,1.2,0.4,1.8,0.2c0.6-0.2,1.1-0.6,1.4-1.1c0.3-0.6,0.3-1.2,0.1-1.8
		c-0.2-0.6-0.6-1.1-1.1-1.4l-8.8-4.6l3.5-6.8l10.3,5.3c0.6,0.3,1.2,0.3,1.8,0.1c0.6-0.2,1.1-0.6,1.4-1.2c0.3-0.6,0.3-1.2,0.1-1.8
		C187.6,479.4,187.2,479,186.7,478.7z"/>
	<path class="st0" d="M208.8,513.7l-11-3.8l7.3-21.2c0.2-0.6,0.2-1.2-0.1-1.8c-0.3-0.6-0.8-1-1.4-1.2s-1.2-0.2-1.8,0.1
		c-0.6,0.3-1,0.7-1.2,1.3l-8.1,23.5c-0.2,0.6-0.2,1.2,0.1,1.8c0.3,0.6,0.7,1,1.4,1.2l13.2,4.5c0.6,0.2,1.2,0.2,1.8-0.1
		c0.6-0.3,1-0.7,1.2-1.3c0.2-0.6,0.2-1.2-0.1-1.8C209.8,514.3,209.4,513.9,208.8,513.7z"/>
	<path class="st0" d="M244.1,495.5c-4-0.6-7.7,0.3-10.9,2.8c-3.3,2.5-5.2,5.8-5.9,9.9c-0.7,4.1,0.2,7.8,2.5,11.2
		c2.3,3.4,5.5,5.4,9.6,6.1c1.9,0.3,3.8,0.2,5.7-0.3c1.9-0.5,3.6-1.3,5.1-2.5c3.3-2.5,5.3-5.7,5.9-9.8c0.7-4-0.2-7.8-2.5-11.2
		C251.3,498.2,248.1,496.1,244.1,495.5z M251.3,512c-0.4,2.7-1.8,5-4,6.7c-2.2,1.7-4.6,2.4-7.3,2c-2.7-0.4-4.8-1.8-6.3-4.1
		c-1.6-2.3-2.1-4.9-1.7-7.7c0.5-2.8,1.8-5.1,4-6.8c2.2-1.7,4.6-2.3,7.3-1.9c2.7,0.4,4.8,1.8,6.3,4.2
		C251.2,506.7,251.7,509.2,251.3,512z"/>
	<path class="st0" d="M295.4,499.9c-0.5-0.4-1-0.6-1.7-0.6c-0.6,0-1.2,0.3-1.6,0.7c-0.4,0.5-0.7,1-0.6,1.6l0.5,17.3l-14.3-18.4
		c-0.4-0.5-0.9-0.8-1.5-0.9c-0.6-0.1-1.2,0.1-1.8,0.5c-0.6,0.4-0.9,1.1-0.8,1.9l0.7,24.5c0,0.6,0.3,1.2,0.7,1.6
		c0.5,0.4,1,0.6,1.7,0.6c0.6,0,1.2-0.3,1.6-0.7c0.4-0.5,0.7-1,0.6-1.6l-0.5-17.5l14.2,18.3c0,0.1,0.1,0.1,0.2,0.2
		c0.5,0.5,1.1,0.8,1.7,0.8c0.7,0,1.2-0.3,1.7-0.7c0.5-0.5,0.7-1,0.7-1.7l-0.7-24.4C296.2,500.8,295.9,500.3,295.4,499.9z"/>
	<path class="st0" d="M332.7,493.5c-0.5-0.4-1.1-0.5-1.8-0.3l-17.9,3.6c-0.6,0.1-1.1,0.5-1.5,1s-0.5,1.1-0.3,1.7
		c0.1,0.6,0.5,1.1,1,1.5c0.5,0.4,1.1,0.5,1.8,0.4l6.6-1.3l4.4,22c0.1,0.6,0.5,1.1,1,1.5c0.5,0.4,1.1,0.5,1.8,0.3
		c0.6-0.1,1.1-0.5,1.5-1c0.4-0.5,0.5-1.1,0.3-1.7l-4.4-22l6.7-1.3c0.6-0.1,1.1-0.5,1.5-1c0.4-0.5,0.5-1.1,0.4-1.8
		C333.6,494.4,333.2,493.9,332.7,493.5z"/>
	<path class="st0" d="M366.6,483.7c-0.2-0.6-0.6-1-1.2-1.3c-0.6-0.3-1.2-0.3-1.8,0c-0.6,0.2-1.1,0.6-1.3,1.2
		c-0.3,0.6-0.3,1.2-0.1,1.8l3.6,9.4l-10.3,3.9l-3.6-9.4c-0.2-0.6-0.6-1-1.2-1.3c-0.6-0.3-1.2-0.3-1.8,0c-0.6,0.2-1.1,0.6-1.3,1.2
		c-0.3,0.6-0.3,1.2-0.1,1.8l8.8,23.2c0.2,0.6,0.6,1,1.2,1.3c0.6,0.3,1.2,0.3,1.8,0c0.6-0.2,1.1-0.6,1.3-1.2c0.3-0.6,0.3-1.2,0.1-1.8
		l-3.6-9.4l10.3-3.9l3.6,9.4c0.2,0.6,0.6,1,1.2,1.3c0.6,0.3,1.2,0.3,1.8,0c0.6-0.2,1.1-0.6,1.3-1.2c0.3-0.6,0.3-1.2,0.1-1.8
		L366.6,483.7z"/>
	<path class="st0" d="M409.1,487.3c-0.6-0.2-1.2-0.1-1.8,0.2l-10,5.8l-3.9-6.7l8.6-5c0.6-0.3,0.9-0.8,1.1-1.4
		c0.2-0.6,0.1-1.2-0.2-1.8c-0.3-0.5-0.8-0.9-1.4-1.1c-0.6-0.2-1.2-0.1-1.8,0.2l-8.6,5l-3.9-6.7l10-5.8c0.5-0.3,0.9-0.8,1.1-1.4
		c0.2-0.6,0.1-1.2-0.2-1.8c-0.3-0.6-0.8-0.9-1.4-1.1c-0.6-0.2-1.2-0.1-1.8,0.2l-12.1,7c-0.6,0.3-0.9,0.8-1.1,1.4
		c-0.2,0.6-0.1,1.2,0.2,1.8l12.5,21.5c0.3,0.6,0.8,0.9,1.4,1.1c0.6,0.2,1.2,0.1,1.8-0.3l0-0.1l0.1,0l12-6.9c0.5-0.3,0.9-0.8,1.1-1.4
		c0.2-0.6,0.1-1.2-0.2-1.8S409.7,487.5,409.1,487.3z"/>
	<path class="st0" d="M441.5,459.1c-0.7-0.1-1.3,0-1.8,0.4c-0.6,0.4-0.9,0.9-1.1,1.4c-0.5,2.4-1.9,4.6-4,6.3
		c-2.1,1.8-4.7,2.6-7.6,2.4c-2.9-0.2-5.3-1.4-7.1-3.6c-1.8-2.2-2.6-4.7-2.3-7.7c0.4-3,1.7-5.3,3.8-7.1c2.2-1.8,4.5-2.7,6.9-2.7
		c0.6,0,1.2-0.3,1.6-0.8c0.5-0.5,0.7-1.1,0.7-1.8c0-0.7-0.3-1.2-0.8-1.7c-0.5-0.4-1-0.7-1.7-0.7c-3.6,0.1-6.8,1.4-9.7,3.8
		c-3.3,2.8-5.1,6.2-5.6,10.5c-0.5,4.2,0.6,8,3.2,11.2c2.7,3.2,6.2,5,10.4,5.3c4.3,0.3,8-0.9,11.3-3.6c2.9-2.4,4.7-5.3,5.5-8.8
		c0.1-0.6,0-1.2-0.3-1.8C442.7,459.6,442.2,459.3,441.5,459.1z"/>
	<path class="st0" d="M452.5,416.6c-0.5-0.4-1.1-0.6-1.7-0.5c-0.6,0.1-1.2,0.4-1.6,0.9c-0.4,0.5-0.6,1.1-0.6,1.7s0.3,1.2,0.8,1.6
		l7.7,6.5l-7.1,8.5l-7.7-6.5c-0.5-0.4-1.1-0.6-1.7-0.5c-0.6,0.1-1.2,0.4-1.6,0.9c-0.4,0.5-0.6,1.1-0.6,1.7c0.1,0.6,0.3,1.2,0.8,1.6
		l19,16c0.5,0.4,1.1,0.6,1.7,0.5c0.6-0.1,1.2-0.3,1.6-0.8c0.4-0.5,0.6-1.1,0.6-1.7c0-0.6-0.3-1.2-0.8-1.6l-7.7-6.5l7.1-8.5l7.7,6.5
		c0.5,0.4,1.1,0.6,1.7,0.5c0.6-0.1,1.2-0.3,1.6-0.8c0.4-0.5,0.6-1.1,0.6-1.7c0-0.6-0.3-1.2-0.8-1.6L452.5,416.6z"/>
	<path class="st0" d="M493.9,396.1l-26.2-4.4c-1.1-0.2-1.9,0.2-2.4,1.2c-0.3,0.4-0.4,0.9-0.4,1.4c0,0.5,0.2,0.9,0.5,1.3l16.6,20.7
		c0.5,0.6,1.2,0.9,2,0.9c0.8,0,1.5-0.5,2-1.3c0.5-0.8,0.4-1.7-0.2-2.5l-3.7-4.6l5.2-9l5.8,1c1,0.2,1.8-0.2,2.3-1
		c0.5-0.8,0.6-1.6,0.2-2.3C495.2,396.7,494.7,396.3,493.9,396.1z M479,405l-6.1-7.6l9.6,1.6L479,405z"/>
	<path class="st0" d="M503.4,376.8l-22.9-9.6c-0.6-0.2-1.2-0.2-1.8,0c-0.6,0.3-1,0.7-1.3,1.3c-0.3,0.6-0.3,1.2,0,1.8
		c0.2,0.6,0.7,1,1.2,1.3l22.9,9.6c0.6,0.2,1.2,0.3,1.8,0c0.6-0.2,1-0.7,1.3-1.3c0.3-0.6,0.3-1.2,0-1.8
		C504.4,377.4,504,377,503.4,376.8z"/>
	<path class="st0" d="M517.2,338c-0.3-0.6-0.8-0.9-1.4-1.1l-23.7-6.1c-0.6-0.2-1.2-0.1-1.7,0.3c-0.5,0.3-0.9,0.8-1.1,1.4
		c-0.2,0.6-0.1,1.2,0.2,1.7c0.3,0.6,0.8,0.9,1.4,1.1l16.8,4.3l-21.7,8.7c-0.6,0.2-1,0.6-1.2,1.2c-0.3,0.6-0.2,1.2,0,1.9
		c0.3,0.7,0.8,1.1,1.6,1.3l23.7,6.1c0.6,0.2,1.2,0.1,1.8-0.3c0.5-0.3,0.9-0.8,1.1-1.4c0.2-0.6,0.1-1.2-0.3-1.8
		c-0.3-0.6-0.8-0.9-1.4-1.1l-16.9-4.3l21.5-8.6c0.1,0,0.2-0.1,0.3-0.1c0.7-0.3,1.1-0.8,1.2-1.4C517.5,339.2,517.5,338.6,517.2,338z"
		/>
	<path class="st0" d="M294.8,396.2c-1.5-1.5-3.8-1.5-5.3,0c0,0-25,24.4-33.9,33c-2.3,2.3-3.4,3-7.9,3c-4.3,0-9.9,0-9.9,0
		c-2.1,0-3.9,1.7-3.9,3.9s1.7,3.9,3.9,3.9c0,0,8.5,0,10.1,0c7.7,0,8.4,0,15.5-7.1l31.4-31.4C296.2,400.1,296.2,397.7,294.8,396.2z"
		/>
	<path class="st0" d="M235.3,311.9c2.5-0.6,5-1.3,7.5-2.2c9.2-3.6,17.3-10.2,22.6-19.4c6.8-11.8-4-16.7,8.1-33
		c-1.3-2-2.9-2.7-4.6-2.8c-1.1,0.8-2.5,1.7-3.3,2c-3.3,1-6.5,2.3-9.6,4.1c-15.9,9.2-24,26.6-22.2,43.7c-8.5,1.7-17.7,0.5-25.9-4.2
		c-17.3-10-23.5-31.8-14.4-49.3c-1.9-1.5-4-3.2-6-5.1c-12.2,21.5-4.9,48.8,16.6,61.1c7.2,4.2,15.2,6.1,23,6c0.3,0,0.5,0,0.8,0
		C230.3,312.7,232.8,312.4,235.3,311.9L235.3,311.9z M259.9,267.3c0.5-0.3,0.9-0.6,1.3-0.8c-2.5,8.3,0.1,15.7-2.5,20
		c-4.1,7.1-10.3,12.4-17.3,15.4C240.5,288.3,247.2,274.6,259.9,267.3z"/>
	<path class="st0" d="M319.9,432.3c0,0-5.7,0-9.9,0c-4.5,0-5.5-0.7-7.9-3c-8.9-8.7-10.6-9.8-10.6-9.8c-1.5-1.5-3.8-1.5-5.3,0
		c-1.5,1.5-1.5,3.8,0,5.3l8.2,8.2c7.1,7.1,7.7,7.1,15.5,7.1c1.5,0,10.1,0,10.1,0c2.1,0,3.9-1.7,3.9-3.9S322,432.3,319.9,432.3z"/>
	<path class="st0" d="M363.8,238.5c-2.2-2.3-4.8-4.6-7.2-6.6c-7.4-5.5-16.6-8.7-26.6-8.7c-13.6,0-12.5,11.8-32.6,9.5
		c-1,2.1,0.7,5,1.4,5.6c3.6,2.8,4.1,5.5,9.6,8.6c16.2,9.1,35.6,7.5,49.6-3.1c5.7,6.5,9.1,15,9.1,24.3c0,20-15.8,36.3-35.6,37.1
		c-0.2,2.5-0.6,5.1-1,7.8c24.6-0.3,44.4-20.3,44.4-44.9C374.9,256.8,370.7,246.5,363.8,238.5C363.8,238.5,363.8,238.5,363.8,238.5z
		 M312.3,240.2c-0.8-0.4-1.3-0.8-1.8-1.2c9-1.8,14.3-8.1,19.5-8.1c8.4,0,16,2.8,22.2,7.4C340.7,246.4,325.2,247.6,312.3,240.2z"/>
	<path class="st0" d="M192.8,238.3c1.8,1.8,3.8,3.6,5.8,5.2c0,0,0,0,0,0c7.6,5.8,17,9.3,27.3,9.3c13.6,0,12.5-11.8,32.6-9.5
		c1-2.1,0.9-3.9,0.2-5.4c-3.8-2.9-6.7-7.1-9.6-8.8c-16.5-9.5-36.5-7.4-50.5,3.8c-6.1-6.6-9.8-15.4-9.8-25.1
		c0-20.5,16.6-37.2,37.2-37.2c0,0,0,0,0.1,0c0.4-2.4,1-5,1.7-7.7c-0.6,0-1.2,0-1.8,0c-24.8,0-44.9,20.1-44.9,44.9
		C180.9,219.5,185.4,230.2,192.8,238.3C192.8,238.2,192.8,238.3,192.8,238.3z M245.1,235.7c0.7,0.4,1.3,0.7,1.8,0.9
		c-10,1.3-15.5,8.3-21,8.3c-8,0-15.4-2.6-21.5-6.9C215.9,229.5,231.9,228.1,245.1,235.7z"/>
	<path class="st0" d="M289.5,377.7l-26.5,26.5c-1.5,1.5-1.5,3.8,0,5.3s3.8,1.5,5.3,0l26.5-26.5c1.5-1.5,1.5-3.8,0-5.3
		C293.3,376.2,290.9,376.2,289.5,377.7z"/>
	<path class="st0" d="M271.5,350.7c1.5-1.5,1.5-3.8,0-5.3L255.2,329c-4.4-4.3-6.4-6.5-8.9-10.9c0,0,0-0.1,0-0.1
		c-2.3,0.8-4.9,1.7-7.5,2.4c0.3,0.5,0.6,1,0.9,1.6c2.5,4.3,5.6,8,9.2,11.1c0.1,0.1,0.2,0.2,0.3,0.3l17.3,17.3
		C267.7,352.1,270.1,352.1,271.5,350.7z"/>
	<path class="st0" d="M262.9,367c-1.5,1.5-1.5,3.8,0,5.3c1.5,1.5,3.8,1.5,5.3,0l45.3-45.3c0.5-0.5,1-1.1,2-2.3
		c2.4-3.6,4.3-7.5,5.6-11.5c1.4-5.5,1.9-12.5,2.1-16.9c-0.5-6.6-2.4-13.1-5.9-19.2c-6.8-11.8-16.5-4.9-24.5-23.5
		c-2.1,0.2-2.8,1.5-3.7,2.1c-1.7,3.5-2.8,8.9-2.8,12.5c0,19.1,11.2,35.5,27.7,41.9c-1.3,4.2-3.2,8.2-5.9,11.8L262.9,367z
		 M292.8,268.1c0-0.5,0-0.9,0-1.2c6,7.9,15,9.1,17.8,14c3.9,6.8,5.4,14.2,4.8,21.5C302.1,296.7,292.8,283.5,292.8,268.1z"/>
	<path class="st0" d="M353.3,169.1c-10.1-5.8-21.5-7.2-32.1-4.9c0,0,0,0,0,0c-2.5,0.7-5.1,1.5-7.6,2.4c-8.8,3.6-16.6,10.1-21.7,19
		c-6.8,11.8,4,16.7-8.1,33c1.3,2,3.6,2.1,5.3,2.2c2.7-0.3,10.8-2.1,12.8-3.2c16.7-9.7,24.4-27.8,21.3-45.8c8.6-1.8,18-0.6,26.2,4.1
		c17.6,10.2,23.7,32.5,13.9,50.2c1.9,1.5,4,3.3,5.9,5.2c0.2-0.3,0.3-0.5,0.5-0.8C382.2,209,374.8,181.5,353.3,169.1z M297.6,211.5
		c-1.6,0.9-1.9,1.2-2.5,1.5c5-9.8,0.6-18.5,3.6-23.6c4.1-7.1,10.2-12.3,17.1-15.3C317.8,188.6,311.1,203.6,297.6,211.5z"/>
	<path class="st0" d="M294.8,359.1c-1.5-1.5-3.8-1.5-5.3,0l-26.5,26.5c-1.5,1.5-1.5,3.8,0,5.3s3.8,1.5,5.3,0l26.5-26.5
		C296.2,362.9,296.2,360.5,294.8,359.1z"/>
	<path class="st0" d="M264.6,225.2c2.4-0.2,3.8-1.2,4.8-2.6c-0.2-1.6-0.1-3,0.1-4.5c0.8-3.3,1.2-6.8,1.2-10.3
		c0-18.3-11-34.1-26.8-41.1c2.9-8,8.5-15.1,16.4-19.7c17-9.8,38.6-4.6,49.4,11.4c2.3-0.9,4.8-1.8,7.5-2.6
		c-12.7-20.8-39.6-27.7-60.8-15.5c-9.6,5.6-16.4,14.1-19.8,23.8c0,0,0,0,0,0c-0.8,2.7-1.5,5.6-2.1,8.3c-1.5,9.7,0.2,20,5.5,29.2
		C246.9,213.5,256.5,206.6,264.6,225.2z M242.2,174.4c12.3,6,20.9,18.7,20.9,33.4c0,1.1,0.1,1.9,0.2,2.5c-6-6.6-13.8-8-16.4-12.5
		C242.5,190.5,241.1,182.3,242.2,174.4z"/>
</g>
</svg>
