<svg width="563" height="182" viewBox="0 0 563 182" fill="none" xmlns="http://www.w3.org/2000/svg">
<path d="M546.463 0H483.145C474.313 0 467.278 7.18498 467.278 16.0165V31.2846L402.913 1.79625C397.224 -0.748436 391.237 -0.598748 386.447 2.54468C385.25 3.29312 384.202 4.19124 383.154 5.23905C383.004 5.08936 382.855 4.93968 382.705 4.78999C379.711 1.79625 375.52 0 371.329 0H302.473C299.179 0 296.485 1.04781 294.539 2.24531C292.144 0.898123 289.3 0 286.157 0H217.75C213.558 0 209.517 1.49687 206.523 4.34093C204.427 6.28686 202.931 8.83154 201.883 11.6756V11.975L201.733 11.6756C200.685 8.68185 199.188 6.28686 197.093 4.34093C194.099 1.49687 190.057 0 185.866 0H116.561C112.37 0 108.328 1.49687 105.335 4.34093C103.239 6.28686 101.742 8.83154 100.694 11.6756L100.545 11.975L100.395 11.6756C99.3471 8.68185 97.8502 6.28686 95.7546 4.34093C92.9105 1.49687 88.869 0 84.6777 0H16.121C10.7323 0 5.94231 2.39499 2.94856 6.58623C-0.194867 10.9272 -0.793616 16.3159 1.00263 21.4053L52.3453 170.943L52.9441 172.14C54.2913 174.835 56.3869 177.23 58.9316 178.726C61.4762 180.223 64.47 181.121 67.6134 181.121H134.074C140.062 181.121 146.948 177.679 149.343 170.045L151.438 164.057L153.833 170.943L154.432 172.14C155.779 174.835 157.875 177.23 160.419 178.726C162.964 180.223 165.958 181.121 169.101 181.121H235.562C241.55 181.121 248.435 177.679 250.83 170.045L286.606 65.1139V164.955C286.606 174.984 294.988 181.121 302.772 181.121H371.628C375.969 181.121 380.31 179.176 383.453 175.882C383.902 176.331 384.202 176.631 384.651 177.08C387.645 179.625 391.387 181.121 395.279 181.121H458.596C467.428 181.121 474.463 173.936 474.463 165.105V149.537L538.529 179.325C541.074 180.523 543.768 181.271 546.463 181.271C549.606 181.271 552.6 180.373 555.294 178.577C559.785 175.583 562.479 170.344 562.479 164.806V16.0165C562.479 7.18498 555.294 0 546.463 0ZM232.569 161.063H171.646L151.289 102.087L131.23 161.063H70.1581L21.8091 20.2078H82.1331L100.545 76.6398L118.956 20.2078H183.322L201.733 76.6398L220.145 20.2078H280.319L232.569 161.063ZM367.437 161.063H306.514V20.2078H367.437V161.063ZM542.271 158.818L464.733 122.743C462.338 121.546 460.093 121.546 458.147 122.594C455.752 123.791 454.405 126.186 454.405 129.03V160.914H399.17V22.1537L477.008 57.9289C479.403 59.1264 481.498 59.1264 483.594 58.0786C485.989 56.8811 487.336 54.4861 487.336 51.6421V20.2078H542.271V158.818Z" fill="white"/>
</svg>
