<?xml version="1.0" encoding="UTF-8"?>
<svg width="64px" height="100px" viewBox="0 0 64 100" version="1.1" xmlns="http://www.w3.org/2000/svg" xmlns:xlink="http://www.w3.org/1999/xlink">
    <!-- Generator: Sketch 46 (44423) - http://www.bohemiancoding.com/sketch -->
    <title>logos/windingtree_dark</title>
    <desc>Created with Sketch.</desc>
    <defs></defs>
    <g id="Page-1" stroke="none" stroke-width="1" fill="none" fill-rule="evenodd">
        <g id="WT_landing_B-Copy" transform="translate(-30.000000, -10.000000)" fill="#202020">
            <g id="Logo" transform="translate(30.000000, 10.000000)">
                <g id="logos/windingtree_dark">
                    <path d="M48.8673601,31.6035777 C47.1598831,31.6035777 45.4463075,33.6667644 42.497189,34.2402628 C42.6522329,34.3529687 42.8357759,34.472125 43.0886312,34.6180211 C47.3150443,37.0581452 52.3905634,36.6610357 56.1414068,34.0359613 C54.1115275,32.5151938 51.5989245,31.6035777 48.8673601,31.6035777 M61.026698,43.7629156 C61.026698,40.7143438 59.8967068,37.9350465 58.0432165,35.8009054 C53.4741117,39.2596048 47.132205,39.7945181 41.822009,36.8118576 C39.9986596,35.7877701 39.8613249,34.9012519 38.6691754,33.9903395 C38.4220668,33.8016362 37.8763638,32.8578855 38.2024017,32.1703911 C44.7891886,32.9334137 44.4141278,29.0703335 48.8673601,29.0703335 C52.1252764,29.0703335 55.1335039,30.1334751 57.5696405,31.9283256 C58.3683161,32.5784076 59.2183603,33.3265357 59.9340018,34.0716144 C59.9290761,34.076892 59.9243849,34.0824041 59.9194591,34.0876817 C62.1842499,36.6726464 63.559825,40.0561694 63.559825,43.7629156 C63.559825,51.8232063 57.0690902,58.3663651 49.0293235,58.4533867 C49.1833119,57.5956021 49.2970734,56.7208119 49.3726016,55.9111119 C55.8534848,55.6460595 61.026698,50.3090064 61.026698,43.7629156 M44.130076,54.9646637 C44.3192484,52.6006543 43.8223338,50.1580673 42.5459774,47.9472253 C41.6168866,46.3380288 38.6682372,45.9369318 36.7186946,43.3556028 C36.7122442,43.4751109 36.7079049,43.605057 36.7079049,43.7629156 C36.7079049,48.7978559 39.7682047,53.117741 44.130076,54.9646637 M34.5863128,43.7629156 C34.5863128,42.5963332 34.956448,40.8181364 35.5149345,39.6697324 C35.7906594,39.4820847 36.0381198,39.0500258 36.7226822,38.9946697 C39.3552624,45.0804372 42.5132563,42.8240906 44.7398138,46.6807204 C45.8892734,48.6717801 46.5154304,50.8187046 46.6659004,52.9658636 C46.6117172,54.4238864 46.4267669,56.718349 45.9820418,58.5074527 C45.5547914,59.8381097 44.9468127,61.1125895 44.1530629,62.2819867 C43.8330062,62.6815591 43.6586111,62.8710833 43.4993451,63.0271827 L28.6742367,77.8524084 C28.1945623,78.3319656 27.416997,78.3319656 26.9373225,77.8524084 C26.457648,77.3727339 26.457648,76.5950513 26.9373225,76.1153768 L41.7223212,61.3303782 C42.5989879,60.1646167 43.25036,58.8581194 43.6609567,57.4813715 C38.2579924,55.3648225 34.5863128,50.0228437 34.5863128,43.7629156 M29.759427,70.7593244 C29.2797525,71.2389989 28.5021872,71.2389989 28.0225127,70.7593244 L22.3774828,65.1142945 C22.342768,65.0795797 22.3160282,65.0404082 22.2863564,65.0027614 C21.1309156,63.9827787 20.1047171,62.781716 19.2914988,61.3731853 C19.1940392,61.2044196 19.10174,61.0341293 19.0119036,60.8631353 C19.8686328,60.628693 20.7138685,60.3541409 21.4693851,60.0774778 C21.4748973,60.0870947 21.479823,60.0969462 21.4853352,60.1065632 C22.3082877,61.5543826 22.9770173,62.2532531 24.4112323,63.6742155 L29.759427,69.0224102 C30.2391015,69.5019674 30.2391015,70.2796499 29.759427,70.7593244 M26.9373225,82.1950458 L35.622011,73.51024 C36.1016855,73.0305656 36.879368,73.0305656 37.3590425,73.51024 C37.838717,73.9899145 37.838717,74.7674798 37.3590425,75.2471543 L28.6742367,83.9320773 C28.1945623,84.4116345 27.416997,84.4116345 26.9373225,83.9320773 C26.457648,83.4524028 26.457648,82.6747203 26.9373225,82.1950458 M26.9373225,88.2747147 L35.622011,79.589909 C36.1016855,79.1102345 36.879368,79.1102345 37.3590425,79.589909 C37.838717,80.0695835 37.838717,80.847266 37.3590425,81.3269405 L28.6742367,90.011629 C28.1945623,90.4913035 27.416997,90.4913035 26.9373225,90.011629 C26.457648,89.5320718 26.457648,88.7545065 26.9373225,88.2747147 M34.536938,93.2693107 C35.0164952,92.7896362 35.7941778,92.7896362 36.2738523,93.2693107 C36.2738523,93.2693107 36.8406657,93.6403841 39.7482671,96.4783214 C40.5131662,97.2432204 40.8580861,97.466873 42.3197446,97.466873 L45.5741425,97.466873 C46.2737167,97.466873 46.8407647,98.033921 46.8407647,98.7334951 C46.8407647,99.432952 46.2737167,100 45.5741425,100 L42.2810423,100 C39.7476807,100 39.530713,100 37.214671,97.6838407 L34.536938,95.0061077 C34.0572635,94.5265505 34.0572635,93.7488679 34.536938,93.2693107 M18.7222225,97.466873 L21.9766204,97.466873 C23.4382789,97.466873 23.7831988,97.2432204 24.5480979,96.4783214 C27.4556993,93.6403841 35.622011,85.6695779 35.622011,85.6695779 C36.1016855,85.1899035 36.879368,85.1899035 37.3590425,85.6695779 C37.838717,86.1492524 37.838717,86.926935 37.3590425,87.4066095 L27.0818113,97.6838407 C24.7655347,100 24.548567,100 22.0153227,100 L18.7222225,100 C18.0226483,100 17.4556003,99.432952 17.4556003,98.7334951 C17.4556003,98.033921 18.0226483,97.466873 18.7222225,97.466873 M19.8936134,54.8255699 C22.1913598,53.8224755 24.2052889,52.1152331 25.5550625,49.7774943 C26.3803606,48.3478532 25.5321929,45.9503017 26.3584293,43.2256567 C26.2424395,43.3076353 26.1108516,43.3955952 25.9359873,43.4965731 C21.7917874,45.8893162 19.6027594,50.3529864 19.8936134,54.8255699 M4.23206529,38.0979481 C1.24905289,43.8369192 3.28796268,50.9620205 8.94507242,54.2280291 C11.6095528,55.7665059 14.6116818,56.1698312 17.4086884,55.6087645 C16.80458,50.001616 19.4712887,44.3039275 24.6693652,41.3027367 C25.6796136,40.7195041 26.7329038,40.2858033 27.8035513,39.9643393 C28.0639125,39.8913912 28.5266987,39.5736802 28.8814702,39.3258679 C29.4384321,39.3595272 29.9558707,39.6198884 30.396491,40.258008 C26.4424016,45.5807529 29.9753391,47.1876038 27.7488989,51.0441164 C26.007528,54.0600844 23.3554793,56.2180332 20.3427951,57.3862576 C19.5454096,57.656353 18.6993529,57.909912 17.8963379,58.093455 C17.8962206,58.0929858 17.8961034,58.092634 17.8959861,58.0921649 C17.0915638,58.2529555 16.2728333,58.3457239 15.4491771,58.3716427 C15.3603962,58.3690625 15.2738437,58.370939 15.1890504,58.3773894 C12.6388006,58.4129252 10.0482065,57.790052 7.67833301,56.4218656 C0.6740299,52.3779399 -1.74017534,43.4379332 2.26152964,36.4209639 C2.92732722,37.0372694 3.60977853,37.6128788 4.23206529,38.0979481 M14.8125822,36.1900399 C16.6177533,36.1900399 18.4248008,33.8775163 21.6974944,33.4646913 C21.5351791,33.3951444 21.3481178,33.3081227 21.104293,33.1673869 C16.7757292,30.6682711 11.5516166,31.1372731 7.77731718,33.9362735 C9.76438929,35.3501991 12.1880942,36.1900399 14.8125822,36.1900399 M14.8125822,11.8712468 C8.09713927,11.8712468 2.65312698,17.3151418 2.65312698,24.0305847 C2.65312698,27.1954981 3.87248534,30.0685021 5.85392802,32.2318458 C10.4409766,28.5655611 16.9786233,27.8603575 22.3709152,30.9735505 C23.3220546,31.5278149 24.2906687,32.9124206 25.5270326,33.8450298 C25.7763695,34.3441727 25.809677,34.9224795 25.4774232,35.6231092 C18.8906363,34.860204 19.2656972,38.7232842 14.8125822,38.7232842 C11.4498177,38.7232842 8.35292657,37.5909474 5.87679758,35.6904278 L5.87503839,35.6924216 C5.2406718,35.1663043 4.58249741,34.5835408 3.99257988,33.994327 C3.9965674,33.9897531 4.00032035,33.9849446 4.00430787,33.9803707 C1.59362102,31.3630368 0.119999997,27.8695053 0.119999997,24.0305847 C0.119999997,15.9161108 6.69799093,9.33800257 14.8125822,9.33800257 C15.0075012,9.33800257 15.2012475,9.34328016 15.3944074,9.35090335 C15.1614896,10.2267491 14.9723173,11.0973173 14.8349826,11.8715987 C14.827594,11.8715987 14.8199708,11.8712468 14.8125822,11.8712468 M21.6623105,20.7738412 C22.5016822,22.2277592 25.0721041,22.6879653 27.0319673,24.8582285 C27.0037029,24.6494704 26.9719201,24.4042383 26.9719201,24.0305847 C26.9719201,19.2321979 24.1853514,15.095152 20.1484624,13.117345 C19.8112829,15.6780327 20.2711371,18.3640926 21.6623105,20.7738412 M26.1129626,4.16373388 C23.5172082,5.66245279 21.6895194,7.9756801 20.7528054,10.5926622 C25.9072538,12.874693 29.5051643,18.0309006 29.5051643,24.0305847 C29.5051643,25.1971672 29.3541079,26.3261028 29.0971478,27.414225 C29.0252553,27.9098496 28.9701337,28.3644262 29.0503532,28.8803401 C28.7428454,29.345941 28.258597,29.6638867 27.485723,29.7263968 C24.8530254,23.6406293 21.6951488,25.8968586 19.468474,22.0403461 C17.7327326,19.0341123 17.1842148,15.6700577 17.670457,12.486145 C17.8466113,11.6072499 18.0712022,10.6536477 18.341884,9.76759858 C18.3456369,9.76865409 18.3495072,9.76935777 18.3532601,9.77029601 C19.4814921,6.5943583 21.6987845,3.78714836 24.8464578,1.97001472 C31.7700723,-2.0273509 40.5912745,0.254210853 44.7305487,7.04307092 C43.8589251,7.30870972 43.0134548,7.61011888 42.2767029,7.90507764 C38.7414198,2.64343549 31.6845753,0.946982791 26.1129626,4.16373388 M44.2270664,12.9908001 C41.9593437,13.9982338 39.9735617,15.6946865 38.6378617,18.0080311 C37.6773399,19.6717627 39.1164807,22.5067679 37.466119,25.7257474 C37.6525939,25.6313371 37.7562693,25.5223841 38.2723005,25.2243761 C42.6963301,22.670256 44.8996662,17.7565831 44.2270664,12.9908001 M61.8924577,31.4339911 C61.8423792,31.5206609 61.7904242,31.6056888 61.7387038,31.6909512 C61.0980041,31.0794542 60.4270462,30.4975117 59.7976054,29.9907455 C63.0148256,24.2018133 61.0050012,16.8812065 55.2478518,13.5573789 C52.5486566,11.9988473 49.503134,11.6063117 46.6754001,12.2004513 C47.6892842,18.0928244 45.192514,23.9937589 39.7237556,27.1776716 C39.0687478,27.5590656 36.4016873,28.1263481 35.5246687,28.2385849 C34.9677068,28.2050429 34.2369362,28.1656369 33.7964332,27.5275173 C37.7505226,22.2046551 34.2174678,20.5979215 36.4440253,16.7414089 C38.126639,13.8271225 40.6625807,11.7219496 43.549189,10.5282755 C44.3439944,10.238008 45.2008408,9.95747462 46.0240279,9.74402533 C46.0250835,9.74660549 46.0260217,9.74930292 46.0269599,9.75188308 C49.4800299,8.9942554 53.2117567,9.45668976 56.5144739,11.3635425 C63.5418811,15.4208381 65.949636,24.4067011 61.8924577,31.4339911" id="Fill-1"></path>
                </g>
            </g>
        </g>
    </g>
</svg>