<?xml version="1.0" encoding="UTF-8"?>
<svg width="250px" height="250px" viewBox="0 0 250 250" version="1.1" xmlns="http://www.w3.org/2000/svg" xmlns:xlink="http://www.w3.org/1999/xlink">
    <!-- Generator: Sketch 46 (44423) - http://www.bohemiancoding.com/sketch -->
    <title>Illustrations/WTFoundation</title>
    <desc>Created with Sketch.</desc>
    <defs>
        <linearGradient x1="50.0463254%" y1="91.0401476%" x2="50.0463254%" y2="-8.68066837%" id="linearGradient-1">
            <stop stop-color="#5FD7B1" offset="0%"></stop>
            <stop stop-color="#87EA81" offset="100%"></stop>
        </linearGradient>
        <linearGradient x1="49.8419933%" y1="91.046934%" x2="49.8419933%" y2="-8.59835123%" id="linearGradient-2">
            <stop stop-color="#5FD7B1" offset="0%"></stop>
            <stop stop-color="#87EA81" offset="100%"></stop>
        </linearGradient>
    </defs>
    <g id="Symbols" stroke="none" stroke-width="1" fill="none" fill-rule="evenodd">
        <g id="Illustrations/WTFoundation">
            <g>
                <rect id="Bounds" x="0" y="0" width="250" height="250"></rect>
                <g id="WTFoundation" transform="translate(6.000000, 16.000000)">
                    <circle id="Oval" fill="#FFFFFF" fill-rule="nonzero" cx="119.3" cy="78.6" r="75"></circle>
                    <path d="M119.1,142.1 C84.1,142.1 55.6,113.6 55.6,78.6 L57.6,78.6 C57.6,112.5 85.2,140.1 119.1,140.1 C153,140.1 180.6,112.5 180.6,78.6 L182.6,78.6 C182.6,113.6 154.1,142.1 119.1,142.1 Z" id="Shape" fill="#9CE2E2" fill-rule="nonzero"></path>
                    <circle id="Oval" fill="#FFFFFF" fill-rule="nonzero" cx="10.1" cy="197.6" r="8.6"></circle>
                    <circle id="Oval" fill="#FFFFFF" fill-rule="nonzero" cx="227.9" cy="197.6" r="8.6"></circle>
                    <rect id="Rectangle-path" fill="#5742BC" fill-rule="nonzero" x="44.1" y="77.6" width="25" height="2"></rect>
                    <rect id="Rectangle-path" fill="#5742BC" fill-rule="nonzero" x="169.1" y="77.6" width="25" height="2"></rect>
                    <path d="M119.1,154.6 C77.2,154.6 43.1,120.5 43.1,78.6 C43.1,36.7 77.2,2.6 119.1,2.6 C161,2.6 195.1,36.7 195.1,78.6 C195.1,120.5 161,154.6 119.1,154.6 Z M119.1,4.6 C78.3,4.6 45.1,37.8 45.1,78.6 C45.1,119.4 78.3,152.6 119.1,152.6 C159.9,152.6 193.1,119.4 193.1,78.6 C193.1,37.8 159.9,4.6 119.1,4.6 Z" id="Shape" fill="#2C378C" fill-rule="nonzero"></path>
                    <g id="Group" transform="translate(53.000000, 12.000000)" fill-rule="nonzero" fill="#2C378C">
                        <path d="M12.3,49.2 L12.3,49.4 L12.3,49.4 C12.3,49.4 12.3,49.5 12.3,49.6 L12.3,49.6 C12.3,49.6 12.3,49.7 12.3,49.7 C12.3,49.8 12.3,49.8 12.2,49.8 L12.2,49.8 C12.2,49.9 12.1,49.9 12.1,49.9 C12.1,49.9 12.1,49.9 12.1,49.9 C12.1,49.9 12,49.9 12,50 L12,50 C12,50 11.9,50.1 11.8,50.1 C11.7,50.1 11.7,50.1 11.7,50.1 L11.7,50.1 C11.7,50.1 11.7,50.1 11.6,50.1 C11.6,50.1 11.5,50.1 11.5,50.1 L1.4,50.2 C1.2,50.2 1,50.1 0.8,49.9 C0.6,49.7 0.5,49.5 0.5,49.3 C0.5,49.1 0.6,48.9 0.7,48.7 C0.9,48.5 1.1,48.4 1.3,48.4 L9.3,48.3 L5.5,44.5 C5.2,44.2 5.2,43.9 5.3,43.5 C5.5,43.1 5.7,42.9 6.1,42.9 L11.4,42.8 L5.7,37.1 C5.5,36.9 5.4,36.7 5.4,36.5 C5.4,36.3 5.5,36.1 5.7,35.9 C5.9,35.7 6.1,35.6 6.3,35.6 C6.5,35.6 6.8,35.7 6.9,35.9 L14.1,43 C14.2,43.1 14.2,43.1 14.3,43.3 C14.3,43.3 14.3,43.3 14.3,43.3 C14.3,43.3 14.3,43.4 14.3,43.4 L14.3,43.4 L14.3,43.6 L14.3,43.6 C14.3,43.6 14.3,43.6 14.3,43.6 C14.3,43.6 14.3,43.7 14.3,43.7 L14.3,43.7 C14.3,43.7 14.3,43.8 14.3,43.8 C14.3,43.9 14.2,43.9 14.2,43.9 L14.2,43.9 C14.2,44 14.1,44 14.1,44 C14.1,44 14.1,44 14.1,44 C14.1,44 14,44 14,44.1 L14,44.1 C13.9,44.2 13.8,44.2 13.7,44.2 C13.7,44.2 13.6,44.2 13.5,44.2 L8.3,45 L12.1,48.8 C12.1,48.8 12.2,48.9 12.2,48.9 L12.3,49 C12.3,49 12.3,49 12.3,49 C12.3,49.1 12.3,49.2 12.3,49.2 L12.3,49.2 Z" id="Shape"></path>
                        <path d="M11.5,29.2 C11.3,29.1 11.2,28.9 11.1,28.6 C11.1,28.4 11.1,28.1 11.3,27.9 C11.4,27.7 11.6,27.6 11.9,27.5 C12.1,27.5 12.4,27.5 12.6,27.7 L20.2,33.3 C20.4,33.4 20.5,33.6 20.5,33.9 C20.5,34.1 20.5,34.4 20.3,34.6 C20.2,34.8 20,34.9 19.7,35 C19.5,35 19.2,35 19,34.8 L11.5,29.2 Z" id="Shape"></path>
                        <path d="M20.8,22.5 L25.3,27.4 C25.5,27.6 25.5,27.8 25.5,28 C25.5,28.2 25.4,28.4 25.2,28.6 C25,28.8 24.8,28.8 24.6,28.8 C24.4,28.8 24.2,28.7 24,28.5 L17.7,21.6 C17.5,21.4 17.4,21.1 17.5,20.9 C17.6,20.6 17.7,20.4 17.9,20.3 C18.1,20.2 18.3,20.1 18.5,20.2 L27.1,22 L22.7,17.1 C22.5,16.9 22.5,16.7 22.5,16.5 C22.5,16.3 22.6,16.1 22.8,15.9 C23,15.7 23.2,15.7 23.4,15.7 C23.6,15.7 23.8,15.8 24,16 L30.2,22.9 C30.4,23.1 30.4,23.3 30.4,23.5 C30.4,23.7 30.3,23.9 30.1,24.1 C29.9,24.3 29.7,24.3 29.4,24.3 C29.3,24.3 29.3,24.3 29.3,24.3 L20.8,22.5 Z" id="Shape"></path>
                        <path d="M36,18.9 L31.6,10.5 C31.5,10.3 31.5,10.1 31.5,9.8 C31.6,9.6 31.7,9.4 31.9,9.3 L33.6,8.4 C35,7.7 36.4,7.6 37.9,8 C39.4,8.5 40.5,9.4 41.2,10.8 C41.9,12.2 42,13.6 41.6,15.1 C41.1,16.6 40.2,17.7 38.8,18.4 L37.1,19.3 C36.9,19.4 36.7,19.4 36.4,19.4 C36.2,19.3 36.1,19.1 36,18.9 Z M33.6,10.5 L37.1,17.3 L38,16.8 C38.9,16.3 39.6,15.6 39.9,14.6 C40.2,13.6 40.1,12.6 39.6,11.7 C39.1,10.8 38.4,10.1 37.4,9.8 C36.4,9.5 35.4,9.6 34.5,10 L33.6,10.5 Z" id="Shape"></path>
                        <path d="M46.8,4 C46.7,3.8 46.8,3.5 46.9,3.3 C47,3.1 47.2,2.9 47.4,2.9 C47.6,2.8 47.9,2.9 48.1,3 C48.3,3.1 48.5,3.3 48.5,3.5 L51.1,12.6 C51.2,12.8 51.1,13.1 51,13.3 C50.9,13.5 50.7,13.7 50.5,13.7 C50.3,13.8 50,13.7 49.8,13.6 C49.6,13.5 49.4,13.3 49.4,13.1 L46.8,4 Z" id="Shape"></path>
                        <path d="M58.4,4.3 L58.9,10.9 C58.9,11.1 58.8,11.3 58.7,11.5 C58.5,11.7 58.3,11.8 58.1,11.8 C57.9,11.8 57.6,11.7 57.5,11.6 C57.3,11.4 57.2,11.2 57.2,11 L56.5,1.7 C56.5,1.4 56.5,1.2 56.8,1 C57,0.8 57.2,0.7 57.5,0.8 C57.7,0.8 57.9,0.9 58.1,1.1 L63.8,7.8 L63.3,1.2 C63.3,1 63.4,0.8 63.5,0.6 C63.6,0.4 63.9,0.3 64.1,0.3 C64.3,0.3 64.5,0.4 64.7,0.5 C64.9,0.7 65,0.9 65,1.1 L65.7,10.4 C65.7,10.6 65.6,10.9 65.5,11 C65.3,11.2 65.1,11.3 64.9,11.3 C64.7,11.3 64.4,11.2 64.2,11 C64.2,11 64.1,10.9 64.1,10.9 L58.4,4.3 Z" id="Shape"></path>
                        <path d="M81.9,11.4 C81.9,11.5 81.8,11.6 81.8,11.7 L81.8,11.7 C81.7,11.8 81.6,11.9 81.4,12 C80.2,12.6 78.9,12.8 77.6,12.5 C76,12.2 74.7,11.4 73.8,10.1 C72.9,8.8 72.6,7.3 72.9,5.8 C73.2,4.2 74,3 75.4,2.1 C76.7,1.2 78.2,0.9 79.8,1.2 C81.2,1.5 82.3,2.1 83.1,3.1 C83.3,3.3 83.3,3.5 83.3,3.8 C83.3,4.1 83.2,4.3 83,4.4 C82.8,4.6 82.6,4.6 82.3,4.6 C82,4.6 81.8,4.5 81.7,4.3 C81.1,3.6 80.3,3.1 79.2,2.9 C78.2,2.7 77.2,2.9 76.3,3.5 C75.4,4.1 74.8,4.9 74.6,6 C74.4,7.1 74.6,8.1 75.3,9 C75.9,9.9 76.8,10.5 77.9,10.7 C78.6,10.8 79.4,10.8 80.2,10.5 L80.6,8.3 L78.4,7.9 C78.2,7.9 78,7.7 77.8,7.5 C77.7,7.3 77.6,7.1 77.7,6.8 C77.8,6.5 77.9,6.4 78.1,6.2 C78.3,6 78.5,6 78.8,6.1 L81.9,6.7 C82.2,6.7 82.3,6.9 82.5,7.1 C82.6,7.3 82.7,7.5 82.6,7.8 L81.9,11.4 Z" id="Shape"></path>
                        <path d="M107,14 C107,14.2 107,14.5 106.9,14.7 C106.8,14.9 106.6,15 106.3,15.1 C106.1,15.1 105.8,15.1 105.6,15 L103.5,13.6 L98.8,20.7 C98.7,20.9 98.5,21 98.2,21.1 C98,21.1 97.7,21.1 97.5,21 C97.3,20.9 97.2,20.7 97.1,20.4 C97.1,20.2 97.1,19.9 97.2,19.7 L101.9,12.6 L99.8,11.2 C99.6,11.1 99.5,10.9 99.4,10.6 C99.4,10.4 99.4,10.1 99.5,9.9 C99.6,9.7 99.8,9.6 100.1,9.5 C100.3,9.5 100.6,9.5 100.8,9.6 L106.5,13.4 C106.8,13.5 107,13.7 107,14 Z" id="Shape"></path>
                        <path d="M113,27.5 C113.1,28.4 112.8,29.2 112.1,29.9 C111.8,30.1 111.6,30.4 111.5,30.6 C111.6,30.9 111.6,31.1 111.5,31.4 C111.4,31.7 111.1,31.8 110.8,31.9 C110.5,31.9 110.2,31.8 110,31.6 L110,31.6 C109.7,31.3 109.6,30.8 109.8,30.3 C110,29.8 110.4,29.3 111,28.7 C111.3,28.3 111.5,27.9 111.4,27.4 C111.3,27.1 111.2,26.8 111.1,26.5 L109.8,25.1 L107.3,27.5 C107.1,27.7 106.9,27.7 106.7,27.7 C106.5,27.7 106.2,27.6 106.1,27.4 C105.9,27.2 105.9,27 105.9,26.8 C105.9,26.6 106,26.4 106.2,26.2 L113.1,19.7 C113.3,19.5 113.5,19.5 113.7,19.5 C113.9,19.5 114.1,19.6 114.3,19.8 L116.3,21.9 C117,22.6 117.3,23.4 117.2,24.4 C117.2,25.3 116.8,26.2 116.1,26.9 C115,27.4 114.1,27.6 113,27.5 Z M112.2,25.2 C112.5,25.5 112.9,25.7 113.4,25.7 C113.9,25.7 114.2,25.6 114.6,25.3 C114.9,25 115.1,24.6 115.1,24.1 C115.1,23.6 115,23.2 114.7,22.9 L113.3,21.5 L110.9,23.8 L112.2,25.2 Z" id="Shape"></path>
                        <path d="M114.1,37.5 C114,37.3 113.9,37.1 114,36.8 C114.1,36.5 114.2,36.4 114.4,36.3 L122.5,31.5 C122.7,31.4 122.9,31.3 123.2,31.4 C123.4,31.5 123.6,31.6 123.7,31.8 L126.4,36.3 C126.5,36.5 126.6,36.7 126.5,37 C126.4,37.2 126.3,37.4 126.1,37.5 C125.9,37.6 125.7,37.7 125.4,37.6 C125.1,37.5 125,37.4 124.9,37.2 L122.7,33.5 L120.2,35 L122.1,38.2 C122.2,38.4 122.2,38.6 122.2,38.9 C122.2,39.2 122,39.3 121.8,39.4 C121.6,39.5 121.4,39.6 121.1,39.5 C120.9,39.4 120.7,39.3 120.6,39.1 L118.7,35.9 L116.2,37.4 L118.4,41.1 C118.5,41.3 118.5,41.5 118.5,41.8 C118.5,42.1 118.3,42.2 118.1,42.3 C117.9,42.4 117.7,42.5 117.4,42.4 C117.2,42.3 117,42.2 116.9,42 L114.1,37.5 L114.1,37.5 L114.1,37.5 Z" id="Shape"></path>
                        <path d="M119.7,48.5 C119.6,48.3 119.6,48 119.7,47.8 C119.8,47.6 120,47.4 120.2,47.4 L129.2,44.5 C129.4,44.4 129.7,44.4 129.9,44.5 C130.1,44.6 130.3,44.8 130.3,45 L131.9,50 C132,50.2 132,50.4 131.8,50.7 C131.7,50.9 131.5,51.1 131.3,51.1 C131.1,51.2 130.8,51.2 130.6,51 C130.4,50.8 130.2,50.7 130.2,50.5 L128.8,46.4 L126,47.3 L127.2,50.8 C127.3,51 127.3,51.2 127.1,51.5 C127,51.7 126.8,51.9 126.6,51.9 C126.4,52 126.1,52 125.9,51.9 C125.7,51.8 125.5,51.6 125.5,51.4 L124.3,47.9 L121.5,48.8 L123,53 C123.1,53.2 123.1,53.4 122.9,53.7 C122.7,54 122.6,54.1 122.4,54.1 C122.2,54.1 121.9,54.2 121.7,54 C121.5,53.9 121.3,53.7 121.3,53.5 L119.7,48.5 L119.7,48.5 L119.7,48.5 Z" id="Shape"></path>
                    </g>
                    <path d="M119.1,129.6 C91,129.6 68.1,106.7 68.1,78.6 C68.1,50.5 91,27.6 119.1,27.6 C147.2,27.6 170.1,50.5 170.1,78.6 C170.1,106.7 147.2,129.6 119.1,129.6 Z M119.1,29.6 C92.1,29.6 70.1,51.6 70.1,78.6 C70.1,105.6 92.1,127.6 119.1,127.6 C146.1,127.6 168.1,105.6 168.1,78.6 C168.1,51.6 146.1,29.6 119.1,29.6 Z" id="Shape" fill="#5742BC" fill-rule="nonzero"></path>
                    <path d="M150.1,72.2 C150,72.3 150,72.4 149.9,72.5 C149.2,71.9 148.6,71.3 147.9,70.8 C151.2,64.9 149.1,57.3 143.2,53.9 C140.4,52.3 137.3,51.9 134.4,52.5 C135.4,58.6 132.9,64.6 127.3,67.9 C126.6,68.3 123.9,68.9 123,69 C122.4,69 121.7,68.9 121.2,68.3 C125.3,62.8 121.6,61.2 123.9,57.2 C125.6,54.2 128.2,52 131.2,50.8 C132,50.5 132.9,50.2 133.7,50 C133.7,50 133.7,50 133.7,50 C137.2,49.2 141.1,49.7 144.5,51.7 C151.7,55.8 154.2,65 150.1,72.2 Z M131.9,53.3 C129.6,54.3 127.5,56.1 126.2,58.5 C125.2,60.2 126.7,63.1 125,66.4 C125.2,66.3 125.3,66.2 125.8,65.9 C130.3,63.2 132.6,58.2 131.9,53.3 Z M113.3,44.2 C110.6,45.7 108.8,48.1 107.8,50.8 C113.1,53.1 116.8,58.4 116.8,64.6 C116.8,65.8 116.6,67 116.4,68.1 C116.3,68.6 116.3,69.1 116.4,69.6 C116.1,70.1 115.6,70.4 114.8,70.5 C112.1,64.2 108.8,66.6 106.6,62.6 C104.8,59.5 104.3,56.1 104.8,52.8 C105,51.9 105.2,50.9 105.5,50 C105.5,50 105.5,50 105.5,50 C106.7,46.7 108.9,43.9 112.2,42 C119.3,37.9 128.4,40.2 132.6,47.2 C131.7,47.5 130.8,47.8 130.1,48.1 C126.3,42.6 119,40.9 113.3,44.2 Z M108.7,61.3 C109.6,62.8 112.2,63.3 114.2,65.5 C114.2,65.3 114.1,65 114.1,64.6 C114.1,59.7 111.2,55.4 107.1,53.4 C106.8,56 107.3,58.8 108.7,61.3 Z M101.7,52.1 C94.8,52.1 89.2,57.7 89.2,64.6 C89.2,67.9 90.5,70.8 92.5,73 C97.2,69.2 103.9,68.5 109.5,71.7 C110.5,72.3 111.5,73.7 112.7,74.7 C113,75.2 113,75.8 112.6,76.5 C105.8,75.7 106.2,79.7 101.6,79.7 C98.1,79.7 95,78.5 92.4,76.6 C92.4,76.6 92.4,76.6 92.4,76.6 C91.7,76.1 91.1,75.5 90.5,74.9 C90.5,74.9 90.5,74.9 90.5,74.9 C88,72.2 86.5,68.6 86.5,64.7 C86.5,56.4 93.3,49.6 101.6,49.6 C101.8,49.6 102,49.6 102.2,49.6 C102,50.4 101.8,51.3 101.7,52.1 C101.7,52.1 101.7,52.1 101.7,52.1 Z M101.7,77.1 C103.6,77.1 105.4,74.7 108.8,74.3 C108.6,74.2 108.4,74.1 108.2,74 C103.8,71.4 98.4,71.9 94.5,74.8 C96.5,76.2 99,77.1 101.7,77.1 Z M90.8,79.1 C87.7,85 89.8,92.3 95.6,95.7 C98.3,97.3 101.4,97.7 104.3,97.1 C103.7,91.3 106.4,85.5 111.8,82.4 C112.8,81.8 113.9,81.4 115,81 C115.3,80.9 115.7,80.6 116.1,80.3 C116.7,80.3 117.2,80.6 117.7,81.3 C113.6,86.8 117.3,88.4 115,92.4 C113.2,95.5 110.5,97.7 107.4,98.9 C106.6,99.2 105.7,99.4 104.9,99.6 L104.9,99.6 C104.1,99.8 103.2,99.9 102.4,99.9 C102.3,99.9 102.2,99.9 102.1,99.9 C99.5,99.9 96.8,99.3 94.4,97.9 C87.2,93.7 84.7,84.6 88.8,77.3 C89.4,78 90.1,78.6 90.8,79.1 Z M106.9,96.3 C109.3,95.3 111.3,93.5 112.7,91.1 C113.5,89.6 112.7,87.2 113.5,84.4 C113.4,84.5 113.2,84.6 113.1,84.7 C108.8,87.1 106.6,91.7 106.9,96.3 Z M114.1,130.6 L123,121.7 C123.5,121.2 124.3,121.2 124.8,121.7 C125.3,122.2 125.3,123 124.8,123.5 L115.9,132.4 C115.4,132.9 114.6,132.9 114.1,132.4 C113.6,131.9 113.6,131.1 114.1,130.6 Z M114.1,124.4 L123,115.5 C123.5,115 124.3,115 124.8,115.5 C125.3,116 125.3,116.8 124.8,117.3 L115.9,126.2 C115.4,126.7 114.6,126.7 114.1,126.2 C113.6,125.7 113.6,124.9 114.1,124.4 Z M117,112.6 C116.5,113.1 115.7,113.1 115.2,112.6 L109.4,106.8 C109.4,106.8 109.3,106.7 109.3,106.7 C108.1,105.7 107.1,104.4 106.2,103 C106.1,102.8 106,102.7 105.9,102.5 C106.8,102.3 107.6,102 108.4,101.7 C108.4,101.7 108.4,101.7 108.4,101.7 C109.2,103.2 109.9,103.9 111.4,105.4 L116.9,110.9 C117.5,111.3 117.5,112.1 117,112.6 Z M122,84.9 C122,83.7 122.4,81.9 123,80.7 C123.3,80.5 123.5,80.1 124.2,80 C126.9,86.3 130.2,83.9 132.4,87.9 C133.6,89.9 134.2,92.2 134.4,94.4 C134.3,95.9 134.2,98.3 133.7,100.1 C133.3,101.5 132.6,102.8 131.8,104 C131.5,104.4 131.3,104.6 131.1,104.8 L115.9,120 C115.4,120.5 114.6,120.5 114.1,120 C113.6,119.5 113.6,118.7 114.1,118.2 L129.3,103 C130.2,101.8 130.9,100.5 131.3,99 C125.8,96.8 122,91.3 122,84.9 Z M131.8,96.4 C132,94 131.5,91.5 130.2,89.2 C129.2,87.5 126.2,87.1 124.2,84.5 C124.2,84.6 124.2,84.8 124.2,84.9 C124.2,90.1 127.3,94.5 131.8,96.4 Z M149.2,84.9 C149.2,81.8 148,78.9 146.1,76.7 C141.4,80.3 134.9,80.8 129.4,77.7 C127.5,76.6 127.4,75.7 126.2,74.8 C125.9,74.6 125.4,73.6 125.7,72.9 C132.5,73.7 132.1,69.7 136.7,69.7 C140,69.7 143.1,70.8 145.6,72.6 C146.4,73.3 147.3,74 148,74.8 C148,74.8 148,74.8 148,74.8 C150.3,77.5 151.7,80.9 151.7,84.7 C151.7,93 145,99.7 136.8,99.8 C137,98.9 137.1,98 137.2,97.2 C143.8,97.1 149.2,91.6 149.2,84.9 Z M136.7,72.4 C134.9,72.4 133.2,74.5 130.2,75.1 C130.4,75.2 130.5,75.3 130.8,75.5 C135.1,78 140.4,77.6 144.2,74.9 C142.1,73.3 139.5,72.4 136.7,72.4 Z" id="Shape" fill="#2C378C"></path>
                    <g id="Group" transform="translate(21.000000, 0.000000)" fill-rule="nonzero">
                        <path d="M190.3,92.1 C189.2,93.1 188.3,94.1 187.5,95.2 C186.9,96 186.4,96.7 185.9,97.6 C187.1,91.7 187.8,85.6 187.8,79.4 C187.8,79.4 187.8,79.3 187.8,79.3 C187.9,79.3 188.1,79.3 188.2,79.2 C188.6,79.1 189.1,79 189.5,78.8 C190.3,78.5 191,78.1 191.6,77.6 C192.9,76.6 193.9,75.4 194.5,74 C195.2,72.6 195.5,71 195.4,69.3 C195.2,67.7 194.7,65.9 193.2,64.6 C191.8,66 190.9,67 190.1,68 C189.3,69 188.7,70 188.2,71.1 C188,71.6 187.8,72.1 187.6,72.7 C187.1,65.8 185.8,59.1 183.7,52.6 C185,51.8 185.9,50.7 186.5,49.5 C187.3,48 187.6,46.3 187.6,44.6 C187.6,42.9 187.2,41.3 186.4,39.8 C185.6,38.3 184.5,37 182.8,36.1 C182.2,37.9 182,39.4 181.8,40.7 C181.6,42.1 181.6,43.3 181.6,44.6 C181.6,45.4 181.7,46.2 181.7,47.1 C179.6,41.8 177,36.7 173.9,31.9 C173.5,31.3 173.1,30.6 172.6,30 C173,29.4 173.2,28.8 173.3,28.2 C173.5,27.3 173.5,26.5 173.4,25.6 C173.3,24.7 172.9,23.9 172.4,23.1 C171.9,22.3 171.2,21.5 170.1,21.2 C169.7,22.3 169.5,23.1 169.4,23.9 C169.3,24.5 169.3,25 169.4,25.5 C165.7,20.7 161.5,16.2 156.9,12.3 C157.2,11.8 157.3,11.3 157.4,10.8 C157.5,10 157.5,9.1 157.2,8.4 C157,7.6 156.6,6.9 156,6.3 C155.4,5.7 154.7,5.2 153.8,5 C153.8,6 153.9,6.7 154,7.4 C154.1,8.1 154.3,8.7 154.4,9.3 C154.5,9.8 154.7,10.2 154.9,10.7 C150,6.7 144.6,3.2 138.9,0.4 C138.4,0.1 137.7,0.4 137.4,0.9 C137.2,1.3 137.4,1.9 137.8,2.1 C145.8,6.1 153,11.2 159.4,17.4 C159,17.3 158.6,17.2 158.2,17.1 C157.5,17 156.7,17 155.9,17.1 C155.1,17.2 154.3,17.5 153.2,18 C153.7,19.1 154.4,19.7 155.2,20.2 C156,20.7 156.8,20.9 157.7,21.1 C158.6,21.2 159.4,21.2 160.3,20.9 C160.9,20.7 161.5,20.4 162,20 C165.8,24 169.2,28.4 172.2,33 C172.8,34 173.5,35 174.1,36.1 C173.8,35.9 173.5,35.7 173.2,35.5 C172.5,35.1 171.7,34.8 170.7,34.5 C169.7,34.3 168.6,34.1 167,34.1 C166.7,35.7 167.1,37 167.7,38.1 C168.3,39.2 169.1,40 170.2,40.6 C171.2,41.2 172.4,41.6 173.7,41.5 C174.7,41.5 175.7,41.2 176.7,40.6 C179.5,46.1 181.6,51.8 183.1,57.8 C183,57.7 183,57.7 182.9,57.6 C182.1,56.7 181.1,56 180,55.4 C178.8,54.8 177.5,54.4 175.8,54.3 C175.7,56 176.1,57.4 176.5,58.6 C177,59.8 177.7,60.8 178.5,61.7 C179.3,62.6 180.3,63.4 181.4,64 C182.3,64.5 183.3,64.8 184.6,65 C185.4,69.8 185.8,74.6 185.8,79.5 C185.8,81.5 185.7,83.5 185.6,85.4 C185.5,85 185.4,84.6 185.2,84.2 C184.8,83.2 184.3,82.2 183.6,81.2 C182.9,80.2 182,79.2 180.7,78.1 C179.6,79.5 179.2,80.9 179.1,82.3 C179,83.7 179.2,85.1 179.7,86.4 C180.2,87.7 181,88.9 182.1,89.9 C182.9,90.6 183.9,91.2 185.1,91.5 C184.4,96.8 183.1,102 181.5,107 C181.4,106.5 181.3,105.9 181.1,105.3 C180.8,104.5 180.3,103.7 179.5,102.7 C178.3,103.3 177.7,104.1 177.2,105 C176.8,105.9 176.6,106.8 176.6,107.7 C176.6,108.6 176.9,109.6 177.5,110.5 C178,111.2 178.7,111.8 179.6,112.2 C173.3,127.6 162.7,141.1 148.7,150.8 L149.8,152.4 C161.6,144.3 171,133.5 177.5,121.3 C179.1,121.7 180.5,121.7 181.9,121.4 C183.5,121.1 185,120.4 186.3,119.6 C187.6,118.7 188.8,117.5 189.7,116.1 C190.6,114.7 191.2,113 191.1,110.9 C189,111 187.5,111.5 186.1,111.9 C184.7,112.4 183.5,113 182.4,113.8 C181.7,114.3 181,114.9 180.3,115.5 C182,111.8 183.4,107.9 184.5,103.9 C186.2,104 187.7,103.6 189.1,102.9 C190.7,102.1 192.1,100.9 193.2,99.5 C194.3,98.1 195.1,96.4 195.3,94.6 C195.6,92.8 195.5,90.9 194.5,89 C192.6,90.1 191.4,91.1 190.3,92.1 Z" id="Shape" fill="url(#linearGradient-1)"></path>
                        <path d="M57.1,0.3 C51.4,3.2 46,6.6 41.1,10.6 C41.3,10.1 41.5,9.7 41.6,9.2 C41.8,8.6 41.9,8 42,7.3 C42.1,6.6 42.2,5.9 42.2,4.9 C41.2,5.1 40.5,5.6 40,6.2 C39.4,6.8 39,7.6 38.8,8.3 C38.6,9.1 38.5,9.9 38.6,10.7 C38.7,11.2 38.8,11.7 39.1,12.2 C34.5,16.2 30.3,20.6 26.6,25.4 C26.6,24.9 26.6,24.3 26.6,23.8 C26.5,23 26.3,22.2 25.9,21.1 C24.8,21.5 24.1,22.3 23.6,23 C23.1,23.8 22.8,24.6 22.6,25.5 C22.5,26.4 22.5,27.2 22.7,28.1 C22.8,28.7 23.1,29.3 23.4,29.9 C23,30.5 22.6,31.2 22.1,31.8 C19,36.6 16.4,41.7 14.3,47 C14.4,46.2 14.4,45.4 14.4,44.5 C14.4,43.3 14.3,42 14.2,40.6 C14,39.2 13.8,37.8 13.2,36 C11.5,36.8 10.4,38.2 9.6,39.7 C8.8,41.2 8.4,42.8 8.4,44.5 C8.4,46.2 8.7,47.8 9.5,49.4 C10.1,50.6 11.1,51.7 12.3,52.5 C10.3,59 9,65.8 8.4,72.6 C8.2,72.1 8,71.5 7.8,71 C7.3,70 6.7,69 5.9,68 C5.1,67 4.2,66 2.8,64.6 C1.2,65.9 0.7,67.7 0.6,69.3 C0.5,71 0.8,72.6 1.5,74 C2.2,75.4 3.2,76.7 4.4,77.6 C5,78.1 5.8,78.5 6.5,78.8 C6.9,78.9 7.3,79.1 7.8,79.2 C7.9,79.2 8.1,79.3 8.2,79.3 C8.2,79.3 8.2,79.4 8.2,79.4 C8.2,85.6 8.9,91.7 10.1,97.6 C9.6,96.7 9.1,96 8.5,95.2 C7.7,94.1 6.8,93.1 5.7,92.1 C4.6,91.1 3.4,90.1 1.6,89 C0.6,90.9 0.5,92.8 0.8,94.6 C1.1,96.4 1.9,98.1 2.9,99.5 C4,100.9 5.3,102.1 7,102.9 C8.4,103.5 9.9,104 11.6,103.9 C12.7,107.9 14.1,111.7 15.8,115.5 C15.1,114.9 14.5,114.3 13.7,113.8 C12.6,113 11.4,112.4 10,111.9 C8.6,111.4 7.1,111 5,110.9 C4.9,113 5.5,114.7 6.4,116.1 C7.3,117.5 8.4,118.7 9.8,119.6 C11.1,120.5 12.6,121.2 14.2,121.4 C15.6,121.6 17,121.7 18.6,121.3 C25.1,133.5 34.6,144.3 46.3,152.4 L47.4,150.8 C33.4,141.1 22.7,127.6 16.5,112.2 C17.4,111.8 18.1,111.2 18.6,110.5 C19.2,109.6 19.5,108.7 19.5,107.7 C19.5,106.8 19.3,105.8 18.9,105 C18.4,104.1 17.8,103.3 16.6,102.7 C15.8,103.7 15.3,104.5 15,105.3 C14.8,105.9 14.6,106.4 14.6,107 C12.9,102 11.7,96.8 11,91.5 C12.2,91.2 13.2,90.6 14,89.9 C15.1,88.9 15.9,87.7 16.4,86.4 C16.9,85.1 17.1,83.7 17,82.3 C16.9,80.9 16.5,79.5 15.4,78.1 C14,79.2 13.2,80.2 12.5,81.2 C11.8,82.2 11.3,83.2 10.9,84.2 C10.7,84.6 10.6,85 10.5,85.4 C10.4,83.4 10.3,81.5 10.3,79.5 C10.3,74.6 10.7,69.7 11.5,65 C12.7,64.8 13.7,64.5 14.7,64 C15.8,63.4 16.8,62.6 17.6,61.7 C18.4,60.8 19.1,59.8 19.6,58.6 C20.1,57.4 20.4,56.1 20.3,54.3 C18.6,54.4 17.3,54.8 16.1,55.4 C15,56 14,56.8 13.2,57.6 C13.1,57.7 13.1,57.7 13,57.8 C14.5,51.9 16.7,46.1 19.4,40.6 C20.4,41.2 21.4,41.5 22.4,41.5 C23.7,41.5 24.9,41.2 25.9,40.6 C26.9,40 27.8,39.1 28.4,38.1 C29,37 29.3,35.7 29.1,34.1 C27.5,34.1 26.4,34.2 25.4,34.5 C24.4,34.7 23.6,35.1 22.9,35.5 C22.6,35.7 22.3,35.9 22,36.1 C22.6,35.1 23.2,34 23.9,33 C26.9,28.3 30.3,24 34.1,20 C34.7,20.4 35.3,20.7 35.8,20.9 C36.7,21.2 37.5,21.2 38.4,21.1 C39.3,21 40.1,20.7 40.9,20.2 C41.7,19.7 42.4,19.1 42.9,18 C41.9,17.5 41,17.2 40.2,17.1 C39.4,17 38.6,17 37.9,17.1 C37.5,17.1 37.1,17.2 36.7,17.4 C43.1,11.3 50.3,6.1 58.3,2.1 C58.7,1.9 58.9,1.4 58.7,0.9 C58.3,0.2 57.6,1.33226763e-15 57.1,0.3 Z" id="Shape" fill="url(#linearGradient-2)"></path>
                    </g>
                    <polygon id="Shape" fill="#3DE0C0" fill-rule="nonzero" points="15.8 213.9 17.3 215.3 46.2 185.3 81 215.4 82.3 213.9 46 182.6"></polygon>
                    <polygon id="Shape" fill="#9CE2E2" fill-rule="nonzero" points="73 203.2 74.6 204.5 86.1 195.2 111.1 216.2 112.3 214.6 86.2 192.7"></polygon>
                    <polygon id="Shape" fill="#3DE0C0" fill-rule="nonzero" points="192 182.6 155.7 213.9 157 215.4 191.8 185.3 220.7 215.3 222.2 213.9"></polygon>
                    <polygon id="Shape" fill="#9CE2E2" fill-rule="nonzero" points="165 203.2 151.8 192.7 125.7 214.6 126.9 216.2 151.9 195.2 163.4 204.5"></polygon>
                    <polygon id="Shape" fill="#FFFFFF" fill-rule="nonzero" points="225.6 145.2 210 145.2 210 125 28 125 28 145.2 12.4 145.2 18.9 158.1 12.4 171 48.1 171 48.1 159 189.9 159 189.9 171 225.6 171 219.1 158.1"></polygon>
                    <g id="Group" transform="translate(12.000000, 145.000000)" fill-rule="nonzero" fill="#F15A29">
                        <polygon id="Shape" points="213.6 0.2 197 0.2 197 2.2 210.3 2.2 204.8 13.1 210.3 24 182.4 24 198 14 196.9 12.4 179.9 23.2 179.9 13.1 177.9 13.1 177.9 26 213.6 26 207.1 13.1"></polygon>
                        <polygon id="Shape" points="34.1 23.2 17.1 12.4 16 14 31.6 24 3.7 24 9.2 13.1 3.7 2.2 17 2.2 17 0.2 0.4 0.2 6.9 13.1 0.4 26 36.1 26 36.1 13.1 34.1 13.1"></polygon>
                    </g>
                    <path d="M10.1,207.2 C4.8,207.2 0.5,202.9 0.5,197.6 C0.5,192.3 4.8,188 10.1,188 C15.4,188 19.7,192.3 19.7,197.6 C19.7,202.9 15.4,207.2 10.1,207.2 Z M10.1,190 C5.9,190 2.5,193.4 2.5,197.6 C2.5,201.8 5.9,205.2 10.1,205.2 C14.3,205.2 17.7,201.8 17.7,197.6 C17.7,193.4 14.3,190 10.1,190 Z" id="Shape" fill="#A5EF56" fill-rule="nonzero"></path>
                    <rect id="Rectangle-path" fill="#CE4E73" fill-rule="nonzero" x="9.1" y="197.6" width="2" height="20.1"></rect>
                    <path d="M227.9,207.2 C222.6,207.2 218.3,202.9 218.3,197.6 C218.3,192.3 222.6,188 227.9,188 C233.2,188 237.5,192.3 237.5,197.6 C237.5,202.9 233.2,207.2 227.9,207.2 Z M227.9,190 C223.7,190 220.3,193.4 220.3,197.6 C220.3,201.8 223.7,205.2 227.9,205.2 C232.1,205.2 235.5,201.8 235.5,197.6 C235.5,193.4 232.1,190 227.9,190 Z" id="Shape" fill="#A5EF56" fill-rule="nonzero"></path>
                    <rect id="Rectangle-path" fill="#CE4E73" fill-rule="nonzero" x="226.9" y="197.6" width="2" height="20.1"></rect>
                    <path d="M28,125 L28,159 L210,159 L210,125 L28,125 Z M208,157 L30,157 L30,127 L208,127 L208,157 Z" id="Shape" fill="#EE2A7B" fill-rule="nonzero"></path>
                    <g id="Group" transform="translate(51.000000, 136.000000)" fill-rule="nonzero" fill="#2C378C">
                        <path d="M1.7,11.5 C1.5,11.7 1.3,11.8 1.1,11.8 C0.9,11.8 0.6,11.7 0.5,11.5 C0.3,11.3 0.2,11.1 0.2,10.9 L0.2,1.5 C0.2,1.3 0.3,1 0.5,0.9 C0.7,0.7 0.9,0.6 1.1,0.6 L6.3,0.6 C6.5,0.6 6.7,0.7 6.9,0.9 C7.1,1.1 7.2,1.3 7.2,1.5 C7.2,1.7 7.1,1.9 6.9,2.1 C6.7,2.3 6.5,2.4 6.3,2.4 L2,2.4 L2,5.3 L5.7,5.3 C5.9,5.3 6.1,5.4 6.3,5.6 C6.5,5.8 6.6,6 6.6,6.2 C6.6,6.4 6.5,6.6 6.3,6.8 C6.1,7 5.9,7.1 5.7,7.1 L2,7.1 L2,10.9 C2,11.1 1.9,11.4 1.7,11.5 Z" id="Shape"></path>
                        <path d="M14.2,10.1 C13.1,9 12.6,7.6 12.6,6 C12.6,4.4 13.1,3.1 14.2,1.9 C15.3,0.8 16.6,0.2 18.1,0.2 C19.6,0.2 20.9,0.8 22,1.9 C23.1,3 23.6,4.4 23.6,6 C23.6,7.6 23.1,8.9 22,10 C21.5,10.5 20.9,11 20.3,11.3 C19.6,11.6 18.9,11.8 18.2,11.8 C16.6,11.8 15.3,11.2 14.2,10.1 Z M14.4,6 C14.4,7.1 14.8,8 15.5,8.8 C16.2,9.6 17.1,10 18.1,10 C19.1,10 20,9.6 20.7,8.8 C21.4,8 21.8,7.1 21.8,6 C21.8,4.9 21.4,4 20.7,3.2 C20,2.4 19.1,2 18.1,2 C17.1,2 16.2,2.4 15.5,3.2 C14.8,4 14.4,4.9 14.4,6 Z" id="Shape"></path>
                        <path d="M39.2,7.2 C39.2,8.5 38.7,9.6 37.8,10.5 C36.9,11.4 35.8,11.9 34.5,11.9 C33.2,11.9 32.1,11.4 31.2,10.5 C30.3,9.6 29.8,8.5 29.8,7.2 L29.8,1.5 C29.8,1.3 29.9,1 30.1,0.9 C30.3,0.7 30.5,0.6 30.7,0.6 C30.9,0.6 31.2,0.7 31.3,0.9 C31.5,1.1 31.6,1.3 31.6,1.5 L31.6,7.2 C31.6,8 31.9,8.6 32.4,9.2 C33,9.8 33.6,10 34.4,10 C35.2,10 35.9,9.7 36.4,9.2 C36.9,8.7 37.2,8 37.2,7.2 L37.2,1.5 C37.2,1.3 37.3,1 37.5,0.9 C37.7,0.8 37.9,0.6 38.1,0.6 C38.3,0.6 38.6,0.7 38.7,0.9 C38.8,1.1 39,1.3 39,1.5 L39,7.2 L39.2,7.2 Z" id="Shape"></path>
                        <path d="M48,4.3 L48,10.9 C48,11.1 47.9,11.3 47.7,11.5 C47.5,11.7 47.3,11.8 47.1,11.8 C46.9,11.8 46.7,11.7 46.5,11.5 C46.3,11.3 46.2,11.1 46.2,10.9 L46.2,1.6 C46.2,1.3 46.3,1.1 46.5,0.9 C46.7,0.7 47,0.7 47.2,0.7 C47.4,0.7 47.6,0.9 47.8,1 L53,8.2 L53,1.6 C53,1.4 53.1,1.2 53.3,1 C53.5,0.8 53.7,0.7 53.9,0.7 C54.1,0.7 54.3,0.8 54.5,1 C54.7,1.2 54.8,1.4 54.8,1.6 L54.8,10.9 C54.8,11.1 54.7,11.4 54.5,11.5 C54.3,11.6 54.1,11.8 53.9,11.8 C53.7,11.8 53.4,11.7 53.3,11.5 C53.3,11.5 53.2,11.4 53.2,11.4 L48,4.3 Z" id="Shape"></path>
                        <path d="M61.8,10.9 L61.8,1.5 C61.8,1.3 61.9,1 62.1,0.9 C62.3,0.7 62.5,0.6 62.7,0.6 L64.6,0.6 C66.1,0.6 67.5,1.1 68.6,2.2 C69.7,3.3 70.2,4.6 70.2,6.2 C70.2,7.7 69.7,9.1 68.6,10.2 C67.5,11.3 66.2,11.8 64.6,11.8 L62.7,11.8 C62.5,11.8 62.2,11.7 62.1,11.5 C61.9,11.4 61.8,11.1 61.8,10.9 Z M63.6,2.4 L63.6,10 L64.6,10 C65.7,10 66.6,9.6 67.3,8.9 C68,8.2 68.4,7.3 68.4,6.2 C68.4,5.1 68,4.2 67.3,3.5 C66.6,2.8 65.7,2.4 64.6,2.4 L63.6,2.4 L63.6,2.4 Z" id="Shape"></path>
                        <path d="M83.1,11.2 L82.3,9.1 L78.4,9.1 L77.6,11.2 C77.5,11.6 77.2,11.8 76.8,11.8 C76.4,11.8 76.2,11.7 76,11.4 C75.8,11.1 75.8,10.9 75.9,10.6 L79.4,1.2 C79.5,1 79.6,0.9 79.7,0.8 C79.9,0.7 80,0.6 80.2,0.7 C80.6,0.7 80.9,0.9 81,1.3 L84.5,10.7 C84.6,11 84.6,11.2 84.4,11.5 C84.2,11.8 84,11.9 83.6,11.9 C83.2,11.9 83.2,11.6 83.1,11.2 Z M79,7.4 L81.6,7.4 L80.3,4 L79,7.4 Z" id="Shape"></path>
                        <path d="M97.6,0.8 C97.8,1 97.9,1.2 97.9,1.4 C97.9,1.6 97.8,1.9 97.6,2 C97.4,2.2 97.2,2.3 97,2.3 L94.5,2.3 L94.5,10.8 C94.5,11 94.4,11.3 94.2,11.4 C94,11.6 93.8,11.7 93.6,11.7 C93.4,11.7 93.1,11.6 93,11.4 C92.9,11.2 92.7,11 92.7,10.8 L92.7,2.3 L90.2,2.3 C90,2.3 89.7,2.2 89.6,2 C89.4,1.8 89.3,1.6 89.3,1.4 C89.3,1.2 89.4,0.9 89.6,0.8 C89.8,0.6 90,0.5 90.2,0.5 L97,0.5 C97.2,0.6 97.5,0.7 97.6,0.8 Z" id="Shape"></path>
                        <path d="M103.9,1.5 C103.9,1.3 104,1 104.2,0.9 C104.4,0.7 104.6,0.6 104.8,0.6 C105,0.6 105.3,0.7 105.4,0.9 C105.6,1.1 105.7,1.3 105.7,1.5 L105.7,10.9 C105.7,11.1 105.6,11.4 105.4,11.5 C105.2,11.7 105,11.8 104.8,11.8 C104.6,11.8 104.3,11.7 104.2,11.5 C104,11.3 103.9,11.1 103.9,10.9 L103.9,1.5 Z" id="Shape"></path>
                        <path d="M113,10.1 C111.9,9 111.4,7.6 111.4,6 C111.4,4.4 111.9,3.1 113,1.9 C114.1,0.8 115.4,0.2 116.9,0.2 C118.4,0.2 119.7,0.8 120.8,1.9 C121.9,3 122.4,4.4 122.4,6 C122.4,7.6 121.9,8.9 120.8,10 C120.3,10.5 119.7,11 119.1,11.3 C118.4,11.6 117.7,11.8 117,11.8 C115.4,11.8 114.1,11.2 113,10.1 Z M113.2,6 C113.2,7.1 113.6,8 114.3,8.8 C115,9.6 115.9,10 116.9,10 C117.9,10 118.8,9.6 119.5,8.8 C120.2,8 120.6,7.1 120.6,6 C120.6,4.9 120.2,4 119.5,3.2 C118.8,2.4 117.9,2 116.9,2 C115.9,2 115,2.4 114.3,3.2 C113.6,4 113.2,4.9 113.2,6 Z" id="Shape"></path>
                        <path d="M130.5,4.3 L130.5,10.9 C130.5,11.1 130.4,11.3 130.2,11.5 C130,11.7 129.8,11.8 129.6,11.8 C129.4,11.8 129.2,11.7 129,11.5 C128.8,11.3 128.7,11.1 128.7,10.9 L128.7,1.6 C128.7,1.3 128.8,1.1 129,0.9 C129.2,0.7 129.5,0.7 129.7,0.7 C129.9,0.7 130.1,0.9 130.3,1 L135.5,8.2 L135.5,1.6 C135.5,1.4 135.6,1.2 135.8,1 C136,0.8 136.2,0.7 136.4,0.7 C136.6,0.7 136.8,0.8 137,1 C137.2,1.2 137.3,1.4 137.3,1.6 L137.3,10.9 C137.3,11.1 137.2,11.4 137,11.5 C136.8,11.6 136.6,11.8 136.4,11.8 C136.2,11.8 135.9,11.7 135.8,11.5 C135.8,11.5 135.7,11.4 135.7,11.4 L130.5,4.3 Z" id="Shape"></path>
                    </g>
                </g>
            </g>
        </g>
    </g>
</svg>