<svg id="Layer_1" data-name="Layer 1" xmlns="http://www.w3.org/2000/svg" viewBox="0 0 16 16"><defs><style>.cls-1{fill:#191919;}</style></defs><title>Artboard 1</title><path class="cls-1" d="M8,0a8,8,0,1,0,8,8A8,8,0,0,0,8,0Zm6,11.91-3.42-.55-.41-2.74L12,6.89l1.4,1.64,1.14,2.23A6.68,6.68,0,0,1,14,11.91Zm-6.07.39L6.21,8.58l3.5.17.4,2.66ZM1.75,7.44.91,7.21a6.94,6.94,0,0,1,.6-2.14L4,4.92,3.45,8.05Zm5.74-4.8,1.14,1L5.75,8.13H3.87l.79-4.79Zm3.73.87.6,3-2,1.82L6.25,8.15,9,3.84ZM5.72,8.56l1.73,3.83-.82.08-1.47.13-1.25-4Zm7.9-.49L12.26,6.48l-.6-3,1.79-.07a7.11,7.11,0,0,1,1.5,3ZM13.07,3l-1.68.06h0L9,3.41l-1.13-1L9,1A7.09,7.09,0,0,1,13.07,3ZM8.51.89,7.43,2.21l-2.86.7-.52-.84A7.05,7.05,0,0,1,8,.87ZM3.7,2.32l.55.88L4,4.48l-2.32.14A7.3,7.3,0,0,1,3.7,2.32ZM.88,7.65l.74.2,1.82.66,1.24,4L2,11.76A7.09,7.09,0,0,1,.87,8C.87,7.88.88,7.77.88,7.65Zm1.45,4.67,2.55.7,1.38,1.89A7.17,7.17,0,0,1,2.33,12.32ZM6.89,15,5.41,13l2.38-.21.07,0,2.27-.91v2.94A7.13,7.13,0,0,1,8,15.13,8,8,0,0,1,6.89,15Zm3.68-.39V11.8l3.11.5A7.17,7.17,0,0,1,10.57,14.65Zm4.21-4.44-.9-1.78L15.05,7a7,7,0,0,1-.27,3.24Z"/></svg>