<svg id="Layer_1" data-name="Layer 1" xmlns="http://www.w3.org/2000/svg" viewBox="0 0 32 32"><defs><style>.cls-1{fill:#fff;}</style></defs><title>Artboard 1 copy 4</title><path class="cls-1" d="M16,0A16,16,0,1,0,32,16,16,16,0,0,0,16,0ZM27.92,23.82l-6.84-1.1-.82-5.47,3.82-3.47,2.81,3.27,2.26,4.48A14.81,14.81,0,0,1,27.92,23.82Zm-12.15.78-3.36-7.45,7,.35.81,5.32ZM3.5,14.88l-1.67-.46A14.15,14.15,0,0,1,3,10.13l4.92-.29-1,6.26ZM15,5.28l2.27,2.07-5.76,8.9H7.75L9.33,6.67ZM22.45,7l1.2,6-4,3.64-7.13-.35,5.58-8.61Zm-11,10.09,3.45,7.66-1.64.15-2.93.27-2.5-8.08Zm15.79-1L24.53,13,23.32,7l3.58-.13a14.06,14.06,0,0,1,3,6ZM26.14,6l-3.37.12h0L18,6.82,15.69,4.76,18.06,1.9A14.21,14.21,0,0,1,26.14,6ZM17,1.79,14.85,4.42l-5.7,1.4L8.09,4.13A14.24,14.24,0,0,1,16,1.73C16.35,1.73,16.69,1.76,17,1.79ZM7.39,4.65l1.1,1.76L8.07,9l-4.63.28A14.43,14.43,0,0,1,7.39,4.65ZM1.77,15.3l1.47.4L6.89,17l2.48,8L3.9,23.52A14.19,14.19,0,0,1,1.73,16C1.73,15.77,1.76,15.54,1.77,15.3Zm2.9,9.33L9.75,26l2.77,3.78A14.24,14.24,0,0,1,4.67,24.63Zm9.11,5.44-3-4,4.77-.44a.27.27,0,0,0,.12,0l4.56-1.82v5.87a14,14,0,0,1-4.27.66A13.47,13.47,0,0,1,13.78,30.07Zm7.36-.78V23.61l6.22,1A14.36,14.36,0,0,1,21.14,29.29Zm8.42-8.87-1.8-3.56,2.34-2.92A14,14,0,0,1,30.27,16,14.41,14.41,0,0,1,29.56,20.42Z"/></svg>