<svg xmlns="http://www.w3.org/2000/svg" viewBox="0 0 512 512">
  <defs>
    <style>
      .cls-1 {
        fill: #333333;
      }
    </style>
  </defs>
  <path
    class="cls-1"
    d="M 438.38142,76.347553 A 256.00384,256.0039 0 1 0 254.00461,512 h 1.97238 A 256.00384,256.0039 0 0 0 438.38142,76.347553 Z M 260.89443,484.33266 v -71.4109 l 28.23472,-43.74357 24.96544,20.56137 a 4.9444542,4.9444553 0 0 0 3.13419,1.10777 4.998492,4.9984931 0 0 0 2.45872,-0.64845 l 25.55985,-14.83336 v 0 l 28.45088,-16.83277 23.85767,27.85647 a 4.9174353,4.9174364 0 0 0 3.75562,1.72921 4.8633976,4.8633987 0 0 0 2.89102,-0.94566 l 36.88076,-26.88379 12.64484,9.96997 a 228.3095,228.30955 0 0 1 -192.83371,114.0467 z m -9.80786,0 A 228.03931,228.03936 0 0 1 68.195807,385.9299 l 41.987333,-3.51246 a 4.2960012,4.2960022 0 0 0 1.02672,-0.18913 h 0.13509 a 4.2960012,4.2960022 0 0 0 1.10778,-0.5674 h 0.16211 l 21.6151,-15.26566 55.36167,20.83155 a 4.7823409,4.782342 0 0 0 1.72921,0.32423 4.8904164,4.8904176 0 0 0 3.8637,-1.89132 l 19.29148,-24.72228 36.66461,52.2275 z m 185.83583,-274.64693 -1.64815,-17.83246 0.27018,-26.85677 34.31398,10.80756 c 1.18883,3.18822 2.32362,6.43049 3.37736,9.67276 z m 39.28544,-14.42808 a 234.19961,234.19967 0 0 1 5.70098,27.01888 l -36.28634,-6.61962 z m -95.64682,-95.89001 20.77752,26.07322 -11.48302,14.69827 -44.2299,-13.50944 -0.16212,-7.86249 z m -5.40377,-38.150661 a 229.66044,229.66049 0 0 1 41.2308,32.233526 L 406.41809,116.03829 386.12691,90.586504 Z M 354.86607,291.12064 V 263.5884 l 16.96786,-3.78264 14.42808,20.53435 z m 36.34039,-2.08045 8.70008,22.12846 7.07894,18.34582 -14.96845,6.13329 -36.25933,-23.07413 -0.67548,-11.13177 z m -18.29178,-39.55564 -18.04861,4.02581 v -21.48001 l 30.96363,14.56318 -12.888,2.89102 z m -10.80755,-24.83036 63.73753,-25.69495 3.56649,36.12424 -27.96454,8.10567 z m -4.75532,-8.48392 8.56498,-31.93632 16.72469,-19.39956 37.44816,25.88409 z m 20.69646,-60.81951 -16.61661,18.91322 -15.72499,-17.77842 v -19.64273 l 37.66432,11.5911 z M 370.9423,93.558581 340.46501,110.20221 307.36689,91.721297 324.36176,72.07857 Z M 328.63074,63.216377 332.81867,40.89878 a 224.90512,224.90517 0 0 1 29.07231,12.725894 l 10.99668,29.909902 z m -25.50581,169.651553 -11.10476,-26.55956 25.74899,-17.80544 27.39714,37.39413 v 10.96967 z m 42.04137,13.86069 v 43.74357 l -40.52832,-17.83246 v -29.72077 z m -140.8494,4.18793 -29.07231,-26.64062 28.4779,-25.01948 16.53555,6.10626 13.10415,42.33859 z m 30.58537,6.43049 v 20.21012 l -34.39503,0.32423 5.80906,-17.29208 z m -122.69271,-46.12123 19.75079,-0.45932 29.72077,15.86008 -11.94235,28.4779 -34.20589,-2.45871 -1.16181,-14.42809 v 0 z m 29.96393,-6.24136 22.66883,-17.23805 27.99156,8.10567 -25.4788,22.42567 z m 33.01706,-24.317 18.91322,-12.61781 31.01767,-2.10748 -4.78235,28.96425 -16.02219,-5.75503 h -0.29721 z m 22.07443,-22.74989 v -22.50673 l 16.21132,-14.48212 15.04951,23.53344 -1.89132,11.42899 z m -6.78174,-29.72077 h -49.9579 l 18.91321,-29.31549 45.76997,16.21133 z m -3.02612,9.80785 v 22.42567 l -23.93872,15.94114 -38.63699,-24.31699 9.10536,-14.04982 h 1.16181 52.41662 z m -32.42265,44.60817 -23.69555,18.12967 -20.83155,0.59442 -7.21404,-14.64423 16.21132,-26.42447 z m -41.52801,79.73272 36.5025,2.70189 12.1585,22.34462 -24.31699,16.21133 -37.853446,-22.26356 z m 57.1179,31.15277 17.53525,-4.37705 -1.70219,18.91321 -10.80755,20.12907 -20.048,-9.64574 -9.67276,-8.61902 z m 0.51336,-10.24015 -12.77993,-23.29028 11.37495,-27.34311 27.23503,24.91141 -7.10597,21.18281 z m 113.31716,-139.33637 -12.77992,-2.35065 -9.56468,-46.985832 36.15125,3.215247 15.18461,8.564985 -20.85858,38.637 z m 23.29027,12.80695 5.70099,22.91201 -28.74809,19.83186 -26.72166,-2.21555 28.01857,-43.23021 z m -40.98763,-6.05223 8.67306,1.59411 -28.69404,44.33798 h -16.72469 l 7.91653,-47.98553 z m 15.80604,58.49587 10.80755,25.58689 -19.91291,8.10566 -16.21132,-35.6379 z m -9.99698,44.44607 v 0 l 22.18249,-8.8622 v 28.53194 l -13.72558,9.37555 -29.72076,-27.01888 19.85887,-1.81026 a 4.1338879,4.1338889 0 0 0 1.40498,-0.21615 z m 40.15005,-106.04912 h -0.37827 l -9.29449,-1.18883 18.91321,-35.12454 13.50944,7.5923 0.24317,11.51005 v 22.10144 z M 319.25519,59.947092 269.35133,46.248519 293.66832,30.7667 a 224.66195,224.662 0 0 1 29.72076,6.99789 z m -4.97147,8.808155 -16.61661,19.183406 -36.77268,-3.269284 V 54.056976 Z m -53.01103,71.762153 -24.64121,-1.75623 -16.50854,-25.77601 8.51095,-21.236844 23.26325,2.080453 z m -10.18612,-56.739655 -23.02008,-2.026416 -19.50762,-26.721674 15.42777,-25.181597 5.40378,-0.702491 21.6151,20.615407 z m -51.49797,-32.85496 -22.39865,4.620229 -4.8634,-12.07744 A 227.57999,227.58004 0 0 1 211.12566,32.063606 Z M 177.46014,65.54 200.56128,60.757658 219.85275,87.155106 211.74709,107.23013 164.383,90.316315 Z M 156.49349,84.237066 137.20202,60.946791 a 223.36504,223.36509 0 0 1 26.07321,-13.671555 l 5.40377,13.644536 z m -10.1591,3.134191 -41.14974,-2.701888 A 228.33652,228.33657 0 0 1 128.8802,66.404605 Z m -31.17978,7.7274 33.47639,2.188529 -19.69676,30.612394 -25.77601,-1.45902 z m 7.64634,42.311573 -8.78113,13.50944 v 0 0 L 96.295438,179.5867 58.739201,154.02684 97.133023,135.97822 Z m -18.56196,97.48412 -27.018878,7.53827 -13.21223,-27.77541 38.258728,-4.37706 z m -28.558954,18.12967 v 0 l 29.342494,-8.10566 0.86461,11.0237 -23.992763,33.98975 -26.262347,-32.42266 19.804836,-4.32302 z M 94.350079,289.39143 127.0159,308.76397 99.997024,320.73334 88.000643,298.3617 Z m 42.608771,25.749 9.99698,8.70008 -15.10355,32.01737 -1.24287,0.86461 v 0 l -19.37253,13.69857 -20.588387,-34.25994 9.348531,-4.64725 z m 18.34581,14.0228 20.34521,9.80785 v 0 l 31.42296,15.31971 -17.42718,22.34461 -48.17465,-18.12967 z m 29.20741,3.18823 9.53766,-17.80545 40.52831,3.70159 -21.6151,28.09964 z m 12.07743,-27.42417 1.5671,-17.21103 36.74567,-0.35124 v 1.62113 c 0,0.27019 0,0.54038 0,0.81057 l 3.16121,18.91321 z m 34.28696,-98.48382 h 15.34672 l 17.29208,38.33979 -20.1831,1.83728 z m 13.83366,56.49648 28.09963,25.45179 -25.23563,17.37314 -2.864,-17.15699 z m 49.3905,22.72288 -2.70189,37.205 -32.66581,22.58778 -8.97027,-29.31548 z m 4.83638,43.98674 36.12424,40.25813 -17.37314,10.07804 -26.58657,-21.88529 a 4.4310956,4.4310966 0 0 0 -0.59442,-0.37826 h -0.18913 a 3.7015859,3.7015868 0 0 0 -1.02672,-0.40529 v 0 l -21.77721,-6.05223 z m 10.53736,-2.97208 35.82703,-5.40378 -5.75502,38.82614 z m -7.86249,-8.7271 2.51275,-34.80032 41.23081,18.15669 0.59441,9.91593 z m 21.83125,-138.28263 -5.10657,-20.8856 19.85888,4.10687 17.83245,20.15609 -8.10566,30.09903 z m 31.42295,143.9566 27.74839,17.61631 -10.29419,6.80876 -23.07412,13.50944 z m 39.0693,21.91231 18.67004,-7.78144 20.48031,16.21133 -30.99065,22.58779 -19.85888,-23.39836 z m 16.21132,-35.6379 11.21284,-18.39986 19.80483,18.91321 -25.18159,14.67126 z m 5.97117,-28.88319 v 0 l -10.53736,17.26507 -6.86279,-17.26507 c 0,0 0,0 0,0 a 2.9450574,2.9450581 0 0 0 -0.21615,-0.40528 l -0.24317,-0.45932 v 0 l -15.86008,-22.56077 19.75079,-4.4311 h 0.16212 v 0 l 27.99155,-7.88951 0.9997,10.96967 z m 10.80755,-125.85395 a 2.3506422,2.3506427 0 0 0 -0.2972,0.48634 l -0.18914,0.29721 a 4.4851333,4.4851343 0 0 0 -0.37826,0.9997 v 0 a 6.0252092,6.0252106 0 0 0 0,0.97268 v 0 l -0.24317,24.4791 -36.6376,-25.34371 20.7505,-26.55956 31.61208,5.40378 z m 12.0234,0.37826 13.0231,-17.15698 a 224.4458,224.44585 0 0 1 13.18521,25.45178 z m -24.26295,-33.93571 9.07834,-20.56137 a 227.55297,227.55302 0 0 1 20.45329,25.58688 z M 257.35495,42.222706 242.46755,28.064812 c 4.48514,-0.270189 8.99729,-0.432302 13.50944,-0.432302 q 11.42899,0 22.58778,1.107774 z M 104.88744,94.396166 92.269625,127.3592 57.145087,143.94879 a 230.36293,230.36298 0 0 1 38.20469,-50.228096 z m -10.942644,95.484724 5.403775,10.80756 -39.744766,4.67426 -15.86008,-33.74658 q 2.512755,-6.24136 5.403775,-12.29359 z m -44.662201,16.56258 -16.643628,1.91834 a 229.90361,229.90366 0 0 1 6.403474,-23.69556 z m 4.431095,9.37555 13.509438,28.96424 -39.528615,8.67306 a 226.12097,226.12102 0 0 1 3.053133,-35.12454 z m -8.781134,43.90568 16.886797,20.8856 -31.341896,11.40197 A 235.65863,235.65869 0 0 1 27.77557,263.48033 Z m 23.398346,28.96424 9.753814,12.05042 12.996079,24.317 -20.804534,10.37525 -36.340388,-25.64092 c -0.648453,-2.70189 -1.242868,-5.40378 -1.783245,-8.10566 z m -4.593209,54.03777 -9.672758,19.99397 A 226.39116,226.39121 0 0 1 38.150818,324.73213 Z m 9.915927,2.02641 8.105663,-4.16091 19.615707,32.63881 -39.204392,3.32333 -2.107472,-3.40438 z m 147.06374,7.88952 21.39895,-27.93753 9.18642,30.045 c 0,0 0,0.18913 0,0.29721 a 4.7823409,4.782342 0 0 0 0.40528,0.83758 l 0.35124,0.48634 a 4.5121522,4.5121532 0 0 0 0.62144,0.62144 2.8910197,2.8910203 0 0 0 0.4323,0.37826 4.1879257,4.1879266 0 0 0 0.78355,0.37826 3.5935104,3.5935112 0 0 0 0.56739,0.24317 v 0 l 25.55986,6.8628 -24.4791,37.82643 z m 201.37167,-19.83186 26.39745,-15.37375 20.91261,19.99398 a 231.09244,231.09249 0 0 1 -10.80755,24.15488 z m 35.12454,-20.53435 23.0471,-13.50944 a 227.09365,227.0937 0 0 1 -7.32211,28.42386 z m -7.29509,-6.94386 -23.42537,-22.37163 12.37465,-20.29118 45.0945,6.8628 q -0.48634,8.53796 -1.59411,16.8868 z m -9.02431,-52.30855 -1.32392,-14.50914 v 0 l -1.29691,-14.23895 44.90537,8.10566 a 232.74059,232.74065 0 0 1 1.18883,23.47941 c 0,1.21585 0,2.40468 0,3.59351 z"/>
</svg>
